<?xml version="1.0" encoding="UTF-8"?>
<svg width="72px" height="72px" viewBox="0 0 72 72" version="1.1" xmlns="http://www.w3.org/2000/svg" xmlns:xlink="http://www.w3.org/1999/xlink">
    <!-- Generator: Sketch 53.2 (72643) - https://sketchapp.com -->
    <title>noun_advising_2083151</title>
    <desc>Created with Sketch.</desc>
    <g id="v3.0" stroke="none" stroke-width="1" fill="none" fill-rule="evenodd">
        <g id="Very-wide-desktop" transform="translate(-455.000000, -3848.000000)" fill="#000000" fill-rule="nonzero">
            <g id="noun_advising_2083151" transform="translate(455.000000, 3848.000000)">
                <path d="M59.5,20 C62.5375661,20 65,17.5375661 65,14.5 C65,11.4624339 62.5375661,9 59.5,9 C56.4624339,9 54,11.4624339 54,14.5 C54,17.5375661 56.4624339,20 59.5,20 L59.5,20 Z M59.5,11.2 C61.3225397,11.2 62.8,12.6774603 62.8,14.5 C62.8,16.3225397 61.3225397,17.8 59.5,17.8 C57.6774603,17.8 56.2,16.3225397 56.2,14.5 C56.2,12.6774603 57.6774603,11.2 59.5,11.2 L59.5,11.2 Z" id="Shape"></path>
                <path d="M12.5,20 C15.5375661,20 18,17.5375661 18,14.5 C18,11.4624339 15.5375661,9 12.5,9 C9.46243388,9 7,11.4624339 7,14.5 C7,17.5375661 9.46243388,20 12.5,20 Z M12.5,11.2 C14.3225397,11.2 15.8,12.6774603 15.8,14.5 C15.8,16.3225397 14.3225397,17.8 12.5,17.8 C10.6774603,17.8 9.2,16.3225397 9.2,14.5 C9.2,12.6774603 10.6774603,11.2 12.5,11.2 Z" id="Shape"></path>
                <path d="M70.875,53.2560283 C71.4963203,53.2560283 72,52.7474245 72,52.12003 L72,28.5083056 C72,27.8809111 71.4963203,27.3723074 70.875,27.3723074 C70.2536797,27.3723074 69.75,27.8809111 69.75,28.5083056 L69.75,50.9840317 L67.5,50.9840317 L67.5,22.300075 C67.5534437,20.9764668 66.9121635,19.7223792 65.8125,19 C65.2181804,19.7533446 64.4940707,20.3921727 63.675,20.8857572 C63.9757795,20.8887228 64.2761955,20.9076824 64.575,20.9425571 C64.98,20.993677 65.25,21.6866359 65.25,22.300075 L65.25,50.9840317 L54,50.9840317 C53.3786797,50.9840317 52.875,51.4926355 52.875,52.12003 L52.875,68.7964848 C52.884123,69.0345464 52.7991299,69.2665017 52.6387509,69.4412339 C52.4783718,69.6159662 52.2557697,69.7191345 52.02,69.7280034 L50.3325,69.7280034 C49.8504249,69.6975227 49.4807134,69.2838372 49.5,68.7964848 L49.5,45.8720394 L56.8125,45.8720394 C58.0551407,45.8720394 59.0625,44.8548319 59.0625,43.6000429 L59.0625,41.3280463 C59.0625,40.0732572 58.0551407,39.0560497 56.8125,39.0560497 L55.125,39.0560497 L55.125,27.8551066 C55.125,26.969028 55.125,25.4922302 55.490625,24.9128711 C56.42215,23.6533574 57.6497394,22.6480201 59.0625,21.9876755 C58.0339194,21.9127748 57.0302239,21.6328536 56.109375,21.1640767 C55.1454916,21.8481649 54.3062151,22.6956463 53.62875,23.668953 C52.875,24.8163112 52.875,26.5600686 52.875,27.8664666 L52.875,39.0560497 L48.375,39.0560497 L48.375,36.7840532 C48.375,36.1566586 47.8713203,35.6480549 47.25,35.6480549 L38.25,35.6480549 C37.6286797,35.6480549 37.125,36.1566586 37.125,36.7840532 L37.125,39.0560497 L31.89375,39.0560497 C32.5533556,37.2623745 32.9879853,35.3923696 33.1875,33.4896581 C33.2193968,33.1692271 33.1151072,32.8501834 32.9005731,32.6118889 C32.6860391,32.3735944 32.3814238,32.2384453 32.0625,32.24006 L24.1875,32.24006 C23.8685762,32.2384453 23.5639609,32.3735944 23.3494269,32.6118889 C23.1348928,32.8501834 23.0306032,33.1692271 23.0625,33.4896581 C23.2618397,35.3923995 23.6964744,37.2624262 24.35625,39.0560497 L19.125,39.0560497 L19.125,27.8664666 C19.125,26.5771086 19.125,24.8163112 18.388125,23.663273 C17.7103991,22.6901877 16.8711642,21.8427483 15.9075,21.1583967 C14.9818888,21.6313129 13.9722274,21.9132289 12.9375,21.9876755 C14.3448793,22.651799 15.5665573,23.6589962 16.4925,24.9185511 C16.869375,25.4865502 16.86375,26.980388 16.858125,27.8607866 L16.858125,39.0560497 L15.1875,39.0560497 C13.9448593,39.0560497 12.9375,40.0732572 12.9375,41.3280463 L12.9375,43.6000429 C12.9375,44.8548319 13.9448593,45.8720394 15.1875,45.8720394 L22.5,45.8720394 L22.5,68.7964848 C22.509123,69.0345464 22.4241299,69.2665017 22.2637509,69.4412339 C22.1033718,69.6159662 21.8807697,69.7191345 21.645,69.7280034 L19.9575,69.7280034 C19.4754249,69.6975227 19.1057134,69.2838372 19.125,68.7964848 L19.125,52.12003 C19.125,51.4926355 18.6213203,50.9840317 18,50.9840317 L6.75,50.9840317 L6.75,22.300075 C6.75,21.6866359 7.02,20.993677 7.425,20.9425571 C7.72381725,20.9078276 8.02422576,20.8888686 8.325,20.8857572 C7.50578367,20.3923752 6.78164042,19.7535175 6.1875,19 C5.08783653,19.7223792 4.44655634,20.9764668 4.5,22.300075 L4.5,50.9840317 L2.25,50.9840317 L2.25,28.5083056 C2.25,27.8809111 1.74632034,27.3723074 1.125,27.3723074 C0.503679656,27.3723074 7.6089797e-17,27.8809111 0,28.5083056 L0,52.12003 C7.6089797e-17,52.7474245 0.503679656,53.2560283 1.125,53.2560283 L2.25,53.2560283 L2.25,69.7280034 L1.125,69.7280034 C0.503679656,69.7280034 7.6089797e-17,70.2366072 0,70.8640017 C-7.6089797e-17,71.4913962 0.503679656,72 1.125,72 L70.875,72 C71.4963203,72 72,71.4913962 72,70.8640017 C72,70.2366072 71.4963203,69.7280034 70.875,69.7280034 L69.75,69.7280034 L69.75,53.2560283 L70.875,53.2560283 Z M4.5,53.2560283 L16.875,53.2560283 L16.875,68.7964848 C16.8749734,69.1119626 16.9204507,69.4257625 17.01,69.7280034 L4.5,69.7280034 L4.5,53.2560283 Z M47.385,69.7280034 L43.160625,69.7280034 C43.346781,69.3867653 43.346781,68.9730032 43.160625,68.6317651 L37.33875,57.3683421 L43.160625,45.8720394 L47.25,45.8720394 L47.25,68.7964848 C47.2501327,69.1119509 47.2956067,69.4257276 47.385,69.7280034 Z M41.1975,69.7280034 L31.0725,69.7280034 L36.07875,59.8448183 L41.18625,69.6882435 L41.1975,69.7280034 Z M36.061875,54.9032258 L31.37625,45.8720394 L40.635,45.8720394 L36.061875,54.9032258 Z M39.375,37.9200514 L46.125,37.9200514 L46.125,39.0560497 L39.375,39.0560497 L39.375,37.9200514 Z M25.48125,34.5120566 L30.76875,34.5120566 C30.5499883,36.0885897 30.0907984,37.6214127 29.4075,39.0560497 L26.8425,39.0560497 C26.1589476,37.6215125 25.6997456,36.0886488 25.48125,34.5120566 Z M15.1875,41.3280463 L56.8125,41.3280463 L56.8125,43.6000429 L15.1875,43.6000429 L15.1875,41.3280463 Z M24.75,68.7964848 L24.75,45.8720394 L28.839375,45.8720394 L34.8075,57.3797021 L28.81125,69.2111242 C28.7300831,69.3711043 28.6876711,69.5482505 28.6875,69.7280034 L24.615,69.7280034 C24.7043933,69.4257276 24.7498673,69.1119509 24.75,68.7964848 Z M67.5,69.7280034 L54.99,69.7280034 C55.0795493,69.4257625 55.1250266,69.1119626 55.125,68.7964848 L55.125,53.2560283 L67.5,53.2560283 L67.5,69.7280034 Z" id="Shape"></path>
                <path d="M40.0508043,20.0660493 C41.5602252,20.0651483 43.0501699,19.7253941 44.4106347,19.0718711 L49.5164436,20.9331937 C49.9381279,21.0867861 50.4108668,20.970222 50.7127085,20.6382285 C51.0145502,20.306235 51.0855446,19.8247507 50.8923597,19.4198334 L48.7815166,15.0012634 C51.0243796,11.0550146 50.3400778,6.09557667 47.112267,2.90347197 C43.8844561,-0.288632743 38.9157109,-0.919707558 34.9917719,1.36406134 C31.0678329,3.64783023 29.1643627,8.27859815 30.348547,12.6601124 C31.5327314,17.0416267 35.5101303,20.0844516 40.0508043,20.0826189 L40.0508043,20.0660493 Z M40.0508043,2.22054974 C42.9224036,2.22063217 45.5625497,3.79514469 46.9264509,6.32100144 C48.2903521,8.8468582 48.1581884,11.9169667 46.5822612,14.3163851 C46.3621458,14.6451762 46.3347457,15.0665217 46.5104262,15.4210276 L47.7205693,17.9561821 L44.6979746,16.8515396 C44.4003631,16.7427456 44.0703468,16.766882 43.7917488,16.9178182 C40.9237564,18.4710099 37.3926598,18.0828656 34.9309003,15.9438184 C32.4691407,13.8047712 31.5932607,10.3636499 32.7329881,7.30875172 C33.8727156,4.25385352 36.7889053,2.22617723 40.0508043,2.22054974 L40.0508043,2.22054974 Z" id="Shape"></path>
                <path d="M36.125,9 L42.875,9 C43.4963203,9 44,8.55228475 44,8 C44,7.44771525 43.4963203,7 42.875,7 L36.125,7 C35.5036797,7 35,7.44771525 35,8 C35,8.55228475 35.5036797,9 36.125,9 Z" id="Path"></path>
                <path d="M36.125,14 L42.875,14 C43.4963203,14 44,13.5522847 44,13 C44,12.4477153 43.4963203,12 42.875,12 L36.125,12 C35.5036797,12 35,12.4477153 35,13 C35,13.5522847 35.5036797,14 36.125,14 Z" id="Path"></path>
            </g>
        </g>
    </g>
</svg>