<?xml version="1.0" encoding="UTF-8"?>
<svg width="117px" height="88px" viewBox="0 0 117 88" version="1.1" xmlns="http://www.w3.org/2000/svg" xmlns:xlink="http://www.w3.org/1999/xlink">
    <!-- Generator: Sketch 53.2 (72643) - https://sketchapp.com -->
    <title>noun_analyst_2228710</title>
    <desc>Created with Sketch.</desc>
    <g id="v3.0" stroke="none" stroke-width="1" fill="none" fill-rule="evenodd">
        <g id="Very-wide-desktop" transform="translate(-433.000000, -4072.000000)" fill="#000000" fill-rule="nonzero">
            <g id="noun_analyst_2228710" transform="translate(433.000000, 4072.000000)">
                <path d="M38.7755463,0 L38.7755463,23.709516 L8.37681247,23.709516 C6.15508477,23.709551 4.0243692,24.5902744 2.45340817,26.1579332 C0.882447147,27.725592 -7.15422446e-05,29.8517689 0,32.06872 L0,53.1352097 C0.0447321585,54.8976766 1.48942284,56.3032141 3.25625344,56.3032141 C5.02308403,56.3032141 6.46777471,54.8976766 6.51250687,53.1352097 L6.51250687,37.0800906 C6.52936514,36.7043277 6.83957129,36.4083358 7.21652092,36.4083358 C7.59347056,36.4083358 7.90367671,36.7043277 7.92053498,37.0800906 L7.92053498,84.7738048 C7.93466122,86.5596874 9.38951483,88 11.179301,88 C12.9690871,88 14.4239407,86.5596874 14.4380669,84.7738048 L14.4380669,62.4635735 C14.4524081,61.6751345 15.0970329,61.0434646 15.8873007,61.0434646 C16.6775686,61.0434646 17.3221933,61.6751345 17.3365345,62.4635735 L17.3365345,84.7738048 C17.3860525,86.5327846 18.8293229,87.9330644 20.5927879,87.9330644 C22.3562529,87.9330644 23.7995233,86.5327846 23.8490414,84.7738048 L23.8490414,31.5350002 C23.8490458,31.1831273 23.9891368,30.845669 24.238494,30.5968667 C24.4878512,30.3480644 24.8260472,30.2083001 25.1786782,30.2083223 L38.7755463,30.2083223 L38.7755463,54.7779877 L117,54.7779877 L117,0 L38.7755463,0 Z M41.4338149,2.65345607 L114.336706,2.65345607 L114.336706,52.1245316 L41.4338149,52.1245316 L41.4338149,30.2083223 C43.1506301,30.2897575 44.6354266,29.0261137 44.8257456,27.3216019 L65.7662692,13.1530551 L44.425749,25.3627238 C43.8492721,24.3431047 42.7678306,23.711609 41.5946176,23.709516 L41.4338149,23.709516 L41.4338149,2.65345607 Z M8.37681247,25.0362942 L41.5946176,25.0362942 C42.6348596,25.0693589 43.4609869,25.9203871 43.4609869,26.9589192 C43.4609869,27.9974512 42.6348596,28.8484794 41.5946176,28.8815441 L25.1786782,28.8815441 C24.4733988,28.8814998 23.7969916,29.1610422 23.2982743,29.6586684 C22.799557,30.1562947 22.5193868,30.8312371 22.5194045,31.5350002 L22.5194045,84.7738048 C22.4927719,85.8167539 21.6378208,86.6484055 20.5922854,86.6484055 C19.54675,86.6484055 18.691799,85.8167539 18.6651663,84.7738048 L18.6651663,62.4635735 C18.6246769,60.9614556 17.3926969,59.7647449 15.8867982,59.7647449 C14.3808995,59.7647449 13.1489195,60.9614556 13.1084301,62.4635735 L13.1084301,84.7738048 C13.0938062,85.826538 12.2344036,86.6722882 11.179301,86.6722882 C10.1241983,86.6722882 9.26479575,85.826538 9.2501718,84.7738048 L9.2501718,37.0800906 C9.22128233,35.980058 8.31930205,35.1032943 7.21652092,35.1032943 C6.1137398,35.1032943 5.21175952,35.980058 5.18287005,37.0800906 L5.18287005,53.1352097 C5.1473313,54.171368 4.29525224,54.9930134 3.25625344,54.9930134 C2.21725463,54.9930134 1.36517557,54.171368 1.32963682,53.1352097 L1.32963682,32.06872 C1.32953441,28.1849328 4.48465738,25.0364136 8.37681247,25.0362942 L8.37681247,25.0362942 Z" id="Shape"></path>
                <path d="M15.306438,8.00327116 C11.7939422,8.12357879 9.00099648,11.4163766 9.00092549,15.4372779 C8.96138371,18.1239072 10.1913794,20.6260453 12.2184565,21.9825908 C14.2455337,23.3391364 16.7544663,23.3391364 18.7815435,21.9825908 C20.8086206,20.6260453 22.0386163,18.1239072 21.9990745,15.4372779 C21.9990242,13.4265457 21.2874633,11.5015106 20.026582,10.1009564 C18.7657006,8.70040216 17.0629466,7.94367907 15.306438,8.00327116 L15.306438,8.00327116 Z M15.4078276,9.32223336 C16.8345457,9.29502235 18.2101573,9.92964603 19.2213855,11.0815774 C20.2326137,12.2335089 20.793369,13.80468 20.775947,15.4372779 C20.7997364,17.613754 19.7985913,19.6366507 18.1551467,20.7328224 C16.5117021,21.8289942 14.4800024,21.8289942 12.8365578,20.7328224 C11.1931132,19.6366507 10.1919681,17.613754 10.2157575,15.4372779 C10.1802623,12.1110882 12.5010896,9.37769634 15.4078276,9.32223336 Z" id="Shape"></path>
                <polygon id="Path" points="12.82 27.4016 17.18 27.4016 15 30.5984"></polygon>
                <polygon id="Path" points="15 33 17.56 45.672516 15 48 12.44 45.672516"></polygon>
                <polygon id="Path" points="83.737 37.85185 83.737 28.14815 86.263 28.14815 86.263 37.85185"></polygon>
                <polygon id="Path" points="90.738 25 93.262 25 93.262 38 90.738 38"></polygon>
                <polygon id="Path" points="95.7375 30.5876 98.2625 30.5876 98.2625 37.4124 95.7375 37.4124"></polygon>
                <polygon id="Path" points="105.262 26 105.262 38 102.738 38 102.738 26"></polygon>
                <path d="M89.461643,21.4837016 C89.716383,21.1579946 90.1024962,20.981532 90.5002569,21.0090312 C90.8980176,21.0365303 91.2593478,21.2646673 91.4722062,21.6227016 L94.1887256,26.1917016 C94.6264644,26.9276751 95.3769805,27.3877749 96.195807,27.422132 C97.0146334,27.456489 97.7969673,27.0607058 98.2879778,26.3637016 L102.312869,20.6501016 L102.905873,21.1251016 L103,18.5758016 L100.722115,19.3828016 L101.315118,19.8578016 L97.2902264,25.5714016 C97.0441027,25.9192791 96.6526766,26.1163049 96.243393,26.0983289 C95.8341094,26.080353 95.4593267,25.8496749 95.241071,25.4814016 L92.5245516,20.9124016 C92.0988346,20.196333 91.3761744,19.740059 90.5806529,19.6850608 C89.7851315,19.6300625 89.0129051,19.9829877 88.5034252,20.6344016 L85,25.1138016 L85.9572766,25.9588016 L89.461643,21.4837016 Z" id="Path"></path>
                <path d="M69.577457,16 C65.7607173,16.3115971 62.6566401,19.3086022 62.0908353,23.2283781 C61.5250305,27.148154 63.6472044,30.9535668 67.2092368,32.4065281 C70.7712692,33.8594894 74.8306816,32.57556 77,29.309861 L69.577457,24.8731731 L69.577457,16 Z" id="Path"></path>
                <path d="M71.1291449,16 L71.1291449,24.0000334 L78.0531449,28 C79.2436794,25.5009523 79.1284654,22.5756752 77.745075,20.1781181 C76.3616846,17.7805611 73.887417,16.2180019 71.1291449,16 Z" id="Path"></path>
                <path d="M64.6391352,36.66145 L76.3608648,36.66145 C76.7143693,36.6596155 77,36.3640122 77,36 C77,35.6359878 76.7143693,35.3403845 76.3608648,35.33855 L64.6391352,35.33855 C64.2856307,35.3403845 64,35.6359878 64,36 C64,36.3640122 64.2856307,36.6596155 64.6391352,36.66145 L64.6391352,36.66145 Z" id="Path"></path>
                <path d="M64.6420892,39.6615 L76.3579108,39.6615 C76.7125269,39.6615 77,39.3653364 77,39 C77,38.6346636 76.7125269,38.3385 76.3579108,38.3385 L64.6420892,38.3385 C64.2874731,38.3385 64,38.6346636 64,39 C64,39.3653364 64.2874731,39.6615 64.6420892,39.6615 L64.6420892,39.6615 Z" id="Path"></path>
            </g>
        </g>
    </g>
</svg>