<?xml version="1.0" encoding="UTF-8"?>
<svg width="91px" height="80px" viewBox="0 0 91 80" version="1.1" xmlns="http://www.w3.org/2000/svg" xmlns:xlink="http://www.w3.org/1999/xlink">
    <!-- Generator: Sketch 53.2 (72643) - https://sketchapp.com -->
    <title>noun_business card_1970282</title>
    <desc>Created with Sketch.</desc>
    <g id="v3.0" stroke="none" stroke-width="1" fill="none" fill-rule="evenodd">
        <g id="Very-wide-desktop" transform="translate(-1937.000000, -3843.000000)" fill="#000000" fill-rule="nonzero">
            <g id="noun_business-card_1970282" transform="translate(1937.000000, 3843.000000)">
                <path d="M24.99375,75.065625 L23.0635417,72.8802083 L26.278125,69.2916667 C28.2875,69.353125 37.5333333,69.4552083 41.8572917,66.309375 L41.453125,65.7541667 C43.6822917,65.9291667 46.1666667,66.0510417 48.3020833,66.0510417 C48.6604167,66.0510417 49.0114583,66.0479167 49.3520833,66.040625 C50.8447917,66.0104167 51.9947917,65.48125 52.7708333,64.4697917 C54.0885417,62.7520833 53.8729167,60.1145833 53.675,58.8708333 C56.3208333,57.73125 56.5114583,55.1010417 56.6260417,53.4791667 C56.6458333,53.203125 56.6635417,52.9458333 56.6916667,52.7177083 C56.73125,52.4020833 56.628125,52.090625 56.4020833,51.8427083 C56.3364583,51.7708333 56.2354167,51.70625 56.1333333,51.640625 C57.175,50.8802083 58.453125,49.6916667 58.7395833,48.2760417 C58.825,47.8541667 58.809375,47.4364583 58.7104167,47.0322917 L84.846875,47.0322917 C86.659375,47.0322917 88.134375,45.5572917 88.134375,43.74375 L88.134375,34.8010417 L88.3604167,34.746875 C90.1229167,34.3260417 91.215625,32.5489583 90.7958333,30.7854167 L88.134375,19.6333333 L88.134375,14.8135417 C88.134375,13.5166667 87.3739583,12.4041667 86.28125,11.86875 L84.0791667,2.64583333 C83.8770833,1.79479167 83.353125,1.071875 82.603125,0.610416667 C81.853125,0.148958333 80.9739583,0.00729166667 80.11875,0.210416667 L36.9375,10.5166667 C36.0854167,10.7197917 35.3625,11.2447917 34.9020833,11.9947917 C34.4416667,12.7447917 34.3,13.6270833 34.503125,14.478125 L36.0135417,20.8072917 C35.5010417,20.85625 34.9864583,20.9052083 34.4520833,20.959375 C32.8697917,21.1166667 31.6208333,21.2416667 31.1635417,21.2416667 C29.503125,21.2416667 27.1979167,23.6 22.9270833,28.11875 C20.228125,30.9739583 17.1697917,34.2104167 14.1666667,36.6666667 C8.003125,41.7104167 9.98854167,47.9479167 10.790625,49.83125 L6.37291667,53.98125 L5.328125,52.7979167 L0.459375,57.0989583 L20.1229167,79.3666667 L24.99375,75.065625 Z M88.134375,26.3645833 L89.2760417,31.1489583 C89.484375,32.0260417 88.9760417,32.903125 88.134375,33.1802083 L88.134375,26.3645833 Z M51.5291667,63.5208333 C51.05,64.1447917 50.3270833,64.4572917 49.3197917,64.4770833 C44.2802083,64.58125 37.45625,63.890625 36.0645833,63.5229167 C36.0260417,63.2322917 36.1354167,62.4916667 36.6125,61.590625 C36.95,60.9552083 37.9114583,59.4416667 39.5572917,59.1333333 C40.4958333,58.9572917 42.1125,58.8677083 44.3645833,58.8677083 C47.4083333,58.8677083 50.7864583,59.0364583 52.1322917,59.1104167 C52.3208333,60.2864583 52.4229167,62.3604167 51.5291667,63.5208333 Z M55.0666667,53.3697917 C54.925,55.36875 54.6479167,56.946875 52.665625,57.5770833 C51.840625,57.528125 47.8916667,57.30625 44.365625,57.30625 C42.0177083,57.30625 40.3041667,57.4052083 39.2708333,57.5979167 C39.1114583,57.628125 38.95625,57.6677083 38.803125,57.7135417 C38.2697917,53.0552083 41.09375,52.2364583 41.4854167,52.146875 C47.1885417,51.9875 53.7791667,52.203125 55.1083333,52.8197917 C55.09375,52.99375 55.0802083,53.1770833 55.0666667,53.3697917 Z M57.2083333,47.9645833 C56.9510417,49.240625 55.0916667,50.5260417 54.1979167,51.0333333 C50.871875,50.4354167 44.86875,50.49375 41.68125,50.578125 C41.2395833,50.165625 40.5375,49.3333333 40.5791667,48.5291667 C40.60625,48.0052083 40.9760417,47.503125 41.6510417,47.03125 L57.0479167,47.03125 C57.2229167,47.3354167 57.2739583,47.6375 57.2083333,47.9645833 Z M86.571875,14.8145833 L86.571875,43.74375 C86.571875,44.6958333 85.7979167,45.4697917 84.846875,45.4697917 L40.453125,45.4697917 C39.5020833,45.4697917 38.728125,44.6958333 38.728125,43.74375 L38.728125,33.7864583 C43.696875,32.5020833 50.2729167,27.3489583 52.7010417,23.70625 C53.3322917,22.759375 53.0864583,22.0510417 52.8833333,21.7125 C51.8270833,19.9552083 46.9020833,19.8708333 38.728125,20.5604167 L38.728125,14.8135417 C38.728125,13.8625 39.5020833,13.0885417 40.453125,13.0885417 L84.846875,13.0885417 C85.7979167,13.0895833 86.571875,13.8635417 86.571875,14.8145833 Z M36.234375,12.8125 C36.4760417,12.41875 36.8552083,12.1427083 37.3010417,12.0364583 L80.4833333,1.73125 C80.9291667,1.625 81.3916667,1.7 81.7854167,1.94270833 C82.1791667,2.184375 82.4541667,2.56354167 82.5604167,3.00833333 L84.59375,11.5260417 L40.453125,11.5260417 C38.640625,11.5260417 37.165625,13.0010417 37.165625,14.8135417 L37.165625,18.9 L36.0239583,14.1135417 C35.9166667,13.6697917 35.9916667,13.2072917 36.234375,12.8125 Z M37.165625,20.6197917 L37.165625,20.6989583 C36.9854167,20.715625 36.8114583,20.7302083 36.628125,20.746875 L37.165625,20.6197917 Z M12.7177083,50.1625 L12.4197917,49.6302083 C12.2708333,49.3635417 8.84166667,43.0395833 15.15625,37.8739583 C18.2364583,35.3541667 21.33125,32.0791667 24.0625,29.1895833 C26.8916667,26.1958333 30.0989583,22.8020833 31.1635417,22.8020833 C31.6989583,22.8020833 32.91875,22.6802083 34.6072917,22.5125 C48.040625,21.1770833 51.2333333,21.7802083 51.5447917,22.51875 C51.546875,22.5416667 51.5270833,22.6520833 51.4010417,22.8416667 C48.5208333,27.1625 40.1833333,32.8927083 36.2510417,32.5229167 C35.5520833,32.4552083 34.5479167,32.4385417 33.9,33.0635417 C33.18125,33.75625 33.240625,34.8041667 33.3166667,36.1333333 C33.4197917,37.940625 33.5614583,40.4145833 31.940625,43.3697917 L33.3104167,44.121875 C35.146875,40.7739583 34.984375,37.928125 34.8760417,36.0447917 C34.8322917,35.265625 34.78125,34.384375 34.9833333,34.1895833 C35.0302083,34.1427083 35.2541667,33.9989583 36.1020833,34.0791667 C36.4385417,34.1104167 36.7958333,34.103125 37.165625,34.0729167 L37.165625,43.7458333 C37.165625,45.2489583 38.1854167,46.5052083 39.5635417,46.8958333 C39.2302083,47.378125 39.0458333,47.9010417 39.0197917,48.459375 C38.96875,49.5166667 39.509375,50.4364583 40.028125,51.0770833 C38.6395833,51.8322917 36.6625,53.70625 37.284375,58.1958333 L37.8447917,58.1177083 C35.8614583,59.2072917 34.640625,61.5489583 34.5125,63.1229167 C34.4041667,64.4447917 35.090625,64.840625 35.3895833,64.9489583 C35.9802083,65.1635417 37.765625,65.4166667 39.9947917,65.6260417 C35.259375,68.125 26.0791667,67.7197917 25.9802083,67.715625 L25.6083333,67.6979167 L22.0239583,71.7 L7.409375,55.15 L12.7177083,50.1625 Z M5.19270833,55.0010417 L22.7885417,74.928125 L20.2614583,77.1604167 L2.665625,57.2333333 L5.19270833,55.0010417 Z" id="Shape"></path>
                <rect id="Rectangle" x="59.8010417" y="20.9645833" width="20.365625" height="1.5625"></rect>
                <rect id="Rectangle" x="59.8010417" y="28.4989583" width="20.365625" height="1.5625"></rect>
                <rect id="Rectangle" x="59.8010417" y="36.0333333" width="20.365625" height="1.5625"></rect>
            </g>
        </g>
    </g>
</svg>