<?xml version="1.0" encoding="UTF-8"?>
<svg width="77px" height="72px" viewBox="0 0 77 72" version="1.1" xmlns="http://www.w3.org/2000/svg" xmlns:xlink="http://www.w3.org/1999/xlink">
    <!-- Generator: Sketch 53.2 (72643) - https://sketchapp.com -->
    <title>noun_business trip_1723121</title>
    <desc>Created with Sketch.</desc>
    <g id="v3.0" stroke="none" stroke-width="1" fill="none" fill-rule="evenodd">
        <g id="Very-wide-desktop" transform="translate(-1703.000000, -3847.000000)" fill="#000000" fill-rule="nonzero">
            <g id="noun_business-trip_1723121" transform="translate(1703.000000, 3847.000000)">
                <g id="Group" transform="translate(12.000000, 0.000000)">
                    <path d="M9.56402174,27.7058824 C9.32369565,27.7058824 9.08097826,27.6329216 8.87054348,27.4834118 L0.500978261,21.5030196 C-0.0358695652,21.1190784 -0.161413043,20.3715294 0.223586957,19.8344902 C0.607391304,19.2962549 1.35586957,19.1730588 1.89152174,19.5558039 L10.261087,25.5361961 C10.7979348,25.9201373 10.9234783,26.6676863 10.5384783,27.2047255 C10.3041304,27.5312549 9.93826087,27.7058824 9.56402174,27.7058824 Z" id="Path"></path>
                    <path d="M2.3901087,27.7058824 C1.83173913,27.7058824 1.33195652,27.3123725 1.21956522,26.7442353 L0.0239130435,20.7638431 C-0.105217391,20.1155686 0.314456522,19.4864314 0.961304348,19.3560588 C1.61413043,19.2268824 2.23826087,19.6467059 2.36858696,20.2937843 L3.56423913,26.2741765 C3.69336957,26.922451 3.27369565,27.5515882 2.62684783,27.6819608 C2.54673913,27.6987059 2.46663043,27.7058824 2.3901087,27.7058824 Z" id="Path"></path>
                    <path d="M1.19684783,40.8627451 C0.822608696,40.8627451 0.45673913,40.6881176 0.223586957,40.3615882 C-0.160217391,39.824549 -0.0358695652,39.077 0.500978261,38.6930588 L8.87054348,32.7126667 C9.4073913,32.3299216 10.1534783,32.4543137 10.5384783,32.9913529 C10.9222826,33.5283922 10.7979348,34.2759412 10.261087,34.6598824 L1.89152174,40.6402745 C1.6798913,40.7897843 1.43717391,40.8627451 1.19684783,40.8627451 Z" id="Path"></path>
                    <path d="M50.2173913,34.8823529 C49.5561957,34.8823529 49.0217391,34.3465098 49.0217391,33.6862745 C49.0217391,33.0260392 49.5561957,32.4901961 50.2173913,32.4901961 C51.5361957,32.4901961 52.6086957,31.4173137 52.6086957,30.0980392 C52.6086957,28.7787647 51.5361957,27.7058824 50.2173913,27.7058824 C49.5561957,27.7058824 49.0217391,27.1700392 49.0217391,26.5098039 C49.0217391,25.8495686 49.5561957,25.3137255 50.2173913,25.3137255 C52.855,25.3137255 55,27.4594902 55,30.0980392 C55,32.7365882 52.855,34.8823529 50.2173913,34.8823529 Z" id="Path"></path>
                    <path d="M50.2173913,27.7058824 L2.39130435,27.7058824 C1.7301087,27.7058824 1.19565217,27.1700392 1.19565217,26.5098039 C1.19565217,25.8495686 1.7301087,25.3137255 2.39130435,25.3137255 L50.2173913,25.3137255 C50.878587,25.3137255 51.4130435,25.8495686 51.4130435,26.5098039 C51.4130435,27.1700392 50.878587,27.7058824 50.2173913,27.7058824 Z" id="Path"></path>
                    <path d="M50.2173913,34.8823529 L2.39130435,34.8823529 C1.7301087,34.8823529 1.19565217,34.3465098 1.19565217,33.6862745 C1.19565217,33.0260392 1.7301087,32.4901961 2.39130435,32.4901961 L50.2173913,32.4901961 C50.878587,32.4901961 51.4130435,33.0260392 51.4130435,33.6862745 C51.4130435,34.3465098 50.878587,34.8823529 50.2173913,34.8823529 Z" id="Path"></path>
                    <path d="M1.19684783,40.8627451 C1.11913043,40.8627451 1.04021739,40.8555686 0.961304348,40.8388235 C0.314456522,40.7096471 -0.106413043,40.0793137 0.0239130435,39.4310392 L1.21956522,33.4506471 C1.3475,32.8023725 1.98,32.3837451 2.62684783,32.5129216 C3.27369565,32.642098 3.69456522,33.2724314 3.56423913,33.9207059 L2.36858696,39.901098 C2.255,40.4704314 1.75521739,40.8627451 1.19684783,40.8627451 Z" id="Path"></path>
                    <path d="M9.56521739,31.2941176 L1.19565217,31.2941176 C0.534456522,31.2941176 0,30.7582745 0,30.0980392 C0,29.4378039 0.534456522,28.9019608 1.19565217,28.9019608 L9.56521739,28.9019608 C10.226413,28.9019608 10.7608696,29.4378039 10.7608696,30.0980392 C10.7608696,30.7582745 10.226413,31.2941176 9.56521739,31.2941176 Z" id="Path"></path>
                    <path d="M2.39130435,34.8823529 C1.7301087,34.8823529 1.19565217,34.3465098 1.19565217,33.6862745 L1.19565217,26.5098039 C1.19565217,25.8495686 1.7301087,25.3137255 2.39130435,25.3137255 C3.0525,25.3137255 3.58695652,25.8495686 3.58695652,26.5098039 L3.58695652,33.6862745 C3.58695652,34.3465098 3.0525,34.8823529 2.39130435,34.8823529 Z" id="Path"></path>
                    <g transform="translate(17.739130, 32.294118)" id="Path">
                        <g>
                            <path d="M4.97706522,27.7058824 C4.79054348,27.7058824 4.60163043,27.6628235 4.42347826,27.5695294 C3.83880435,27.2633333 3.61163043,26.540902 3.91891304,25.9548235 L17.071087,0.837176471 C17.3771739,0.251098039 18.0981522,0.0250392157 18.6852174,0.332431373 C19.2698913,0.638627451 19.4970652,1.36105882 19.1897826,1.94713725 L6.0376087,27.0647843 C5.82358696,27.4726471 5.4075,27.7058824 4.97706522,27.7058824 Z"></path>
                            <path d="M4.97826087,27.7058824 L1.39130435,27.7058824 C0.730108696,27.7058824 0.195652174,27.1712353 0.195652174,26.5098039 C0.195652174,25.8483725 0.730108696,25.3137255 1.39130435,25.3137255 L4.97826087,25.3137255 C5.63945652,25.3137255 6.17391304,25.8483725 6.17391304,26.5098039 C6.17391304,27.1712353 5.63945652,27.7058824 4.97826087,27.7058824 Z"></path>
                            <path d="M1.3925,27.7058824 C1.33630435,27.7058824 1.27891304,27.7022941 1.22152174,27.6939216 C0.5675,27.6006275 0.113152174,26.9942157 0.206413043,26.3399608 L3.79336957,1.22231373 C3.88782609,0.569254902 4.49641304,0.117137255 5.14684783,0.208039216 C5.80086957,0.301333333 6.25521739,0.90654902 6.16195652,1.56080392 L2.575,26.678451 C2.4901087,27.2764902 1.97836957,27.7058824 1.3925,27.7058824 Z"></path>
                        </g>
                        <path d="M12.1521739,18.1372549 L9.98804348,18.1372549 C9.32684783,18.1372549 8.7923913,17.6026078 8.7923913,16.9411765 C8.7923913,16.2797451 9.32684783,15.745098 9.98804348,15.745098 L12.1521739,15.745098 C12.8133696,15.745098 13.3478261,16.2797451 13.3478261,16.9411765 C13.3478261,17.6026078 12.8133696,18.1372549 12.1521739,18.1372549 Z"></path>
                        <path d="M15.7391304,10.9607843 L13.7459783,10.9607843 C13.0847826,10.9607843 12.5503261,10.4261373 12.5503261,9.76470588 C12.5503261,9.10327451 13.0847826,8.56862745 13.7459783,8.56862745 L15.7391304,8.56862745 C16.4003261,8.56862745 16.9347826,9.10327451 16.9347826,9.76470588 C16.9347826,10.4261373 16.4003261,10.9607843 15.7391304,10.9607843 Z"></path>
                    </g>
                    <g transform="translate(17.934783, 0.000000)" id="Path">
                        <g>
                            <path d="M17.9359783,27.7058824 C17.5055435,27.7058824 17.0894565,27.4726471 16.8754348,27.0647843 L3.72326087,1.94713725 C3.41597826,1.3622549 3.64315217,0.639823529 4.22782609,0.332431373 C4.81369565,0.0250392157 5.53586957,0.252294118 5.84195652,0.837176471 L18.9941304,25.9548235 C19.301413,26.5397059 19.0742391,27.2621373 18.4895652,27.5695294 C18.311413,27.6616275 18.1225,27.7058824 17.9359783,27.7058824 Z"></path>
                            <path d="M4.7826087,2.58823529 L1.19565217,2.58823529 C0.534456522,2.58823529 0,2.05239216 0,1.39215686 C0,0.731921569 0.534456522,0.196078431 1.19565217,0.196078431 L4.7826087,0.196078431 C5.44380435,0.196078431 5.97826087,0.731921569 5.97826087,1.39215686 C5.97826087,2.05239216 5.44380435,2.58823529 4.7826087,2.58823529 Z"></path>
                            <path d="M4.78141304,27.7058824 C4.19554348,27.7058824 3.68380435,27.2752941 3.59891304,26.6796471 L0.0119565217,1.562 C-0.0813043478,0.907745098 0.373043478,0.302529412 1.02706522,0.209235294 C1.68228261,0.112352941 2.28728261,0.57045098 2.38054348,1.2235098 L5.9675,26.3411569 C6.06076087,26.9954118 5.60641304,27.6006275 4.9523913,27.6939216 C4.895,27.7022941 4.8376087,27.7058824 4.78141304,27.7058824 Z"></path>
                        </g>
                        <path d="M11.9565217,12.1568627 L9.7923913,12.1568627 C9.13119565,12.1568627 8.59673913,11.6210196 8.59673913,10.9607843 C8.59673913,10.300549 9.13119565,9.76470588 9.7923913,9.76470588 L11.9565217,9.76470588 C12.6177174,9.76470588 13.1521739,10.300549 13.1521739,10.9607843 C13.1521739,11.6210196 12.6177174,12.1568627 11.9565217,12.1568627 Z"></path>
                        <path d="M15.5434783,19.3333333 L13.5503261,19.3333333 C12.8891304,19.3333333 12.3546739,18.7974902 12.3546739,18.1372549 C12.3546739,17.4770196 12.8891304,16.9411765 13.5503261,16.9411765 L15.5434783,16.9411765 C16.2046739,16.9411765 16.7391304,17.4770196 16.7391304,18.1372549 C16.7391304,18.7974902 16.2046739,19.3333333 15.5434783,19.3333333 Z"></path>
                    </g>
                </g>
                <path d="M24.8181818,2 L1.18181818,2 C0.528272727,2 0,1.552 0,1 C0,0.448 0.528272727,0 1.18181818,0 L24.8181818,0 C25.4717273,0 26,0.448 26,1 C26,1.552 25.4717273,2 24.8181818,2 Z" id="Path"></path>
                <path d="M26.7692308,12 L13.2307692,12 C12.5501538,12 12,11.552 12,11 C12,10.448 12.5501538,10 13.2307692,10 L26.7692308,10 C27.4498462,10 28,10.448 28,11 C28,11.552 27.4498462,12 26.7692308,12 Z" id="Path"></path>
                <path d="M24.8181818,60 L1.18181818,60 C0.528272727,60 0,59.553 0,59 C0,58.447 0.528272727,58 1.18181818,58 L24.8181818,58 C25.4717273,58 26,58.447 26,59 C26,59.553 25.4717273,60 24.8181818,60 Z" id="Path"></path>
                <path d="M26.7692308,51 L13.2307692,51 C12.5501538,51 12,50.553 12,50 C12,49.447 12.5501538,49 13.2307692,49 L26.7692308,49 C27.4498462,49 28,49.447 28,50 C28,50.553 27.4498462,51 26.7692308,51 Z" id="Path"></path>
                <path d="M8.75,22 L1.25,22 C0.55875,22 0,21.552 0,21 C0,20.448 0.55875,20 1.25,20 L8.75,20 C9.44125,20 10,20.448 10,21 C10,21.552 9.44125,22 8.75,22 Z" id="Path"></path>
                <path d="M6.8,31 L3.2,31 C2.5364,31 2,30.552 2,30 C2,29.448 2.5364,29 3.2,29 L6.8,29 C7.4636,29 8,29.448 8,30 C8,30.552 7.4636,31 6.8,31 Z" id="Path"></path>
                <path d="M8.75,41 L1.25,41 C0.55875,41 0,40.553 0,40 C0,39.447 0.55875,39 1.25,39 L8.75,39 C9.44125,39 10,39.447 10,40 C10,40.553 9.44125,41 8.75,41 Z" id="Path"></path>
                <g id="Group" transform="translate(48.000000, 48.000000)">
                    <path d="M25.375,24 L3.625,24 C1.62641667,24 0,22.3848 0,20.4 L0,7.2 C0,5.2152 1.62641667,3.6 3.625,3.6 L25.375,3.6 C27.3735833,3.6 29,5.2152 29,7.2 L29,20.4 C29,22.3848 27.3735833,24 25.375,24 Z M3.625,6 C2.958,6 2.41666667,6.5376 2.41666667,7.2 L2.41666667,20.4 C2.41666667,21.0624 2.958,21.6 3.625,21.6 L25.375,21.6 C26.042,21.6 26.5833333,21.0624 26.5833333,20.4 L26.5833333,7.2 C26.5833333,6.5376 26.042,6 25.375,6 L3.625,6 Z" id="Shape"></path>
                    <path d="M10.875,6 C10.2067917,6 9.66666667,5.4636 9.66666667,4.8 L9.66666667,1.2 C9.66666667,0.5364 10.2067917,0 10.875,0 C11.5432083,0 12.0833333,0.5364 12.0833333,1.2 L12.0833333,4.8 C12.0833333,5.4636 11.5432083,6 10.875,6 Z" id="Path"></path>
                    <path d="M18.125,2.4 L10.875,2.4 C10.2067917,2.4 9.66666667,1.8636 9.66666667,1.2 C9.66666667,0.5364 10.2067917,0 10.875,0 L18.125,0 C18.7932083,0 19.3333333,0.5364 19.3333333,1.2 C19.3333333,1.8636 18.7932083,2.4 18.125,2.4 Z" id="Path"></path>
                    <path d="M18.125,6 C17.4567917,6 16.9166667,5.4636 16.9166667,4.8 L16.9166667,1.2 C16.9166667,0.5364 17.4567917,0 18.125,0 C18.7932083,0 19.3333333,0.5364 19.3333333,1.2 L19.3333333,4.8 C19.3333333,5.4636 18.7932083,6 18.125,6 Z" id="Path"></path>
                    <path d="M21.75,12 L7.25,12 C6.58179167,12 6.04166667,11.4636 6.04166667,10.8 C6.04166667,10.1364 6.58179167,9.6 7.25,9.6 L21.75,9.6 C22.4182083,9.6 22.9583333,10.1364 22.9583333,10.8 C22.9583333,11.4636 22.4182083,12 21.75,12 Z" id="Path"></path>
                    <path d="M21.75,18 L7.25,18 C6.58179167,18 6.04166667,17.4636 6.04166667,16.8 C6.04166667,16.1364 6.58179167,15.6 7.25,15.6 L21.75,15.6 C22.4182083,15.6 22.9583333,16.1364 22.9583333,16.8 C22.9583333,17.4636 22.4182083,18 21.75,18 Z" id="Path"></path>
                    <path d="M6.04166667,6 C5.37345833,6 4.83333333,5.4636 4.83333333,4.8 L4.83333333,3.6 C4.83333333,2.9364 5.37345833,2.4 6.04166667,2.4 C6.709875,2.4 7.25,2.9364 7.25,3.6 L7.25,4.8 C7.25,5.4636 6.709875,6 6.04166667,6 Z" id="Path"></path>
                    <path d="M22.9583333,6 C22.290125,6 21.75,5.4636 21.75,4.8 L21.75,3.6 C21.75,2.9364 22.290125,2.4 22.9583333,2.4 C23.6265417,2.4 24.1666667,2.9364 24.1666667,3.6 L24.1666667,4.8 C24.1666667,5.4636 23.6265417,6 22.9583333,6 Z" id="Path"></path>
                </g>
            </g>
        </g>
    </g>
</svg>