<?xml version="1.0" encoding="UTF-8"?>
<svg width="69px" height="107px" viewBox="0 0 69 107" version="1.1" xmlns="http://www.w3.org/2000/svg" xmlns:xlink="http://www.w3.org/1999/xlink">
    <!-- Generator: Sketch 53.2 (72643) - https://sketchapp.com -->
    <title>noun_fairy_2447282</title>
    <desc>Created with Sketch.</desc>
    <g id="v3.0" stroke="none" stroke-width="1" fill="none" fill-rule="evenodd">
        <g id="Very-wide-desktop" transform="translate(-957.000000, -3835.000000)">
            <g id="noun_fairy_2447282" transform="translate(957.000000, 3835.000000)">
                <path d="M53.4082216,43.6844051 C53.2690821,43.6540564 52.1651552,43.3083446 52.0076388,43.2621617 C50.2631454,42.7515111 47.5066096,41.2934518 45.567846,39.890812 C45.0769201,39.5358637 44.6358744,39.1835543 44.2735868,38.8483986 C43.9034234,38.5066454 43.6133308,38.1807262 43.436125,37.8891144 L43.4348123,37.8877949 C42.3886413,36.164514 41.4645455,35.3807247 41.3135923,35.2593297 C40.1715989,34.7302059 38.8313974,33.4225709 37.3691208,31.9961799 C36.3636415,31.0157835 35.3004063,29.9786481 34.2201067,29.1143687 C34.1531623,27.4491463 34.1977919,25.5292583 34.6650904,24.3971182 L35.5340555,22.2924987 L33.5532876,23.4022071 C31.4123781,24.6029618 28.7162235,25.5635656 27.3025144,27.6985338 C27.1476233,27.9334067 27.0137344,28.1748771 26.8995351,28.4229451 C26.3613543,27.8911823 25.6866593,27.4940096 24.96996,27.2274685 C23.523435,26.6891081 21.8918283,26.6561204 20.3862347,26.9345371 L20.1315833,26.9820395 C20.5988817,26.2483916 21.1698784,25.5424534 21.734312,24.8457518 C26.2563434,19.2629023 23.3606681,18.3062571 22.766044,17.8483869 C22.6689089,17.8760966 22.5652106,17.9011673 22.4562618,17.923599 C22.3354993,17.9473502 22.2094862,17.9671428 22.0808479,17.982977 C21.4219046,18.0608281 19.1169155,18.0595086 19.0788491,16.8521563 C19.0775365,16.8455588 19.0775365,16.8376417 19.0788491,16.8310442 L19.0775365,16.8310442 C19.0893502,16.5922127 19.2022369,16.4180373 19.3164362,16.2451814 C19.3335005,16.2187912 19.3518774,16.1910815 19.367629,16.1646913 C19.3006846,15.7820332 19.0644101,16.0274622 18.9948404,15.9337769 C18.8990179,15.8084234 18.8819537,15.6685553 18.9278959,15.5339652 C19.010592,15.2938143 19.8428033,15.4086117 19.5894645,15.0549829 C19.0447205,14.830666 18.8780158,14.9890073 18.7336258,14.6881589 C18.72575,14.6749638 18.7204994,14.6604492 18.7165615,14.6459346 L18.7165615,14.6459346 C18.6496171,14.4137007 18.8977053,14.4084226 19.0289689,14.2421643 C19.1431683,14.0956986 19.5448349,13.8621452 19.0565343,13.6140772 L19.0565343,13.6140772 L19.0552216,13.6140772 C18.8215724,13.4953213 18.4474711,13.4187897 18.1639417,13.3607312 C18.152128,13.3594117 17.993299,13.3013532 17.9827979,13.2973947 C17.7176454,13.2023899 17.5456901,12.9094586 17.7045191,12.7511173 C18.7821933,11.6875917 19.8323022,11.0172803 19.6117794,9.40483832 L19.6117794,9.40351881 L19.6052162,9.35997495 C19.5343338,9.01426317 18.9515234,8.75431957 18.6378034,8.93377302 C17.4170518,9.76506472 19.0617848,10.7533782 18.8386367,10.6451783 C18.0851835,10.786366 17.2634733,10.3694006 17.033762,9.3164311 C16.8434298,7.74225492 17.4511803,6.07571298 19.0263436,5.49380879 C21.9338327,4.42104665 23.4236746,6.85554377 24.0130483,6.51906856 C24.4908478,6.24592986 25.6709077,5.43179179 26.6566974,5.33810654 C29.3843553,5.5439502 32.1238269,8.02067166 30.9280154,10.9262341 C30.8991374,10.9948486 30.8991374,11.8947549 30.8991374,11.8947549 C30.9700197,12.037262 31.0605916,12.1705326 31.1511635,12.3024837 C31.2417354,12.4357542 31.329682,12.5663858 31.4045023,12.7062539 C31.6158367,12.71681 31.8074816,12.7458392 31.9846874,12.7893831 C32.3128465,12.8698732 32.5845621,12.9991853 32.8379009,13.1469705 C32.8457767,13.1522485 32.8536525,13.1575266 32.8615284,13.1628046 L32.862841,13.1628046 C33.191,13.4029555 33.263195,13.4280262 34.3684346,14.6076688 C33.5191591,14.3688373 32.9284728,14.2923057 31.9046166,14.7132296 C30.6431733,15.2304778 29.9802921,16.9656343 28.2988052,16.2293473 C28.3093063,16.2728912 28.3079937,16.319074 28.2961799,16.3639374 C28.2948673,16.3718545 27.635924,18.7153054 29.1992736,19.6455604 L29.1992736,19.6455604 C30.1299326,20.1997548 31.300804,20.4874081 32.3377865,20.7433932 C33.2185654,20.9597929 34.0061471,21.153761 34.525951,21.4744021 C35.0785708,21.8161553 35.8792788,22.3479181 36.8007494,23.2781731 C37.7169694,24.2031501 38.7526393,25.5239802 39.781746,27.4425487 C41.7743276,31.1622492 44.5964953,32.8736545 44.6043711,32.8789325 C44.6096216,32.8815715 44.6135596,32.8855301 44.6188101,32.8881691 C44.8708362,33.0504689 50.2907108,36.531338 51.541653,37.8904339 C51.7529874,38.1187092 53.5591747,40.5980697 53.5670505,40.5927917 C53.7166911,40.7141867 53.9135865,40.8091914 54.135422,40.8817645 L54.1367346,40.880445 C54.7221703,41.0572594 55.4703729,41.063857 55.9179818,40.9411425 C56.4522247,40.7933573 56.884082,40.691755 57.2608086,40.6561282 C57.6611626,40.6191819 58.002448,40.6534892 58.3345449,40.7841207 C58.6206996,40.8962791 58.9803619,41.0374668 59.3150841,41.131152 C59.6248662,41.2169202 59.9136462,41.2657421 60.09479,41.2142812 L60.0974152,41.2129617 C60.2168651,41.1786544 60.3573172,41.1219155 60.4912061,41.0678155 C60.7143542,40.9767693 60.9204381,40.8936401 61.0897681,40.8923206 C61.3299806,40.8923206 61.4769958,40.9978815 61.4783084,41.2789372 L61.4783084,41.2802567 L61.4783084,41.2815762 L61.4783084,41.2815762 C61.4769958,41.5085321 61.2446592,41.8964682 60.9650677,42.2157898 C60.6802257,42.5430284 60.3245013,42.8214451 60.0842889,42.8240842 L60.0816636,42.8240842 L60.0816636,42.8254037 L60.080351,42.8254037 C60.0107813,42.8254037 59.9162715,42.8689475 59.8178237,42.9309645 L59.9267725,42.9454791 C60.4859555,43.0180522 60.9598172,43.0787497 61.4468052,43.2265349 C61.8524097,43.3492494 62.2672027,43.5326614 62.7489402,43.8321903 C62.7541907,43.8361488 64.6982048,45.0289864 63.7294794,45.3219178 L63.7281668,45.3232373 C63.6599097,45.34303 63.5837768,45.3588641 63.5023933,45.3694202 C63.4236352,45.3799763 63.3435644,45.3852543 63.2621809,45.3839348 C63.1768596,45.3839348 63.0876003,45.3786568 62.9957158,45.3681007 C63.002279,45.3720592 63.0101548,45.3746982 63.016718,45.3786568 C63.2648062,45.5119273 63.4013204,45.6715881 63.3540655,45.8602781 C63.3514402,45.8708342 63.3488149,45.8813903 63.344877,45.8906269 C63.344877,45.8906269 63.344877,45.8906269 63.344877,45.8906269 C63.2188639,46.2376582 62.4732866,46.1017486 61.8314076,45.9843121 C61.7985917,45.9777146 61.7657758,45.9724365 61.7342725,45.965839 C61.9009773,46.0595242 62.0650568,46.1703631 62.1674424,46.2653679 C62.2356995,46.3260654 62.2868923,46.3920409 62.3157703,46.4566969 C62.3932158,46.6295528 62.3577746,46.769421 62.1766309,46.8578282 C62.0978727,46.8974135 61.9784228,46.9079696 61.8090927,46.8802599 C61.5531287,46.836716 61.3050405,46.7812966 61.0622028,46.7205991 C61.0766418,46.7641429 61.0805797,46.8090063 61.0753292,46.8565087 C61.0635154,46.9660281 61.0031342,47.0557548 60.8889348,47.1190913 C60.7734228,47.1837473 60.5581505,47.2246521 60.2247409,47.2180546 L60.2234283,47.2180546 C59.8256996,47.211457 59.4279708,47.1863863 59.0354926,47.141523 C58.6377639,47.0966596 58.2426604,47.0320036 57.8554327,46.9462354 C54.4478294,46.1901558 53.5237335,44.5434065 53.4147847,43.7173929 C53.4134721,43.7028783 53.4121595,43.6896831 53.4108468,43.676488 L53.4082216,43.6844051 L53.4082216,43.6844051 Z M26.6645732,5.93452535 C25.8704284,6.03084962 24.9804611,6.6483806 24.3044535,7.03499722 C23.8870352,7.27382864 23.4564906,7.08381911 23.0863272,6.85686328 C22.7594808,6.65629766 22.4536366,6.4372589 22.1123512,6.25516643 C21.1593773,5.74583532 20.2523458,5.67458175 19.2298022,6.05196179 C17.9316051,6.53094415 17.4695572,7.9269864 17.6165724,9.21482878 C17.6231356,9.24253851 17.6296988,9.27024823 17.6375746,9.29795795 C17.7320844,8.96939981 17.9657337,8.67514893 18.307019,8.44159555 L18.325396,8.42971996 L18.3450855,8.41784436 C19.0014036,8.04178383 20.0291976,8.49041745 20.1840887,9.23989949 L20.1880266,9.25969215 L20.1972151,9.32566768 C20.2536584,9.73867451 20.3219155,10.174113 20.2326562,10.5884394 C20.0370735,11.4804285 19.2639308,11.9369792 18.7533153,12.6033321 C18.6916214,12.6838222 18.6312402,12.7629929 18.5695463,12.8395245 C18.9646497,12.9279317 18.8491378,12.8329269 19.3229994,13.0849535 C19.6577216,13.2538508 19.9189362,13.5441432 19.8808698,13.9465939 C19.8572423,14.1801473 19.7679831,14.3120984 19.6485332,14.4440494 C19.7049765,14.4625226 19.7601072,14.4836348 19.8139253,14.5060664 C20.2457826,14.6842004 20.485995,14.8517782 20.485995,14.8517782 C20.5240615,15.138112 20.3626072,15.2898557 19.8664308,15.7846722 C19.9031846,15.8664819 19.9320626,15.9588476 19.9491268,16.0617695 L19.9898186,16.2874058 L19.8677434,16.4800543 C19.8493665,16.5117226 19.829677,16.5420713 19.8099874,16.5711006 C19.7640451,16.6397151 19.6813491,16.7558321 19.6695353,16.8442393 C19.6721606,16.8825051 19.6800364,16.9154929 19.699726,16.9498001 C19.8428033,17.1912706 20.4124874,17.3153046 20.6645135,17.3548899 C21.074056,17.4195459 21.5964852,17.4419776 22.0112782,17.3931557 C22.1215396,17.3799606 22.2318011,17.362807 22.3420625,17.3403753 C22.4286965,17.3232216 22.5153305,17.303429 22.6006518,17.2783583 L22.8881191,17.1939096 L23.1257063,17.3773216 C23.2044644,17.4380191 23.3081627,17.4960775 23.393484,17.5501775 C23.5601888,17.6557383 23.721643,17.7678967 23.8725962,17.8958893 C24.309704,18.2666717 24.6116103,18.7258614 24.7441866,19.2892925 C25.2075471,21.2672389 23.3383533,23.8059774 22.192422,25.2204928 C21.9298947,25.5437729 21.6660549,25.869692 21.4100908,26.2008892 C22.6820352,26.1006064 23.9841703,26.2272794 25.1760439,26.670635 C25.7247258,26.8751591 26.2537181,27.1509368 26.7275798,27.4992877 C26.7551451,27.4557438 26.7827105,27.4122 26.8115885,27.3686561 C28.3184947,25.0925003 30.9962724,24.1569672 33.2658203,22.8836395 L34.525951,22.1777013 C34.424878,22.1117257 34.3211797,22.0457502 34.2161688,21.9810942 C33.6976776,21.6604531 32.7919586,21.466485 32.1973345,21.3200194 C31.0802811,21.0442416 29.8962834,20.7499908 28.8986799,20.1575305 L28.8908041,20.1522524 C28.0034621,19.6204897 27.6175471,18.7034298 27.5702922,17.7006017 C27.5401015,16.5038055 27.7212453,16.3454643 27.8446331,15.2502704 L28.5350797,15.6843894 C28.836986,15.81766 29.125766,15.8664819 29.439486,15.7437674 C29.825401,15.5933432 30.2244424,15.200129 30.5368498,14.9283098 C30.8873236,14.6235029 31.2496112,14.3411276 31.6814685,14.1629937 C32.0883857,13.9967353 32.4427974,13.8938135 32.7867081,13.8476306 C32.7486417,13.8172819 32.7105752,13.7869331 32.6711961,13.7579039 C32.6239412,13.7222771 32.5753737,13.6879698 32.5268062,13.6523431 C32.3089086,13.5269895 32.0896983,13.4267067 31.8442354,13.3660092 C31.6906569,13.3277434 31.5357659,13.3066313 31.3782495,13.3000337 L31.0409021,13.2841996 L30.8820731,12.9846707 C30.8190666,12.8645952 30.7403084,12.7497978 30.6628629,12.6376394 C30.557852,12.4832566 30.4554664,12.3301934 30.3714576,12.1626155 L30.3084511,12.0359425 L30.3084511,11.8947549 C30.3084511,11.6216162 30.2900742,10.920956 30.3819587,10.6992782 C30.6733639,9.99070104 30.7140557,9.25573361 30.44234,8.53528081 C29.8818444,7.05083134 28.1964196,6.06911543 26.6645732,5.93452535 Z M53.9989078,43.6171101 C53.9989078,43.6250271 54.0002205,43.6316247 54.0015331,43.6395417 C54.063227,44.1172046 54.4517673,44.606743 54.7943653,44.9181475 C55.6436409,45.6900613 56.884082,46.1228608 57.9814458,46.3656507 C58.3516092,46.4474604 58.7257105,46.5094774 59.1011244,46.5517017 C59.477851,46.5939261 60.2536189,46.893455 60.5725895,46.7034454 C60.8928727,46.5134359 58.7427748,45.8668757 58.9961135,45.8576391 C59.1851331,45.8510416 61.1619631,46.464614 61.3194795,46.4105141 C61.3929871,46.3867629 61.3864239,46.3102313 61.3378564,46.2627289 C60.9847573,45.9170171 60.0265329,45.4301177 59.694436,45.0435011 C60.8416799,45.2533033 61.652889,45.903822 61.7172082,45.3601836 C61.1606505,44.9366207 60.5213967,44.7241795 59.9241473,44.4061774 C60.8941854,44.4642359 62.8447626,45.2612203 63.0547844,44.7769599 C62.8276984,44.5948674 62.5599206,44.412775 62.4378454,44.3375629 C62.0689947,44.107968 61.6909555,43.9205975 61.2761625,43.795244 C60.8128019,43.6553759 60.0567235,43.665932 59.6156778,43.4706444 C59.4017181,43.3769591 58.547192,43.1420862 58.5865711,43.0167327 C58.6823935,42.7106063 59.3177094,42.5390699 59.5054163,42.4269115 C59.6931233,42.3160726 59.8073227,42.2606531 59.9779654,42.2382214 L60.0055307,42.2303044 L60.0475351,42.2303044 C60.1866745,42.1762044 60.4295122,41.929456 60.5213967,41.8252146 C60.5594632,41.7803513 60.6159065,41.7117367 60.6723499,41.6338856 C60.5371483,41.689305 60.3993215,41.743405 60.2588695,41.7843098 L60.2575568,41.7843098 C59.9110209,41.8832731 59.4962279,41.7975049 59.1562551,41.7025001 C58.803156,41.6048563 58.460558,41.4702663 58.1192726,41.3369957 C57.858058,41.2340739 57.5929055,41.2208787 57.3159393,41.247269 C56.9050842,41.2868543 56.4706016,41.4042907 56.0741855,41.5138101 C55.4021158,41.6985416 54.6105963,41.6589563 53.9542782,41.4465151 C53.9254002,41.4372785 53.9017727,41.4399175 53.8820832,41.4531126 C53.6103675,41.3026884 53.2546431,41.1021228 53.1968872,41.0559399 C53.175885,41.0387863 53.1561954,41.0203131 53.1378185,41.0005205 C53.1273174,40.9899644 53.1168163,40.9780888 53.1063153,40.9662132 C53.0971268,40.9543376 53.0866257,40.9411425 53.0774373,40.9292669 C53.0524972,40.8975986 53.0288697,40.8659304 53.0052423,40.8355816 C52.9277967,40.7313403 52.8503512,40.627099 52.7729057,40.5215381 C52.5418817,40.2088141 52.3108578,39.8947706 52.0785212,39.580727 C51.8711247,39.2996713 51.6624155,39.017296 51.4510811,38.7375597 C51.3447576,38.5950526 51.2253077,38.4235162 51.1084831,38.2928847 C50.7645724,37.9207827 50.2893981,37.5526392 49.8877315,37.2425542 C49.2773557,36.7714889 48.648603,36.3202163 48.017225,35.8781802 C46.7990987,35.0244568 45.553407,34.1918456 44.3011522,33.3882636 L44.2880258,33.3803466 L44.2854005,33.379027 C43.6750247,33.0029665 43.0370836,32.4619672 42.5185923,31.9763872 C41.213832,30.7532009 40.1059671,29.3030587 39.2606295,27.724924 C38.4848615,26.2747818 37.5410761,24.8681834 36.3820184,23.696458 C36.1956241,23.5090875 36.0079171,23.3309536 35.8149596,23.1607367 L35.2098344,24.6253935 C34.7661634,25.6994751 34.7582876,27.5454705 34.8002919,28.8214373 C35.842525,29.6777997 36.8151884,30.6291669 37.7799759,31.569978 C38.4559835,32.2284138 39.1333037,32.8974057 39.8473778,33.5136171 C40.3501174,33.9490556 40.9565553,34.4399136 41.5603679,34.7196499 L41.6273124,34.7499986 L41.6837557,34.7961815 C42.5356566,35.484966 43.378369,36.655372 43.9388646,37.5790294 L43.9428025,37.5856269 C44.1265716,37.8825168 44.4192894,38.1767677 44.6739408,38.4116406 C45.0611685,38.7705475 45.4851499,39.1004252 45.9130693,39.4091906 C46.628456,39.9264388 47.3832218,40.4027822 48.147176,40.8421792 C48.850749,41.2459495 49.5726988,41.6259685 50.3090877,41.9650827 C50.9076498,42.2408605 51.5403404,42.5074016 52.173031,42.6921331 C52.4079928,42.7607477 52.6429547,42.8359598 52.8766039,42.9085329 C52.8989188,42.9151304 53.4502259,43.0985424 53.9490276,43.2648007 C53.9726551,43.4165444 53.991032,43.5405784 53.9989078,43.6171101 L53.9989078,43.6171101 Z" id="Shape" fill="#000000"></path>
                <path d="M2.71233283,44.5979992 C2.69506466,44.7472278 2.55691931,44.8558768 2.40416243,44.8375505 C2.25140556,44.8192241 2.14248326,44.6830857 2.15975143,44.532548 L2.75351077,39.7179593 C2.69373634,39.7428308 2.62997695,39.7703203 2.56090427,39.7978098 C1.9910547,40.033434 1.785165,39.809591 1.54208232,39.419502 C1.19140566,38.8513857 2.86110475,38.3997726 2.80531528,38.368356 C2.17170632,38.0175377 -0.0864388348,37.7936947 0.00255865053,37.030534 C0.0450649122,36.6626983 0.49270898,36.5213238 1.01208236,36.645681 C1.24188184,36.70066 1.84228279,36.7438578 2.10130532,36.8184721 C1.78782164,36.6077194 1.17812245,36.4519456 1.04396206,36.364241 C1.04396206,36.364241 0.318698972,36.1626513 0.503335546,35.586681 C0.549826769,35.4400703 0.686643799,35.1245957 0.917771597,35.0905611 C2.19030281,34.9007526 2.50511481,35.4453064 1.31228284,34.6913089 C0.881906939,34.4177229 1.01606733,33.8155721 1.42386177,33.6152915 C1.42386177,33.6152915 2.66982657,33.6139825 2.88899948,33.7815375 C3.10950071,33.8365165 3.30077889,33.8757872 3.46947562,33.9006586 L4.50822239,25.4613838 C4.52549056,25.310846 4.66496423,25.2035061 4.81639278,25.2205234 C4.96914966,25.2388498 5.07807196,25.3749882 5.06080379,25.5255259 L4.38203192,31.032588 C4.42055322,30.8925225 4.48032765,30.7747104 4.57065346,30.6870058 C5.07940028,30.1935039 4.9651647,30.5220688 5.27732006,31.2878476 C5.36498922,31.5038365 5.45265839,31.2865386 5.5496258,31.6347389 C5.7103526,32.2198724 5.89498917,33.4150109 6.13940018,33.752739 C6.90716953,34.2684943 7.04929984,33.9909813 7.40130482,34.6140765 C7.66696896,35.0813979 8.48919946,35.8393225 8.35503907,36.423147 C9.7511041,36.7320766 11.859149,37.1247837 12.8912542,37.589487 C14.3577202,38.2492349 15.7059657,39.0529754 16.966542,39.9627467 C18.5419303,36.811927 18.8766671,32.9987414 19.211404,29.1868648 C19.2326571,28.9538586 19.2525819,28.7208524 19.273835,28.4891552 C19.2751634,28.4682109 19.2791483,28.4485755 19.2844616,28.4302492 L19.2844616,28.4302492 C19.3867423,28.1056113 19.5235593,27.7875186 19.6842861,27.474662 L19.7865668,27.7312306 C20.0973939,28.5127177 20.4520555,29.2706423 20.7974188,30.0364211 C21.0856644,30.6765336 21.3685967,31.3284273 21.5638599,32.0025745 L21.6807521,32.4070628 L22.0885465,32.5353471 C22.8124813,32.7618081 23.440777,33.0223038 24,33.3299244 C23.5178196,34.5525524 23.1432332,35.6691495 22.7659901,36.7909827 C21.9716543,39.1563882 21.166692,41.5492833 19.3708024,44.9710709 C19.2857899,45.1504071 18.5220055,45.2512019 18.3320557,45.2093132 C16.2067426,44.7262835 14.1730836,43.8780362 12.1686477,42.8190361 C10.9904273,42.1972499 8.97137986,40.3921065 7.35614192,39.0778468 C6.95631739,39.3789222 6.28950041,39.6525082 5.80997665,39.6093104 C5.69175611,39.5988382 4.11238282,39.088319 4.03268358,39.0569024 C3.73513975,39.2336206 3.52792173,39.3514327 3.34727012,39.4456824 L2.71233283,44.5979992 L2.71233283,44.5979992 Z M3.95298434,34.5211358 L3.45220745,38.5948171 C3.52792173,38.5843449 3.61824753,38.5699457 3.72185655,38.5529284 L3.97822244,38.4010816 L4.24521489,38.5071125 C4.52283391,38.6065983 4.81904943,38.6943029 5.10198173,38.7846255 C5.34639273,38.8618579 5.6399516,38.9665798 5.89100421,39.0241768 C6.22574102,39.0398851 6.74112944,38.8003338 6.99483869,38.6092164 L7.37208177,38.3264673 L7.73736995,38.6236156 C8.2673699,39.0555934 8.78939993,39.4954253 9.31275828,39.9339482 C9.88924945,40.4143599 10.4683973,40.8960805 11.0634849,41.3542388 C11.4898759,41.6828037 11.9733846,42.0480213 12.45158,42.3006628 C14.348422,43.3020658 16.340903,44.1490041 18.4436346,44.6294157 C18.5419303,44.6333428 18.7730581,44.6032352 18.9098752,44.5652736 C19.6404515,43.1633093 20.3046119,41.7377827 20.8877447,40.2703673 C21.3672684,39.0608295 21.7843611,37.8368925 22.1987972,36.6051013 C22.5361906,35.6010802 22.8749124,34.6022953 23.2508271,33.6113644 C22.8164663,33.4071568 22.3648372,33.2396017 21.9065666,33.0956091 L21.1945867,32.8730751 L20.988697,32.1635844 C20.8014038,31.5156177 20.5277698,30.8899045 20.2501507,30.2746634 C20.1013788,29.9447894 19.9512786,29.6162245 19.8025067,29.2850416 C19.4837097,32.921509 19.1595995,36.9101038 17.5018552,40.2232424 L17.1870432,40.8528828 L16.6118804,40.4379223 C15.3685722,39.5386231 14.0468932,38.757136 12.6428582,38.1248777 C12.3081214,37.9743399 11.9308783,37.8617639 11.5762167,37.7622781 C11.1113045,37.6326848 10.6384223,37.5227268 10.1668685,37.4166959 C9.5199763,37.2727033 8.87042749,37.1404919 8.22486364,36.9978084 L7.63907422,36.8695241 L7.77190629,36.2948627 C7.78784614,36.1718145 7.53945017,35.811833 7.46904918,35.7149653 C7.27511436,35.4492335 7.0400016,35.1848107 6.8792748,34.9007526 C6.85536502,34.8588639 6.78363571,34.7305796 6.73581616,34.7057081 C6.65744524,34.6625103 6.53789638,34.6271667 6.45288386,34.5918231 C6.22175606,34.4962644 6.00922475,34.3784522 5.80333505,34.2383867 L5.71566588,34.1794807 L5.65456313,34.0957031 C5.30787143,33.6192186 5.15644288,32.5000034 4.99040279,31.8598909 C4.97313462,31.8468007 4.95586645,31.8337104 4.93992661,31.8206202 C4.94922485,31.9423594 4.95985142,32.0470813 4.96649302,32.1020603 C5.02095417,32.5497463 5.1644128,33.2094942 5.09534013,33.641472 C5.074087,33.7789194 5.02892409,33.9085128 4.95453813,34.0276339 C4.7340369,34.3797613 4.35812215,34.5054275 3.95298434,34.5211358 L3.95298434,34.5211358 Z M4.32757077,31.476347 L4.02604198,33.9268391 C4.3421823,33.8941135 4.47368605,33.754048 4.50556575,33.5511493 C4.56932514,33.144043 4.31561589,32.2015461 4.32757077,31.476347 Z M2.98862353,37.8002398 L3.39641798,34.4871012 C3.11614232,34.4046327 2.85844811,34.3287093 2.57020252,34.2842025 C2.3829093,34.2318416 1.93128027,34.1297378 1.65366125,34.2069701 C1.4251901,34.309074 1.98175646,34.4072508 2.15310983,34.4936463 C2.19030281,34.5132817 2.22882411,34.531608 2.26867373,34.5499343 C2.28195693,34.5564794 2.29524014,34.5617155 2.30719503,34.5682607 C2.32313487,34.5761148 2.33907472,34.5839689 2.35368625,34.5918231 C2.3829093,34.6088404 2.40947572,34.6271667 2.43471381,34.6468021 C2.62732031,34.8012668 2.70436291,35.0591445 2.62466367,35.2934597 C2.47190679,35.7398367 2.16107975,35.7241285 1.8688492,35.6691495 C1.81438805,35.6586773 1.75859859,35.6508231 1.70280912,35.645587 C1.51020262,35.6285697 1.19539062,35.5461012 1.1170197,35.6573683 C1.07052847,35.7332916 1.29368635,35.8223052 1.3547891,35.8615759 C1.51684422,35.9388083 1.74398706,36.0016414 1.91666875,36.0697107 C2.19030281,36.1796687 2.8903278,36.5972472 2.72163108,36.9611557 C2.60341054,37.2151063 1.21133047,37.0213708 1.25649337,37.3250643 C1.28970139,37.5174907 2.79867368,37.7099172 2.98862353,37.8002398 L2.98862353,37.8002398 Z" id="Shape" fill="#000000" fill-rule="nonzero"></path>
                <path d="M14.6937678,66.7608835 C15.3104052,66.6694143 16.02761,66.5478908 16.6349845,66.9098478 L16.8480287,67.036598 L16.9499195,67.2626578 C17.2688242,67.9708913 17.5705266,68.6882717 17.8920778,69.3938918 C17.9463313,69.5141086 18.1183546,69.8995862 18.2215686,70.0237231 C18.3393384,70.045937 18.5934035,70.0446303 18.693971,70.0485504 C19.122706,70.0655376 19.5395317,70.0995119 19.9616504,70.160927 C21.5852856,69.9087331 23.2062743,69.6343253 24.8259398,69.3573041 C25.5563772,69.2331672 26.3106331,69.2174868 27.0357775,69.3795181 C28.4185801,69.6892069 29.4546896,70.9044415 30.6919341,71.5316593 C33.1227556,72.7638811 35.114256,72.8801777 37.2394053,70.9658566 L37.2724867,70.9358024 L37.3095379,70.9096683 C39.4267476,69.3965052 41.5466039,67.879422 43.6889555,66.4028467 L43.7008648,66.3950064 L43.7114509,66.3871662 C45.1048396,65.4973009 46.4267724,65.2973752 48.0305588,65.1248903 C48.6591055,65.0569417 49.2889754,64.9902998 49.9042895,64.8413356 L49.9889778,64.8204283 L50.0763128,64.8191216 C50.1689407,64.8165082 50.2615686,64.8152015 50.3541965,64.8138948 C52.1617644,64.7838406 53.2587437,64.6387965 54.624344,63.3647602 C55.2092232,62.5637507 55.2793557,61.8672776 54.5992021,61.0871754 L53.8978764,60.2835525 L54.8823789,59.857567 C55.6617768,59.5204374 56.4663165,59.2368827 57.2470376,58.8984464 C58.1614075,58.5025151 59.3232264,57.9262587 59.8684079,57.0625275 C60.1145335,56.671823 60.2111312,56.2575979 60.2058382,55.8303057 C58.3691588,56.1177806 56.6409863,56.014551 54.8307719,55.3389851 C50.6863338,54.2073795 43.8768579,49.1987836 40.6653153,46.1646173 C40.2326106,45.7569257 39.8356338,45.3178732 39.4386569,44.877514 C38.7452707,44.1104788 38.0465915,43.3369101 37.1481006,42.7985481 C36.1225771,42.1830906 35.0031025,41.9857783 33.8254046,42.0040722 C32.143546,43.0925565 30.2499666,43.1866392 28.2981638,43.1578917 C26.9127147,45.4498503 25.1342585,47.5157491 23.9750861,49.9305378 C23.1017371,51.7455495 22.4030579,53.6232829 21.6673275,55.4957895 C20.8349994,57.6165699 19.9563573,59.6694017 18.7720431,61.6281508 C17.6234568,63.5280982 16.2631496,65.218973 14.6937678,66.7608835 L14.6937678,66.7608835 Z M13,67.2639645 C19.6956759,61.3380625 20.3639202,55.617313 23.2565581,49.5947149 C24.5242374,46.9538664 26.387382,44.9010346 27.8482567,42.3647225 C29.8688688,42.4091504 31.8815413,42.4156839 33.5700161,41.2265834 C37.9804287,41.0567119 39.1872383,43.6858001 41.2131434,45.5988145 C44.3254417,48.5388982 51.0819874,53.5161332 55.0782208,54.5928572 C57.1994004,55.3938666 59.0797473,55.2945572 60.8806988,54.9064661 C61.7461083,58.5404095 57.7035609,59.49169 55.2012836,60.5762542 C56.1010978,61.6072435 56.1077141,62.7101016 55.223779,63.8835216 C53.3685739,65.642345 51.7369992,65.5691696 50.0935151,65.6031439 C48.1099542,66.0840109 46.1581514,65.7586417 44.1428324,67.045745 C42.5774204,68.1250824 40.3305316,69.7179544 37.775324,71.5447264 C35.2307025,73.8353782 32.8025276,73.4825682 30.3293619,72.2281325 C29.0815314,71.5956878 27.9991079,70.3987471 26.8611077,70.1439398 C26.2987238,70.0184963 25.6662074,70.0145761 24.9622352,70.1295661 C23.1414348,70.4457884 21.4741321,70.7201962 19.9629736,70.9540962 C17.1709032,70.5150437 18.094536,71.7263582 16.2247751,67.5814936 C15.4096494,67.0953997 13.981856,68.1054818 13,67.2639645 L13,67.2639645 Z" id="Shape" fill="#000000"></path>
                <path d="M31.9535977,34.1277031 C31.984141,33.0110903 32.2412139,31.9877476 32.8533529,31.0681841 C32.7362702,29.5456498 32.6255507,27.4621817 32.8584435,25.7189521 C32.50465,25.9028648 32.1508566,26.0867775 31.8008811,26.2798858 C30.0904552,27.2217815 28.2973079,28.4106457 28.2553108,30.633362 L28.2425844,31.3282892 L26.9024963,31.4741057 L26.7485071,30.7975697 C26.7217817,30.6806538 26.6861478,30.5663652 26.6416055,30.4560176 C26.3132648,29.6441744 25.5496818,29.1134549 24.7759178,28.8165673 C23.9334312,28.4960338 22.9993147,28.4067047 22.090651,28.4723878 C22.5258933,29.4931033 23.0069506,30.5125051 23.3391092,31.5608074 C25.6744004,32.4028648 27.143025,33.6718624 28.4602056,35.784231 C29.3701419,35.581927 29.6806657,34.8449626 29.9720999,33.87548 L30.2788057,32.8521372 L31.1340186,33.4590491 C31.4292707,33.669235 31.7028879,33.8912439 31.9535977,34.1277031 L31.9535977,34.1277031 Z M21,27.8221251 C24.3088595,27.192881 27.0119432,28.4947201 27.4917279,30.617598 C27.5604503,26.9800677 31.3898189,25.7215794 34,24.21875 C33.3891336,25.7373434 33.4094958,28.4750152 33.6372981,31.2967613 C32.2183064,33.1752981 32.8189917,35.4216603 32.969163,37.21875 C32.578463,35.9064016 31.8454234,34.9198414 30.7013216,34.1079982 C30.3106216,35.4085236 29.7582966,36.554037 28.068233,36.6249747 C26.7650514,34.3930629 25.3676946,33.0478729 22.7256975,32.1795422 C22.3413607,30.7949424 21.6286833,29.4799667 21,27.8221251 L21,27.8221251 Z" id="Shape" fill="#000000"></path>
                <path d="M26.528431,41.6850733 C26.0255868,42.1047844 25.0818431,42.3750628 24.1368847,42.119078 C23.8332349,41.7201575 24.9676707,41.0340664 25.1122081,40.5065038 C24.8170604,40.1452664 23.6595472,38.5677764 24.0980176,38.4001519 C25.6101938,37.8206127 27.0142707,38.7561916 27.9956671,39.4318875 C28.0831182,39.8009214 26.8211494,41.452478 26.528431,41.6850733 L26.528431,41.6850733 Z" id="Path" fill="#000000"></path>
                <path d="M29,38.2412469 L29,38.1962531" id="Path"></path>
                <path d="M29,38.6042048 C30.1861314,38.6286048 30.6240876,37.507642 31.093674,36.21875 C32.3819951,36.9277841 31.4708029,38.4678521 31.7530414,38.9630278 C32.1119221,39.5945561 33.5328467,39.3620389 34,39.8844851 C31.9927007,40.4729547 30.1399027,40.4098018 29.0072993,38.6644871 L29,38.6042048 Z" id="Path" fill="#000000"></path>
                <path d="M33.0823429,8.90033436 C33.034111,9.9774004 32.937647,10.6605103 33.0582269,11.4610494 C33.3641191,12.373967 34.6638435,14.1391937 35.7693708,12.6315537 C35.5459807,12.2022425 35.2705508,11.7615672 35.8709118,11.5102939 C36.2377285,11.5368102 36.9688235,11.6062576 37.6453402,11.7767194 C38.6340954,11.738839 39.4730777,11.6428753 40.452948,10.9698669 C40.6357218,10.6680864 40.8184955,10.3663058 41,10.0645253 C40.1737104,10.2438259 39.3791523,10.4812097 38.3954741,9.8637592 C38.0210418,9.36121256 38.0324652,8.8788688 37.85223,8.38642361 C37.4993751,8.14525173 36.9891317,8.12504885 36.133649,8.5884524 C34.2487948,9.18948808 33.8400924,10.1074564 33.0823429,8.90033436 L33.0823429,8.90033436 L33.0823429,8.90033436 Z" id="Path" fill="#000000"></path>
                <path d="M31.7356368,8.21875 C32.1449981,6.90420262 32.9415932,6.21663658 33.9788263,5.37267744 C34.2568048,3.3367493 31.7107432,4.95140234 31.4369136,5.95739037 C31.0109566,5.32900009 30.6721271,4.44840833 30,4.21875 C30.0553191,6.8915221 30.5144676,6.70131428 31.7356368,8.21875 L31.7356368,8.21875 Z" id="Path" fill="#000000"></path>
                <path d="M34.5679307,7.76014202 C34.8435536,7.68013769 35.1126761,7.57521397 35.3557963,7.47553644 C36.0552546,7.19224241 36.8119177,6.81976322 37.5633803,6.72402033 C37.6413868,6.71352796 37.7193933,6.71090487 37.7973998,6.71483951 C38.0795233,6.72795497 38.3369447,6.82238632 38.5891658,6.94436014 C39.0286024,7.15683066 39.2717226,7.28536221 39.6773564,7.56996779 C39.7332611,7.60931418 39.8021668,7.65915295 39.8658722,7.68538387 C40.571831,7.98179337 42.863922,7.14764983 43.2084507,8.99430722 C43.295558,9.46121775 43.0667389,9.88747034 42.875623,10.2940497 C42.7092091,10.6481673 42.5687974,10.9917924 42.5609967,11.389191 C42.5674973,11.7065853 42.6338028,12.0436527 42.8704225,12.2705502 C43.3540628,12.7348377 44.412351,12.6469641 45.0104009,12.5538443 C46.2143012,12.3689162 47.4819068,11.9138096 48.6026002,11.4390298 C49.7271939,10.96425 50.8413868,10.4081543 51.8970748,9.79172745 C52.1167931,9.6631959 52.3352113,9.53204126 52.5523294,9.39432888 L51.5473456,9.29989754 L52.8929577,8.37656885 C53.7042254,7.82047316 54.4244854,7.1778154 55.0706392,6.46302259 C54.1423619,6.85255189 53.1880823,7.15945375 52.1544962,7.2906084 L50.2030336,7.53717913 L51.7033586,6.25448671 C52.3885157,5.66822545 53.1191766,5.10426048 53.771831,4.48258747 C54.2125677,4.06289261 54.6741062,3.55794723 54.8847237,2.97168597 C54.9146262,2.88905855 54.9380282,2.80643112 54.9562297,2.7238037 C53.2036836,5.11344131 48.5986999,5.81380711 46.0296858,6.11152815 C44.2745395,6.31481785 42.5089924,6.41843001 40.7447454,6.49187661 C40.0348862,6.52073064 39.3250271,6.54433847 38.616468,6.57319249 C38.1224269,6.59286569 37.6192849,6.61122734 37.127844,6.65713147 C36.6091008,6.70697023 35.9863489,6.78697456 35.5001083,6.98501808 C35.2348862,7.09387643 35.0489707,7.22371953 34.8539545,7.43356696 C34.7551463,7.53849067 34.6628386,7.64866057 34.5679307,7.76014202 L34.5679307,7.76014202 Z M33,8.36345338 C34.5289274,8.90249897 36.2411701,7.48734036 37.6374865,7.30897005 C38.0886241,7.251262 38.5540628,7.55947542 38.9102925,7.7483381 C39.8099675,8.36214184 39.4992416,8.34902637 41.2764897,8.29525297 C43.8507042,8.96020701 41.9993499,9.6828691 41.975948,11.3905026 C42.0643554,16.119939 52.8266522,10.3412654 54.1345612,8.95102619 C53.8303359,8.92217217 53.5261105,8.89331814 53.2218852,8.86446412 C54.8496208,7.7483381 56.0535211,6.35809888 57,4.89834769 C55.3891658,5.70363721 53.8550379,6.48138424 52.0816901,6.70565868 C54.623402,4.53242624 56.5878657,3.40974248 55.0615385,0.21875 C55.655688,6.30170238 40.5939328,5.7429836 37.0719393,6.06955866 C33.9880823,6.37121434 34.7447454,7.28011602 33,8.36345338 L33,8.36345338 Z" id="Shape" fill="#000000"></path>
                <path d="M63.8635726,22.5760837 C61.9754892,22.9587146 60.4681736,22.6500158 58.6312968,22.2764643 C56.2114513,21.784881 53.7942318,21.2803271 51.3717603,20.8069025 C48.198257,20.1856137 41.6070337,19.5500574 39.7228892,22.895159 C39.6283538,23.0728553 39.5469482,23.2972456 39.6178498,23.4969919 C39.774096,23.9405842 40.5894644,24.2272331 41.028004,24.3478591 C43.0486997,24.4918321 45.6654941,24.6306168 46.7447741,26.6319707 L46.7802249,26.6968234 L46.7972938,26.7681613 C47.6783119,30.3493266 49.2841019,32.3921862 52.8777629,32.6139824 C52.854129,32.5543179 52.8318081,32.4933564 52.8121133,32.433692 C52.6926309,32.0757051 52.6532411,31.6736185 52.9355346,31.3752961 C53.2519658,31.0393592 53.7220172,31.0951325 54.121167,31.2131644 C54.473049,31.3169287 54.836748,31.4738722 55.1794391,31.6334098 C56.1339847,31.0665973 56.8823906,30.5205377 58.061458,30.3635942 C58.8807654,30.2079478 59.680378,30.1781155 60.5036244,30.3143062 C60.6047248,30.3311679 60.7045123,30.3506237 60.8016737,30.3713765 C60.7806658,30.3389502 60.7596579,30.3065239 60.7399631,30.2740975 C60.4484787,29.8227228 60.1478034,29.3596747 59.9377245,28.8654972 L59.4506042,27.7189017 L60.6546185,28.0820767 C62.0293219,28.4945398 63.4617969,28.8564178 64.9060888,28.835665 C64.1826299,28.5619866 63.4788658,28.2182674 62.7540938,27.8304483 L60.9461029,26.8615492 L62.9996235,26.7344379 C64.1104153,26.6656941 65.600662,26.5995444 66.5972234,26.0690494 C66.8676999,25.9250764 67.1132295,25.744786 67.3364383,25.5385544 C66.2794792,25.7473801 65.1686874,25.7473801 64.1931338,25.4399783 L62.7974226,25.0015742 L64.1104153,24.3608296 C65.0216322,23.9159402 65.956483,23.3452366 66.3923965,22.3970903 C66.6182313,21.906804 66.7114538,21.3477739 66.7784164,20.8172789 C66.8007373,19.8548651 66.6287352,18.840569 66.0483925,18.0454751 C64.6487423,16.5525663 62.7698497,16.2438675 61.4568571,18.0143458 C61.3045499,18.2737566 61.2704121,18.5928318 61.3465657,18.8820748 C61.3964594,19.0714446 61.5238197,19.323073 61.7207686,19.4008963 C61.9111525,19.4774224 62.1330483,19.3360436 62.2866684,19.202447 C62.4521055,18.7757164 62.6175426,18.3489857 62.7829797,17.9235521 L62.9602337,17.4656921 L63.447354,17.55908 C63.7230824,17.6109621 63.9896199,17.7069441 64.2377756,17.8366495 C64.334937,17.8872346 64.4294725,17.9430079 64.521382,18.0039694 C65.4864316,18.646011 66.2177685,19.9378765 65.8501306,21.0948484 C65.5678371,21.9885184 64.7498427,22.4334078 63.8635726,22.5760837 L63.8635726,22.5760837 Z M39.2029441,22.6175895 C41.2512127,18.9650862 47.9934301,19.5682162 51.4859907,20.2336047 C53.9071492,20.723891 56.3283077,21.2141773 58.7494662,21.7057607 C60.3158664,22.0248359 61.8599458,22.388011 63.7572202,22.0014889 C66.486932,21.5721642 65.2934217,18.5059292 63.3344366,18.1310807 C63.1532436,18.6006141 62.9720506,19.0688505 62.7895446,19.5370869 C61.3964594,20.9080727 60.1793152,18.9689774 60.9631718,17.6926765 C62.5085642,15.5823701 64.8470042,15.8832866 66.5053139,17.6758148 C67.2655367,18.695299 67.392897,19.9482529 67.3692631,20.8600817 C67.1473673,22.6240747 66.7324616,23.7317586 64.3717008,24.8848393 C65.7240833,25.3089759 67.5189443,25.0884768 69,24.3789884 C67.4217828,26.8719256 66.2151425,27.1209599 63.0363873,27.3168151 C64.4662363,28.0833738 65.953857,28.7708123 67.8406275,28.9018147 C65.4733017,29.633353 63.7834801,29.6320559 60.4826165,28.6398098 C60.8541934,29.512727 61.6222941,30.4089911 61.9938711,31.2832053 C61.0406384,31.0471415 59.9941832,30.5853904 58.1573065,30.9394861 C56.9979339,31.0899443 56.3663844,31.6347069 55.2096379,32.2936101 C53.1889422,31.3337904 52.8711979,31.4803575 53.8336216,33.2158153 C49.0608932,33.3169855 47.1793747,30.7942161 46.223516,26.905649 C45.2597794,25.1196061 42.63642,25.0482681 40.9282165,24.9263451 C39.4786726,24.5424172 38.5740206,23.7992054 39.2029441,22.6175895 L39.2029441,22.6175895 Z" id="Shape" fill="#000000"></path>
                <circle id="Oval" fill="#000000" transform="translate(32.041199, 8.620553) rotate(-54.959620) translate(-32.041199, -8.620553) " cx="32.0411989" cy="8.62055256" r="1"></circle>
                <circle id="Oval" fill="#000000" transform="translate(28.307415, 38.790839) rotate(-54.959620) translate(-28.307415, -38.790839) " cx="28.3074149" cy="38.790839" r="1"></circle>
                <path d="M53.5192632,66.3410537 L53.5179216,66.3410537 L53.5219463,66.3410537 L53.5219463,66.3423834 L53.5219463,66.3423834 C53.5299958,66.3437131 53.5380452,66.3450428 53.5434115,66.3477021 C55.0526796,66.8795755 56.2480199,67.6946715 57.2595649,68.6267796 C58.2670852,69.5522392 59.0894686,70.5880626 59.8608723,71.5680393 L59.8608723,71.5680393 C60.4900694,72.2581451 61.0079161,72.8711291 61.4720999,73.4216181 C62.5788965,74.7340156 63.3731069,75.6754315 64.5241753,76.2870859 C65.3572913,76.6567379 66.1582096,76.5250992 66.8383864,76.4147355 C67.4045296,76.3216577 67.8942033,76.240547 68.3127736,76.429362 L68.3127736,76.429362 C68.3476545,76.4453182 68.3785106,76.4719119 68.3972926,76.5064837 C68.6696317,76.98384 68.5341329,77.458537 68.3610702,78.0542352 C68.2336209,78.4956901 68.0847064,79.012937 68.095439,79.6418772 C69.0251482,81.549973 69.1593053,83.2838802 68.8520854,84.9805563 C68.5475487,86.6719136 67.8070011,88.3167321 66.9873008,90.0586174 C66.9577863,90.1277609 66.8933908,90.1875967 66.8128965,90.2088716 C66.6881304,90.2447731 66.5687305,90.1796186 66.5472654,90.0652658 C66.4627463,89.5958875 66.4157913,89.3352696 66.3715195,89.0786407 C65.5692596,84.5643654 64.995067,81.3372236 61.0468216,77.5010869 C59.0975181,76.2378876 57.1804122,75.1023379 55.2123266,74.0319428 C53.2375332,72.9575585 51.2198094,71.9523179 49.0746364,70.9577146 C49.0692701,70.9550553 49.0652454,70.9537256 49.0598791,70.9510662 C48.9324298,70.880593 48.8197378,70.8180979 48.7097289,70.7542731 C47.888687,70.2902135 47.0676452,69.8248243 45.8360824,69.8740226 C43.6130982,70.5920517 43.4923568,70.1732014 43.0831774,68.7464511 C43.056346,68.6547029 43.0295146,68.5589657 43,68.4579098 L43.009391,68.4512613 L43.0201236,68.4432832 L43.0295146,68.4379645 L43.0308561,68.4366348 L43.0415887,68.4299864 L43.0523213,68.4220083 L43.0630539,68.4140302 L43.0724449,68.4073818 L43.0831774,68.4007334 L43.09391,68.3914256 L43.1046426,68.3847772 L43.1153752,68.3781288 L43.1261077,68.3714803 L43.1287909,68.3674913 L43.1368403,68.3635022 L43.1462313,68.3555241 L43.1569639,68.3488757 L43.1676965,68.3408976 L43.178429,68.3342492 L43.1891616,68.3262711 L43.1998942,68.318293 L43.2106267,68.3116446 L43.2200177,68.3049962 L43.2294087,68.2983477 L43.2307503,68.2970181 L43.2414829,68.28904 L43.2522155,68.2823915 L43.262948,68.2757431 L43.272339,68.2664353 L43.2844132,68.2597869 L43.2938042,68.2531385 L43.3045368,68.2464901 L43.3152693,68.2371823 L43.3260019,68.2305339 L43.3300266,68.2278745 L43.3367345,68.2238855 L43.3461255,68.2159074 L43.3581996,68.2079293 L43.3675906,68.2012809 L43.3796648,68.1933028 L43.3890558,68.1866543 L43.3984468,68.1800059 L43.4105209,68.1720278 L43.4199119,68.1640497 L43.4306445,68.1574013 L43.4306445,68.1574013 L43.4413771,68.1507529 L43.4534512,68.1414451 L43.4628422,68.1347967 L43.4722332,68.1281483 L43.4843074,68.1214998 L43.4936984,68.1135217 L43.5057725,68.1055436 L43.5151635,68.0988952 L43.5272377,68.0909171 L43.5312624,68.0869281 L43.5366287,68.0842687 L43.5460197,68.0762906 L43.5580938,68.0683125 L43.5674848,68.0616641 L43.5795589,68.0550157 L43.5889499,68.0470376 L43.5983409,68.0390595 L43.6104151,68.0324111 L43.6211477,68.0257626 L43.6318802,68.0177845 L43.6318802,68.0164549 L43.6412712,68.0098064 L43.6533454,68.003158 L43.6627364,67.9951799 L43.6721274,67.9885315 C43.8264081,67.8808271 43.9820304,67.7757821 44.1349696,67.6680778 C45.7086331,66.6641668 51.5391035,65.9142253 53.5192632,66.3410537 L53.5192632,66.3410537 Z M67.9250594,76.9319824 C67.6258889,76.874806 67.1912197,76.9612354 66.9363211,77.0037853 C65.997221,77.1580286 65.1788623,77.2338205 64.2773261,76.8335858 L64.2585441,76.824278 L64.2384206,76.8149702 C62.9102646,76.106249 61.9604319,74.9334681 61.0079161,73.8058966 C60.4847031,73.1849344 59.9601486,72.569291 59.4127874,71.9696037 L59.3980301,71.9523179 L59.3846144,71.9363617 C58.5930871,70.9297913 57.7961936,69.9351881 56.8503856,69.0642454 C55.8214001,68.1188405 54.6877721,67.3888443 53.3622993,66.919466 C52.1052467,66.6495403 51.30567,66.9061692 50.0204444,66.9287738 C49.348317,66.9394113 47.3024202,67.2718321 46.5632143,67.4048005 C45.809251,67.5377688 45.1196832,67.7545072 44.4703625,68.1653794 C44.3201065,68.2690947 44.1698505,68.3741397 44.0195944,68.477855 L43.6962757,68.7039012 C43.7714037,68.9724973 43.9216597,69.481766 44.0544753,69.5788329 C44.2771762,69.746373 45.4228784,69.3780507 45.649604,69.3049181 L45.7287567,69.2796541 L45.8132757,69.2756651 C47.0810609,69.2251371 47.9436915,69.6306906 49.0088994,70.2343668 C49.1189082,70.2981916 49.2289171,70.3593571 49.3402676,70.4205225 C51.4250699,71.3885321 53.4843823,72.409729 55.5021061,73.5067178 C57.5064141,74.5970582 59.4637671,75.7605313 61.3768483,77.0011259 L61.4264864,77.0330383 L61.4694167,77.0742585 C63.4200619,78.9703871 64.8313952,80.966242 65.7181741,83.5391794 C66.3004162,85.225218 66.6156855,87.0043345 66.9269301,88.758187 C67.4930734,87.5082845 68.0189694,86.2038651 68.2577692,84.8755113 C68.5757217,83.1110214 68.3409466,81.52072 67.5521025,79.9024952 L67.4944149,79.7841534 L67.4917318,79.6525147 C67.4809992,79.0222448 67.6084485,78.487712 67.7815113,77.8893545 C67.8579808,77.6220881 68.001529,77.2298315 67.9250594,76.9319824 L67.9250594,76.9319824 Z" id="Shape" fill="#000000" fill-rule="nonzero"></path>
                <path d="M38.7209178,105.075878 C39.9058791,104.345465 41.0816239,103.547446 42.0401259,102.558539 C43.3383168,101.218344 44.0585099,99.6978663 44.3626499,97.8526132 L44.3823993,97.7280056 L44.4521803,97.6232822 C44.8024022,97.0837578 45.2105555,96.7046325 45.6963896,96.2976694 C45.939965,96.0921994 46.2836037,95.8429842 46.3849838,95.5168834 C46.184857,95.2756219 45.7806535,95.083408 45.5370782,94.9548236 C44.6852227,94.5080921 44.0005784,94.0759423 43.5200108,93.197061 L43.5094778,93.1785024 L43.5015781,93.1599438 C42.8524827,91.7494918 42.7774351,90.1680357 42.6707886,88.6435809 C42.6128572,87.7938631 42.5496592,86.9467965 42.4601288,86.0997299 L42.4574956,86.0785201 L42.4574956,86.0586359 C42.4074639,84.7144645 42.3468992,83.3755955 42.0954241,82.0513083 C41.822883,80.620972 41.3423154,79.2966848 40.5470748,78.0744698 C40.1402381,77.594598 39.7123354,77.1332847 39.2844327,76.6719714 C38.583989,75.9163721 37.7439831,75.0454445 37.2397163,74.0857008 C35.4346253,75.0825616 33.5584367,75.1249813 31.6111504,74.4648261 C31.5914011,74.5748519 31.584818,74.6742729 31.6045673,74.7352511 C31.7006808,75.033514 32.7895286,75.3993831 33.0410037,75.4842223 L33.1213177,75.5120602 L33.1910987,75.5611079 C34.243081,76.2981486 34.6854665,77.1730531 35.1765671,78.3157313 C35.2279154,78.4363621 35.2805804,78.5569929 35.3332453,78.6776236 C36.4378925,80.7760687 37.4885581,82.9023517 38.4602264,85.0657519 C39.4292613,87.2185471 40.315349,89.4044827 41.1224393,91.6248842 L41.140872,91.6779087 L41.1500884,91.7322588 C41.6161731,94.5783495 41.5766744,97.168597 40.7656343,99.9431047 C40.2495178,101.710147 39.479293,103.401629 38.7209178,105.075878 L38.7209178,105.075878 Z M37.513574,73.21875 C37.8427299,74.2434487 38.706435,75.1740289 39.7176019,76.2650083 C40.1362882,76.7157166 40.5799903,77.1942629 41.0157927,77.707275 L41.0157927,77.7086007 L41.018426,77.7112519 L41.018426,77.7112519 L41.018426,77.7112519 C41.0236925,77.7178799 41.0276424,77.7231824 41.0315922,77.7298105 C41.9282129,79.1018197 42.4087805,80.5268535 42.6773717,81.9399568 C42.9446463,83.3437808 43.0012611,84.7290462 43.0486596,86.0361005 L43.0486596,86.0361005 C43.1513562,87.0077747 43.2106043,87.8495388 43.2619526,88.6011613 C43.3870318,90.3973667 43.4765622,91.6858623 44.0387605,92.909403 C44.4890458,93.7326086 45.2039724,94.107757 45.8109359,94.4259041 C46.3152027,94.6910266 46.7523217,94.9203577 46.9761477,95.3366001 L46.9761477,95.3379257 C46.9945805,95.3723916 47.0037968,95.41216 46.9985303,95.4545796 C46.9405989,96.0298956 46.5574614,96.3506939 46.0755772,96.7550058 C45.7187722,97.0545943 45.3014025,97.4058817 44.9472308,97.9507086 C44.5851593,100.147249 43.6885386,101.711472 42.4640787,102.974781 C41.2435686,104.234113 39.703119,105.188555 38.0441733,106.178787 C37.9796587,106.219881 37.8953948,106.231812 37.8190307,106.202648 C37.6979013,106.156252 37.6399699,106.027668 37.6900016,105.916316 C37.8927616,105.464282 38.0073078,105.212416 38.1192208,104.965852 C40.0888897,100.619167 41.4963604,97.5132563 40.5655075,91.8303541 C39.7426177,89.5648818 38.8710129,87.4253427 37.9217273,85.3109902 C36.9684918,83.1926609 35.9402088,81.1048207 34.8065959,78.9493743 C34.802646,78.9440718 34.8000128,78.9387694 34.7986962,78.9334669 C34.7368148,78.7942776 34.6841499,78.6736468 34.6328016,78.5516904 C34.2470309,77.6555761 33.8625768,76.7581363 32.8527265,76.050259 C30.8053768,75.3582891 30.8014269,74.9354186 31.21748,73.6813889 C33.4504736,74.598713 35.5096729,74.5775032 37.513574,73.21875 L37.513574,73.21875 Z" id="Shape" fill="#000000"></path>
                <polygon id="Path" fill="#000000" points="6.19201105 14.21875 6.790952 18.8100185 11 19.593793 7.16323242 21.6302316 7.77736848 26.21875 4.80798895 22.8870209 0.978818925 24.938585 2.98077587 20.842332 0 17.5216032 4.20524922 18.3232533"></polygon>
                <path d="M4.06431174,24.3885955 C4.19811453,24.1814397 4.50345938,24.161094 4.74361825,24.3423553 C4.98549254,24.5254662 5.07126356,24.8398991 4.93574534,25.0489045 C4.80022712,25.2560603 4.4965977,25.276406 4.25472341,25.0951447 C4.01456454,24.9120338 3.92879352,24.5957512 4.06431174,24.3885955 Z" id="Path" fill="#000000"></path>
                <path d="M20,11.21875 L20.4166002,10.8902456 C21.5227454,10.0100681 21.9261772,10.106477 23,10.5456731 L22.9533121,11.1973258 C22.1763767,10.8759628 21.9596967,10.6135164 21.0714286,11.1562628 L20,11.21875 L20,11.21875 Z" id="Path" fill="#000000" fill-rule="nonzero"></path>
                <path d="M21.0848196,11.4518505 C21.1182779,11.4561668 21.1942024,11.4806257 21.2212264,11.4662381 C21.3627806,11.4978908 21.4695896,11.2158944 21.501761,11.2187719 C21.5326456,11.2230881 21.5583827,11.437463 21.8466384,11.4791869 L21.9058338,11.4748706 L21.9611686,11.5050845 C22.0962885,11.5784612 22.2314084,11.6518378 22.3665283,11.7252144 L22.5363933,11.8187336 L22.493927,12.0244759 C22.5145167,12.0748324 22.6007361,12.0618836 22.6972503,12.0633223 L22.9996614,12.0705161 C23.0060957,12.0705161 22.9211632,12.3453187 22.7152663,12.5683261 C22.324062,12.9941982 21.6780603,13.3841014 21.1594573,13.1467064 C20.7553845,12.9625455 20.9213889,12.9769331 20.5404795,12.4762456 C21.3743623,13.2229606 22.1606313,12.4848782 22.2146793,12.1798616 C21.9084075,11.9036203 21.5300718,11.9252016 21.4592948,11.8863552 C21.304872,12.0489347 21.322888,12.2647483 21.4914662,12.3208598 C21.5300718,12.3338087 21.617578,12.2446057 21.6214386,12.0920975 C21.6214386,12.0618836 21.7037974,12.2086368 21.7205265,12.3151048 C21.7462637,12.307911 21.7642796,12.3007172 21.7861562,12.2920847 C21.8453516,12.2690646 21.7398294,12.4215728 21.6767734,12.4704906 C21.4798845,12.6258764 21.1478756,12.4474705 21.1105568,12.2345344 C21.0809591,12.1496477 21.0809591,12.0705161 21.0861065,11.9827519 C20.8917912,11.9640481 20.7000497,11.9496605 20.5057344,11.9323954 L20,11.8863552 L21.0848196,11.4518505 L21.0848196,11.4518505 Z" id="Path" fill="#000000" fill-rule="nonzero"></path>
                <path d="M26.5775857,12.3530791 C26.5775857,12.3530791 27.1428923,13.0391856 28.1097517,12.2835839 C29.078035,11.5292458 29.606319,8.80503627 29.1990704,9.49240639 C28.7918218,10.1810401 27.4376491,9.98645366 27.1742191,10.6611883 C27.0417921,10.9998192 26.9107891,11.3371865 26.7783621,11.6758173 C27.309494,11.3624574 27.9659331,10.4855551 28.3703338,10.7370012 C28.8630191,11.2158859 26.9378441,11.5823148 26.6274238,12.2482046 L26.5775857,12.3530791 L26.5775857,12.3530791 Z M26.1133793,12.7624686 C25.328785,9.57832765 28.8445078,9.80450275 29.6561571,8.21875 C30.0577099,8.31857029 30.0064478,9.25359582 29.9865126,9.57706411 C29.9779689,9.73500761 29.948066,9.8980053 29.9138913,10.0534217 C29.8227588,10.4729196 29.683212,10.8999989 29.5137625,11.2980165 C29.3044424,11.7895367 28.9911743,12.3669781 28.5412073,12.7182444 C28.0513699,13.0998359 27.4291054,13.3424372 26.779786,13.152905 C26.5362913,13.0821463 26.2871007,12.9393653 26.1133793,12.7624686 L26.1133793,12.7624686 Z" id="Shape" fill="#000000"></path>
            </g>
        </g>
    </g>
</svg>