<?xml version="1.0" encoding="UTF-8"?>
<svg width="68px" height="64px" viewBox="0 0 68 64" version="1.1" xmlns="http://www.w3.org/2000/svg" xmlns:xlink="http://www.w3.org/1999/xlink">
    <!-- Generator: Sketch 53.2 (72643) - https://sketchapp.com -->
    <title>noun_feedback_866369</title>
    <desc>Created with Sketch.</desc>
    <g id="v3.0" stroke="none" stroke-width="1" fill="none" fill-rule="evenodd">
        <g id="Very-wide-desktop" transform="translate(-707.000000, -4084.000000)" fill="#000000" fill-rule="nonzero">
            <g id="noun_feedback_866369" transform="translate(707.000000, 4084.000000)">
                <path d="M29.9619239,55.5885515 C29.5028993,54.831163 28.508346,54.9069019 28.0493214,55.5885515 L27.0547682,57.4062838 C23.000051,55.9672457 18.0272847,53.0134307 17.9507806,52.9376918 C17.6447642,52.7862141 17.3387478,52.7104753 16.9562273,52.7104753 L5.63362094,53.9980357 L11.5244364,47.9389279 C11.983461,47.408756 12.0599651,46.6513675 11.7539487,46.0454567 C9.07630532,41.8798201 7.69923157,37.0325339 7.69923157,32.03377 C7.69923157,19.3096436 16.8797232,8.32751072 29.5028993,6.0553453 C30.3444444,5.9038676 30.879973,5.07074028 30.7269648,4.23761296 C30.5739567,3.40448564 29.7324116,2.87431371 28.8908665,3.0257914 C14.8141126,5.67665106 4.56256358,17.8706055 4.56256358,32.1095088 C4.56256358,37.2597504 5.93963733,42.2585144 8.46427254,46.7271064 L0.43134233,55.0583796 C-0.0276822537,55.5128127 -0.104186351,56.1944623 0.125325941,56.8003731 C0.43134233,57.4062838 1.04337511,57.7092392 1.73191198,57.6335004 L16.8032191,55.8915069 C18.1037888,56.6488954 21.9289937,58.7695831 25.5246862,60.1328823 L24.2241166,62.4050478 C23.8415961,63.1624362 24.3771248,64.0713024 25.2186698,63.9955636 L32.9455837,63.8440859 C33.7871287,63.8440859 34.2461533,62.9352197 33.8636328,62.2535701 L29.9619239,55.5885515 Z" id="Path"></path>
                <path d="M67.8400847,6.93437172 C67.5327084,6.32518154 66.9179559,6.02058645 66.2263594,6.09673523 L51.0880791,7.84815699 C49.7817301,7.08666926 46.1700592,5.03065241 42.6352323,3.65997451 L43.7110492,1.52780889 C44.0952695,0.76632117 43.480517,-0.0713153243 42.6352323,0.00483344792 L35.0276702,0.614023626 C34.1823855,0.690172398 33.7213211,1.60395766 34.1823855,2.28929661 L38.3319648,8.60964471 C38.7930292,9.29498366 39.8688461,9.21883489 40.1762223,8.53349594 L41.1751951,6.55362786 C45.1710864,8.0766033 49.7817301,10.8179591 49.8585741,10.8941079 C50.1659504,11.0464054 50.4733266,11.1225542 50.857547,11.1225542 L61.999936,9.82802506 C61.6157157,10.2087689 61.1546513,10.6656616 60.770431,11.0464054 C55.852411,15.9199268 55.852411,16.1483732 55.852411,16.9098609 C55.852411,17.214456 55.9292551,17.4429023 56.0829432,17.7474974 C58.6956413,21.9356798 60.1556785,26.8092013 60.1556785,31.7588715 C60.1556785,44.5518652 50.934391,55.5934372 38.2551208,57.8779003 C37.4098361,58.0301979 36.8719276,58.8678344 37.0256158,59.7054709 C37.1793039,60.4669586 37.7940564,61 38.562497,61 C38.6393411,61 38.7161851,61 38.8698733,61 C53.0091807,58.4109417 63.306285,46.1509894 63.306285,31.8350202 C63.306285,26.6569037 61.9230919,21.554936 59.3872379,17.0621584 C60.6935869,15.6153318 64.3052578,12.0363395 67.5327084,8.9142398 C67.9937728,8.22890085 68.1474609,7.5435619 67.8400847,6.93437172 Z" id="Path"></path>
                <path d="M21,30.580813 C21,33.5220523 23.1176471,35.4828785 25.7843137,35.4828785 C26.4117647,35.4828785 26.9607843,35.4074622 27.1960784,35.2566294 C27.8235294,37.3682884 27.5098039,39.5553637 27.0392157,41.139108 C26.8823529,41.8178555 27.6666667,42.2703539 28.2156863,41.8178555 C31.2745098,39.1028654 33,35.6337113 33,31.7874753 C33,27.4887409 29.9411765,25 26.6470588,25 C23.6666667,25.0754164 21,27.5641573 21,30.580813 Z" id="Path"></path>
                <path d="M41.2337662,35.2566294 C41.8571429,37.3682884 41.5454545,39.5553637 41.0779221,41.139108 C40.9220779,41.8178555 41.7012987,42.2703539 42.2467532,41.8178555 C45.2857143,39.1028654 47,35.6337113 47,31.7874753 C47,27.4887409 43.961039,25 40.6883117,25 C37.6493506,25 35,27.4887409 35,30.580813 C35,33.5220523 37.1038961,35.4828785 39.7532468,35.4828785 C40.3766234,35.4074622 40.9220779,35.3320458 41.2337662,35.2566294 Z" id="Path"></path>
            </g>
        </g>
    </g>
</svg>