<?xml version="1.0" encoding="UTF-8"?>
<svg width="60px" height="78px" viewBox="0 0 60 78" version="1.1" xmlns="http://www.w3.org/2000/svg" xmlns:xlink="http://www.w3.org/1999/xlink">
    <!-- Generator: Sketch 53.2 (72643) - https://sketchapp.com -->
    <title>noun_thumbs up_218442 (1)</title>
    <desc>Created with Sketch.</desc>
    <g id="v3.0" stroke="none" stroke-width="1" fill="none" fill-rule="evenodd">
        <g id="Very-wide-desktop" transform="translate(-1461.000000, -3846.000000)" fill="#000000" fill-rule="nonzero">
            <g id="noun_thumbs-up_218442-(1)" transform="translate(1461.000000, 3846.000000)">
                <path d="M50.3,39.4 L48.5,39.4 L41.9,39.4 L39.1,39.4 L39.1,31.6 C39.1,27.6 37.9,24.7 35.5,22.9 C31.8,20.2 27,21.6 26.5,21.8 L24.9,22.3 L24.9,33.9 C24.9,40.9 16.6,43.4 16.2,43.5 L16.3,44 C15.4,42.8 13.9,42.1 12.3,42.1 L5.9,42.1 C3.1,42.1 0.8,44.4 0.8,47.2 L0.8,71 C0.8,73.8 3.1,76.1 5.9,76.1 L12.3,76.1 C13.5,76.1 14.5,75.7 15.4,75.1 C17,76.7 19.2,77.6 21.5,77.6 L29.1,77.6 L29.9,77.6 L41.9,77.6 L44.7,77.6 L45.6,77.6 C51.4,77.6 55.2,74.4 55.8,69.1 L59.1,48.6 L59.1,48.2 C59.1,43.3 55.1,39.4 50.3,39.4 Z M12.7,71 C12.7,71.2 12.5,71.4 12.3,71.4 L5.9,71.4 C5.7,71.4 5.5,71.2 5.5,71 L5.5,47.1 C5.5,46.9 5.7,46.7 5.9,46.7 L12.3,46.7 C12.5,46.7 12.7,46.9 12.7,47.1 L12.7,71 Z M51.2,68.4 L51.2,68.4 C51.1,69.6 50.7,72.9 45.6,72.9 L44.7,72.9 L41.9,72.9 L29.9,72.9 L29.1,72.9 L21.5,72.9 C19.2,72.9 17.4,71.1 17.4,68.8 L17.4,47.9 C18.1,47.7 29.5,44.3 29.5,33.8 L29.5,25.9 C30.5,25.8 31.8,25.9 32.8,26.6 C33.9,27.4 34.5,29.1 34.5,31.5 L34.5,44 L42,44 L48.6,44 L50.4,44 C52.7,44 54.5,45.8 54.5,48.1 L51.2,68.4 Z M54.5,27.6 L59.3,27.6 L59.3,32.3 L54.5,32.3 L54.5,27.6 Z M44.9,32.3 L44.9,27.6 L49.7,27.6 L49.7,32.3 L44.9,32.3 Z M13.9,27.6 L18.7,27.6 L18.7,32.3 L13.9,32.3 L13.9,27.6 Z M9.1,32.3 L4.3,32.3 L4.3,27.6 L9.1,27.6 L9.1,32.3 Z M34.1,5.2 L29.4,5.2 L29.4,0.4 L34.1,0.4 L34.1,5.2 Z M29.5,10 L34.2,10 L34.2,14.8 L29.5,14.8 L29.5,10 Z M50.4,14 L43.6,20.8 L40.3,17.5 L47.1,10.7 L48.9,8.9 L50.5,7.3 L53.8,10.6 L52.2,12.2 L50.4,14 Z M22,16.6 L18.7,19.9 L11.9,13.1 L11.2,12.4 L8.5,9.7 L11.8,6.4 L14.5,9.1 L14.5,9.1 L22,16.6 Z" id="Shape"></path>
            </g>
        </g>
    </g>
</svg>