<?xml version="1.0" encoding="UTF-8"?>
<svg width="72px" height="72px" viewBox="0 0 72 72" version="1.1" xmlns="http://www.w3.org/2000/svg" xmlns:xlink="http://www.w3.org/1999/xlink">
    <!-- Generator: Sketch 53.2 (72643) - https://sketchapp.com -->
    <title>noun_marketing_1796692</title>
    <desc>Created with Sketch.</desc>
    <g id="v3.0" stroke="none" stroke-width="1" fill="none" fill-rule="evenodd">
        <g id="Very-wide-desktop" transform="translate(-2455.000000, -3841.000000)" fill="#000000" fill-rule="nonzero">
            <g id="noun_marketing_1796692" transform="translate(2455.000000, 3841.000000)">
                <path d="M58,12 C56.8954305,12 56,12.8954305 56,14 C56,15.1045695 56.8954305,16 58,16 C59.1045695,16 60,15.1045695 60,14 C60,12.8954305 59.1045695,12 58,12 Z" id="Path"></path>
                <path d="M63.4201435,0.344458978 C62.9607261,-0.114819659 62.2160105,-0.114819659 61.7565931,0.344458978 L52.3447102,9.75634191 C52.1240611,9.97692437 52.0000666,10.2761192 52,10.5881171 L52,18.8235146 C52,19.4732696 52.5267304,20 53.1764854,20 L61.4118829,20 C61.7238808,19.9999334 62.0230756,19.8759389 62.2436581,19.6552898 L71.655541,10.2434069 C72.1148197,9.78398949 72.1148197,9.03927391 71.655541,8.57985655 L63.4201435,0.344458978 Z M60.924818,17.6470293 L54.3529707,17.6470293 L54.3529707,11.075182 L62.5883683,2.83978444 L69.1602156,9.4116317 L60.924818,17.6470293 Z" id="Shape"></path>
                <path d="M1.2,40.2903926 L4.8,40.2903926 L4.8,40.4431661 C4.80475916,42.5907235 6.29628584,44.4520234 8.4,44.9356634 L8.4,55.8064566 C8.4,56.4656324 8.9372583,57 9.6,57 L16.8,57 C17.4627417,57 18,56.4656324 18,55.8064566 L18,51.0322831 L19.2096,51.0322831 C21.1903341,51.0270365 22.794725,49.431278 22.8,47.4612012 L22.8,44.9356634 C24.3326136,44.578118 25.57857,43.4723166 26.1096,41.9983531 L46.3128,50.9296383 C46.6840186,51.0936697 47.1134686,51.0597795 47.4540363,50.8395775 C47.7946041,50.6193754 48.0000516,50.2427577 48,49.8387397 L48,21.1936983 C48.0000516,20.7896803 47.7946041,20.4130626 47.4540363,20.1928605 C47.1134686,19.9726585 46.6840186,19.9387684 46.3128,20.1027997 L26.1096,29.0340849 C25.4533989,27.2003183 23.7105741,25.973534 21.7536,25.9678719 L9.4464,25.9678719 C6.88136084,25.9705034 4.80264574,28.038034 4.8,30.5892719 L4.8,30.7420455 L1.2,30.7420455 C0.5372583,30.7420455 0,31.276413 0,31.9355888 L0,39.0968492 C0,39.756025 0.5372583,40.2903926 1.2,40.2903926 Z M40.8,25.1514882 L45.6,23.0305616 L45.6,48.0018764 L40.8,45.8809498 L40.8,25.1514882 Z M26.4,31.5178487 L38.4,26.2125483 L38.4,44.8258574 L26.4,39.5145894 L26.4,31.5178487 Z M15.6,49.8387397 L15.6,54.6129132 L10.8,54.6129132 L10.8,45.0645661 L15.6,45.0645661 L15.6,49.8387397 Z M20.4,47.4612012 C20.3993385,48.1148309 19.8667656,48.6445384 19.2096,48.6451963 L18,48.6451963 L18,45.0645661 L20.4,45.0645661 L20.4,47.4612012 Z M7.2,39.0968492 L7.2,30.5892719 C7.20132278,29.3558402 8.20629586,28.3562743 9.4464,28.3549587 L21.7536,28.3549587 C22.9937041,28.3562743 23.9986772,29.3558402 24,30.5892719 L24,40.4431661 C23.9986772,41.6765979 22.9937041,42.6761637 21.7536,42.6774793 L9.4464,42.6774793 C8.20629586,42.6761637 7.20132278,41.6765979 7.2,40.4431661 L7.2,39.0968492 Z M2.4,33.1291322 L4.8,33.1291322 L4.8,37.9033058 L2.4,37.9033058 L2.4,33.1291322 Z" id="Shape"></path>
                <path d="M59.6434365,47.3549568 C59.1699929,46.8816811 58.4025408,46.8816811 57.9290971,47.3549568 L49.3549755,55.9286265 C48.8816748,56.4020451 48.8816748,57.1694568 49.3549755,57.6428755 L61.3577759,69.6450432 C61.8312195,70.1183189 62.5986716,70.1183189 63.0721153,69.6450432 L71.6450245,61.0725858 C72.1183252,60.5991672 72.1183252,59.8317555 71.6450245,59.3583368 L59.6434365,47.3549568 Z M67.6137809,58.7509544 L60.7721847,58.2260111 L60.2460013,51.3847755 L67.6137809,58.7509544 Z M62.2149456,67.0700327 L51.9264845,56.7845387 L57.778759,50.9325726 L58.4346696,59.44805 C58.4801403,60.0444059 58.9537438,60.5184992 59.5500814,60.5646153 L68.0672201,61.219279 L62.2149456,67.0700327 Z" id="Shape"></path>
                <path d="M32.2434436,22.9999567 C35.3573507,23.0071042 38.207125,21.2497538 39.6013033,18.4626366 C40.9954817,15.6755195 40.6939274,12.3386957 38.8227173,9.847259 L46,2.66290366 L44.3363837,1 L37.159101,8.18200329 C34.2946591,6.03157433 30.3694343,5.98336918 27.4531483,8.06280581 C24.5368622,10.1422424 23.2997623,13.8714059 24.3941556,17.2839551 C25.488549,20.6965044 28.6629123,23.0081364 32.2434436,22.9999567 L32.2434436,22.9999567 Z M32.2434436,8.88762012 C35.4877584,8.88762012 38.1177951,11.5202486 38.1177951,14.7677604 C38.1177951,18.0152721 35.4877584,20.6479006 32.2434436,20.6479006 C28.9991289,20.6479006 26.3690921,18.0152721 26.3690921,14.7677604 C26.3729764,11.5218604 29.0007391,8.8915082 32.2434436,8.88762012 Z" id="Shape"></path>
                <path d="M51.1875,41.6488813 L57.125,41.6488813 L57.125,42.8244407 C57.125,43.4736842 57.6566619,44 58.3125,44 L67.8125,44 C68.4683381,44 69,43.4736842 69,42.8244407 L69,36.9689796 C68.9937191,34.9725752 67.7186763,33.1962367 65.8163125,32.5335941 C67.5000772,31.3475931 68.2160741,29.2200045 67.5872265,27.2713133 C66.9583789,25.3226221 65.1289903,24 63.0625,24 C60.9960097,24 59.1666211,25.3226221 58.5377735,27.2713133 C57.9089259,29.2200045 58.6249228,31.3475931 60.3086875,32.5335941 C59.5401514,32.8051137 58.8548725,33.2673567 58.3184375,33.8760829 C57.9043636,33.4039299 57.399326,33.0182699 56.832875,32.7416681 C58.0870195,31.8469227 58.6151289,30.2535796 58.1402514,28.7972214 C57.665374,27.3408633 56.2958958,26.3538892 54.75,26.3538892 C53.2041042,26.3538892 51.834626,27.3408633 51.3597486,28.7972214 C50.8848711,30.2535796 51.4129805,31.8469227 52.667125,32.7416681 C51.0403189,33.5246052 50.0055778,35.1559728 50,36.9466439 L50,40.473322 C50,40.7850997 50.1251112,41.0841078 50.3478107,41.3045679 C50.5705101,41.5250281 50.8725554,41.6488813 51.1875,41.6488813 Z M63.0625,26.3666098 C64.3741763,26.3666098 65.4375,27.4192415 65.4375,28.7177285 C65.4375,30.0162155 64.3741763,31.0688472 63.0625,31.0688472 C61.7508237,31.0688472 60.6875,30.0162155 60.6875,28.7177285 C60.6875,27.4192415 61.7508237,26.3666098 63.0625,26.3666098 Z M59.5,40.473322 L59.5,36.9689796 C59.5019619,35.6589623 60.5742388,34.5974674 61.8975625,34.5955252 L64.2274375,34.5955252 C65.5507612,34.5974674 66.6230381,35.6589623 66.625,36.9689796 L66.625,41.6488813 L59.5,41.6488813 L59.5,40.473322 Z M54.75,28.7177285 C55.4058381,28.7177285 55.9375,29.2440443 55.9375,29.8932878 C55.9375,30.5425313 55.4058381,31.0688472 54.75,31.0688472 C54.0941619,31.0688472 53.5625,30.5425313 53.5625,29.8932878 C53.5625,29.2440443 54.0941619,28.7177285 54.75,28.7177285 Z M52.375,36.9466439 C52.375,35.6481569 53.4383237,34.5955252 54.75,34.5955252 C56.0616763,34.5955252 57.125,35.6481569 57.125,36.9466439 L57.125,39.2977626 L52.375,39.2977626 L52.375,36.9466439 Z" id="Shape"></path>
                <path d="M33.0952502,49 L28.3332486,49 C28.0175341,49.0000686 27.714775,49.1276522 27.4915648,49.3546882 L20.3485624,56.6179277 C19.8838125,57.0906434 19.8838125,57.8569155 20.3485624,58.3296312 L33.4440668,71.6455703 C33.908957,72.1181432 34.6625442,72.1181432 35.1274344,71.6455703 L44.6514376,61.9612509 C45.1161875,61.4885353 45.1161875,60.7222631 44.6514376,60.2495475 L33.936934,49.3546882 C33.7137238,49.1276522 33.4109647,49.0000686 33.0952502,49 L33.0952502,49 Z M34.2857506,69.0780151 L22.8736137,57.4737794 L28.8261158,51.4210798 L32.602383,51.4210798 L42.1263863,61.1053992 L34.2857506,69.0780151 Z" id="Shape"></path>
                <polygon id="Rectangle" transform="translate(31.117838, 57.446803) rotate(-45.000000) translate(-31.117838, -57.446803) " points="27.7326652 56.2499948 34.503011 56.2499948 34.503011 58.6436118 27.7326652 58.6436118"></polygon>
                <polygon id="Rectangle" transform="translate(34.707834, 61.037229) rotate(-45.000000) translate(-34.707834, -61.037229) " points="31.3226607 59.8404203 38.0930065 59.8404203 38.0930065 62.2340373 31.3226607 62.2340373"></polygon>
            </g>
        </g>
    </g>
</svg>