<?xml version="1.0" encoding="UTF-8"?>
<svg width="95px" height="117px" viewBox="0 0 95 117" version="1.1" xmlns="http://www.w3.org/2000/svg" xmlns:xlink="http://www.w3.org/1999/xlink">
    <!-- Generator: Sketch 53.2 (72643) - https://sketchapp.com -->
    <title>Group 2</title>
    <desc>Created with Sketch.</desc>
    <g id="v3.0" stroke="none" stroke-width="1" fill="none" fill-rule="evenodd">
        <g id="Very-wide-desktop" transform="translate(-2194.000000, -3814.000000)" fill="#000000" fill-rule="nonzero">
            <g id="Group-2" transform="translate(2194.000000, 3814.000000)">
                <g id="noun_recommended_2006074" transform="translate(52.000000, 0.000000)">
                    <path d="M4,11.0077151 C4.00426035,17.0808376 8.92944686,22.0014195 15.0025707,21.9999994 C21.0756945,21.9985793 25.9985793,17.0756945 25.9999994,11.0025707 C26.0014195,4.92944686 21.0808376,0.00426034707 15.0077151,0 C8.93008508,0.00425455529 4.00425456,4.93008508 4,11.0077151 Z M24.4649391,11.0077151 C24.4606797,16.2297894 20.224652,20.4600629 15.0025767,20.4572238 C9.78050138,20.4543848 5.54907589,16.2195079 5.55049455,10.997432 C5.5519132,5.77535612 9.78563901,1.5427789 15.0077151,1.54277717 C20.2302803,1.55128126 24.4606931,5.78514465 24.4649391,11.0077151 L24.4649391,11.0077151 Z" id="Shape"></path>
                    <path d="M40.947185,25.260888 L36.7239327,24.6387359 C36.4678113,24.6040009 36.2462421,24.4402042 36.1348196,24.2032294 L34.2450673,20.3147787 C33.8539485,19.4952377 33.0293707,18.9820126 32.1334411,19.0004824 L32.1334411,19.0004824 C31.2512656,18.9971586 30.4452823,19.5080659 30.0600691,20.3147787 L28.1703167,24.2032294 C28.0588943,24.4402042 27.8373251,24.6040009 27.5812036,24.6387359 L23.3503006,25.260888 C22.8153645,25.3468483 22.3275627,25.6223153 21.9731531,26.0385781 C21.5389526,25.9546223 21.0989714,25.9052188 20.6572122,25.890817 L8.41590125,25.890817 C3.76792733,25.890817 0,29.7208381 0,34.4454085 L0,42.2223099 C0,42.6518163 0.342538849,43 0.765081932,43 L28.3080315,43 C28.7305746,43 29.0731134,42.6518163 29.0731134,42.2223099 L29.0731134,39.2437566 C29.0731134,39.2437566 29.0731134,39.2437566 29.0731134,39.2437566 L31.8121067,37.7816992 C32.0488239,37.6427782 32.3404715,37.6427782 32.5771887,37.7816992 L36.3566934,39.8036935 C37.1355803,40.2379292 38.091043,40.1763098 38.8096939,39.6454953 C39.5283448,39.1146808 39.8811255,38.2099972 39.7154031,37.322862 L38.9962261,33.0455663 C38.9474171,32.7866903 39.0309331,32.5203039 39.2180998,32.3378682 L42.2784276,29.3048767 C42.9250744,28.6857428 43.1621811,27.7429065 42.887163,26.8842879 C42.6121449,26.0256692 41.8743902,25.4054602 40.9930899,25.2919956 L40.947185,25.260888 Z M27.5429496,41.4446197 L1.53016386,41.4446197 L1.53016386,34.4454085 C1.53016386,30.5798509 4.6130135,27.4461973 8.41590125,27.4461973 L20.6572122,27.4461973 C20.9128884,27.4474751 21.1683018,27.4630525 21.4222941,27.4928587 C21.3927372,28.1604535 21.6462325,28.808883 22.1185187,29.2737691 L25.1788464,32.3067606 C25.3660131,32.4891963 25.4495291,32.7555827 25.4007201,33.0144586 L24.6815431,37.2917544 C24.5439819,38.0786434 24.8122477,38.8823475 25.3924852,39.4216829 C25.9727227,39.9610183 26.7841758,40.1609216 27.5429496,39.9514547 L27.5429496,41.4446197 Z M41.1614079,28.1616722 L38.1010802,31.1946637 C37.5520744,31.7336827 37.3025966,32.5148538 37.4354589,33.2788733 L38.1546359,37.556169 C38.220304,37.8577904 38.1041166,38.1703226 37.8586202,38.3524209 C37.6131237,38.5345192 37.2848703,38.5516534 37.0223147,38.3960744 L33.2428099,36.37408 C32.5704877,36.0118378 31.7652519,36.0118378 31.0929297,36.37408 L27.313425,38.3960744 C27.0505148,38.5567019 26.7186398,38.5421865 26.4702752,38.3591971 C26.2219106,38.1762077 26.1050774,37.8601252 26.1734529,37.556169 L26.8926299,33.2788733 C27.0254923,32.5148538 26.7760144,31.7336827 26.2270086,31.1946637 L23.1666809,28.1616722 C22.9406456,27.9557919 22.8557062,27.6335636 22.9501898,27.3403868 C23.0446734,27.04721 23.3007138,26.8385228 23.6027776,26.8084914 L27.8336807,26.1863392 C28.5886948,26.0795887 29.2423091,25.5987834 29.5780675,24.9031505 L31.4678199,21.0146998 C31.5967138,20.7394992 31.8718837,20.566204 32.1716952,20.5714165 L32.1716952,20.5714165 C32.4715068,20.566204 32.7466767,20.7394992 32.8755706,21.0146998 L34.765323,24.9031505 C35.1010814,25.5987834 35.7546957,26.0795887 36.5097098,26.1863392 L40.7406129,26.8084914 C41.0426766,26.8385228 41.2987171,27.04721 41.3932007,27.3403868 C41.4876843,27.6335636 41.4027448,27.9557919 41.1767096,28.1616722 L41.1614079,28.1616722 Z" id="Shape"></path>
                </g>
                <g id="noun_recommended_1397316" transform="translate(0.000000, 47.000000)">
                    <path d="M55.008,41.834 C55.008,39.354 53.095,37.338 50.742,37.338 L41.284,37.338 C42.135,34.613 43.343,30.387 43.79,27.061 C44.17,24.233 43.868,22.303 42.868,21.161 C41.947,20.108 40.68,19.987 39.808,19.987 C38.013,19.987 37.489,22.126 36.762,25.087 C36.417,26.489 36.027,28.081 35.446,29.796 C34.45,32.728 32.696,35.708 31.617,37.398 C31.566,37.404 31.516,37.412 31.466,37.419 C29.44,37.802 27.93,39.444 27.658,41.437 L19.58,41.437 L19.58,38.312 C19.58,37.898 19.244,37.562 18.83,37.562 L0.896,37.562 C0.482,37.562 0.146,37.898 0.146,38.312 C0.146,38.726 0.482,39.062 0.896,39.062 L18.08,39.062 L18.08,42.187 L18.08,65.988 L18.08,68.34 L0.896,68.34 C0.482,68.34 0.146,68.676 0.146,69.09 C0.146,69.504 0.482,69.84 0.896,69.84 L18.83,69.84 C19.244,69.84 19.58,69.504 19.58,69.09 L19.58,66.738 L28.351,66.738 C28.373,66.738 28.392,66.728 28.414,66.726 C29.266,67.984 30.706,68.812 32.336,68.812 L50.742,68.812 C53.095,68.812 55.008,66.794 55.008,64.314 C55.008,62.753 54.248,61.376 53.099,60.57 C54.248,59.763 55.008,58.384 55.008,56.822 C55.008,55.261 54.248,53.883 53.099,53.076 C54.248,52.269 55.008,50.89 55.008,49.326 C55.008,47.765 54.249,46.388 53.099,45.584 C54.249,44.775 55.008,43.396 55.008,41.834 Z M27.602,65.236 L19.58,65.236 L19.58,42.936 L27.601,42.936 L27.601,64.075 L27.601,65.236 L27.602,65.236 Z M50.742,44.832 C50.328,44.832 49.992,45.168 49.992,45.582 C49.992,45.996 50.328,46.332 50.742,46.332 C52.267,46.332 53.508,47.674 53.508,49.324 C53.508,50.978 52.268,52.324 50.742,52.324 C50.328,52.324 49.992,52.66 49.992,53.074 C49.992,53.488 50.328,53.824 50.742,53.824 C52.267,53.824 53.508,55.168 53.508,56.82 C53.508,58.474 52.268,59.818 50.742,59.818 C50.328,59.818 49.992,60.154 49.992,60.568 C49.992,60.982 50.328,61.318 50.742,61.318 C52.267,61.318 53.508,62.662 53.508,64.312 C53.508,65.966 52.268,67.31 50.742,67.31 L32.336,67.31 C30.553,67.31 29.102,65.859 29.102,64.074 L29.102,42.186 L29.102,42.073 C29.102,40.52 30.213,39.182 31.743,38.893 C31.845,38.875 31.952,38.872 32.081,38.866 C32.322,38.856 32.543,38.729 32.675,38.526 C33.763,36.852 35.754,33.555 36.867,30.278 C37.47,28.501 37.868,26.878 38.221,25.444 C38.698,23.499 39.192,21.487 39.81,21.487 C40.745,21.487 41.34,21.69 41.741,22.149 C42.42,22.924 42.615,24.555 42.305,26.862 C41.815,30.505 40.367,35.315 39.547,37.858 C39.474,38.087 39.514,38.337 39.654,38.53 C39.796,38.723 40.02,38.839 40.26,38.839 L50.742,38.839 C52.267,38.839 53.508,40.183 53.508,41.835 C53.508,43.487 52.268,44.832 50.742,44.832 Z" id="Shape"></path>
                    <path d="M61.537,18.338 L56.058,17.543 L53.608,12.576 C53.354,12.064 52.516,12.064 52.262,12.576 L49.812,17.543 L44.332,18.338 C44.049,18.379 43.814,18.578 43.727,18.85 C43.638,19.121 43.712,19.418 43.916,19.618 L47.882,23.483 L46.944,28.942 C46.896,29.223 47.011,29.506 47.242,29.674 C47.473,29.844 47.78,29.865 48.032,29.733 L52.935,27.157 L57.836,29.733 C57.945,29.79 58.065,29.819 58.185,29.819 C58.34,29.819 58.496,29.77 58.625,29.674 C58.856,29.508 58.972,29.223 58.924,28.942 L57.988,23.483 L61.952,19.618 C62.156,19.419 62.23,19.122 62.141,18.85 C62.055,18.578 61.82,18.379 61.537,18.338 Z M56.66,22.684 C56.483,22.858 56.402,23.106 56.444,23.348 L57.189,27.698 L53.284,25.645 C53.065,25.53 52.805,25.53 52.587,25.645 L48.68,27.698 L49.427,23.348 C49.469,23.106 49.388,22.858 49.211,22.684 L46.052,19.604 L50.418,18.971 C50.663,18.936 50.874,18.782 50.983,18.561 L52.935,14.604 L54.887,18.561 C54.996,18.782 55.207,18.936 55.452,18.971 L59.817,19.604 L56.66,22.684 Z" id="Shape"></path>
                    <path d="M39.606,8.262 L38.979,11.91 C38.931,12.191 39.046,12.476 39.277,12.644 C39.508,12.812 39.816,12.833 40.067,12.701 L43.345,10.978 L46.621,12.701 C46.73,12.76 46.85,12.787 46.97,12.787 C47.125,12.787 47.281,12.74 47.41,12.644 C47.641,12.476 47.757,12.191 47.709,11.91 L47.084,8.262 L49.733,5.678 C49.938,5.479 50.011,5.18 49.922,4.908 C49.834,4.637 49.6,4.439 49.317,4.398 L45.655,3.867 L44.017,0.547 C43.763,0.035 42.925,0.035 42.671,0.547 L41.033,3.867 L37.369,4.398 C37.086,4.439 36.851,4.636 36.764,4.908 C36.675,5.179 36.749,5.478 36.953,5.678 L39.606,8.262 Z M41.641,5.295 C41.885,5.26 42.097,5.106 42.206,4.885 L43.346,2.574 L44.486,4.885 C44.595,5.106 44.806,5.26 45.051,5.295 L47.6,5.664 L45.756,7.463 C45.579,7.637 45.498,7.885 45.54,8.127 L45.975,10.666 L43.695,9.467 C43.587,9.41 43.466,9.381 43.346,9.381 C43.226,9.381 43.107,9.41 42.997,9.467 L40.715,10.666 L41.152,8.127 C41.194,7.885 41.113,7.637 40.936,7.463 L39.091,5.664 L41.641,5.295 Z" id="Shape"></path>
                    <path d="M83.816,9.947 C83.728,9.676 83.494,9.476 83.211,9.435 L75.199,8.271 L71.616,1.011 C71.362,0.499 70.524,0.499 70.27,1.011 L66.687,8.271 L58.673,9.435 C58.39,9.476 58.155,9.675 58.068,9.947 C57.979,10.218 58.053,10.515 58.257,10.715 L64.055,16.367 L62.686,24.347 C62.638,24.628 62.753,24.913 62.985,25.081 C63.214,25.249 63.522,25.27 63.774,25.138 L70.943,21.372 L78.11,25.138 C78.219,25.197 78.339,25.224 78.459,25.224 C78.614,25.224 78.77,25.177 78.899,25.081 C79.13,24.913 79.246,24.628 79.198,24.347 L77.829,16.367 L83.627,10.715 C83.831,10.516 83.905,10.219 83.816,9.947 Z M76.5,15.568 C76.323,15.742 76.242,15.99 76.284,16.232 L77.463,23.103 L71.292,19.861 C71.073,19.746 70.813,19.746 70.595,19.861 L64.422,23.103 L65.601,16.232 C65.643,15.99 65.562,15.742 65.385,15.568 L60.393,10.701 L67.293,9.699 C67.538,9.664 67.749,9.511 67.858,9.289 L70.943,3.037 L74.028,9.289 C74.137,9.512 74.348,9.664 74.593,9.699 L81.491,10.701 L76.5,15.568 Z" id="Shape"></path>
                </g>
            </g>
        </g>
    </g>
</svg>