<?xml version="1.0" encoding="UTF-8"?>
<svg width="91px" height="80px" viewBox="0 0 91 80" version="1.1" xmlns="http://www.w3.org/2000/svg" xmlns:xlink="http://www.w3.org/1999/xlink">
    <!-- Generator: Sketch 53.2 (72643) - https://sketchapp.com -->
    <title>noun_Rugby Players_53616</title>
    <desc>Created with Sketch.</desc>
    <g id="v3.0" stroke="none" stroke-width="1" fill="none" fill-rule="evenodd">
        <g id="Very-wide-desktop" transform="translate(-696.000000, -3845.000000)" fill="#000000" fill-rule="nonzero">
            <g id="noun_Rugby-Players_53616" transform="translate(696.000000, 3845.000000)">
                <path d="M71.182,69.844 C70.573,67.416 70.545,67.396 70.43,67.312 C70.365,67.264 70.283,67.245 70.202,67.264 C70.123,67.281 70.055,67.331 70.015,67.403 C69.93,67.556 69.186,68.921 69.165,69.557 C69.151,69.972 69.203,70.208 69.34,70.349 C69.416,70.428 69.518,70.472 69.625,70.472 C69.662,70.472 69.768,70.449 69.803,70.434 C69.844,70.416 69.917,70.377 70.003,70.33 C70.042,70.309 70.104,70.274 70.165,70.242 C70.188,70.437 70.214,70.702 70.227,70.912 C70.253,71.341 70.675,71.755 70.835,71.807 L71.065,71.883 C71.093,71.892 71.124,71.897 71.153,71.897 C71.215,71.897 71.275,71.877 71.325,71.838 C71.399,71.781 71.44,71.692 71.435,71.598 C71.429,71.496 71.374,70.595 71.292,70.291 C71.277,70.229 71.236,70.064 71.182,69.844 Z" id="Path"></path>
                <path d="M90.373,3.333 C90.198,3.117 89.868,2.858 89.291,2.858 C89.245,2.858 89.2,2.859 89.156,2.861 C88.425,2.862 85.573,4.52 85.549,4.537 C85.377,4.651 85.199,4.829 84.95,5.093 C84.784,4.982 84.577,4.923 84.377,4.923 C83.529,4.923 83.235,5.742 82.925,6.61 C82.9,6.68 82.878,6.741 82.861,6.787 C82.782,6.887 82.561,7.115 82.299,7.339 C82.081,7.527 81.91,7.79 81.674,8.155 C81.416,8.552 80.938,9.291 80.592,9.454 C79.929,9.768 76.564,11.483 74.553,12.508 C73.81,12.886 73.265,13.164 73.137,13.228 C72.633,13.48 71.967,14.098 71.661,14.396 C71.134,14.43 70.66,14.695 70.25,14.953 L70.097,15.03 C69.843,15.068 69.352,15.109 69.021,15.131 C69.023,14.869 68.961,14.618 68.916,14.429 C68.909,14.405 68.903,14.382 68.898,14.359 C68.906,14.296 68.91,14.239 68.914,14.19 C68.916,14.166 68.916,14.139 68.92,14.112 C69.192,13.604 69.006,13.125 68.822,12.816 C68.967,12.697 69.108,12.555 69.208,12.355 L69.26,12.256 C69.343,12.103 69.446,11.912 69.545,11.613 C69.632,11.352 69.632,11.083 69.593,10.841 C69.676,10.711 69.745,10.563 69.793,10.395 C69.973,9.771 69.6,9.149 68.976,8.187 C68.97,8.178 68.964,8.169 68.959,8.161 C69.028,8.048 69.109,7.924 69.178,7.828 C69.452,7.438 69.414,6.908 69.085,6.562 L68.64,6.093 C68.707,5.931 68.777,5.742 68.845,5.524 C69.066,4.817 68.844,4.213 68.185,3.726 C68.169,3.414 68.064,3.146 67.965,2.899 C67.918,2.781 67.862,2.456 67.803,2.279 C67.57,1.583 67.008,1 66.259,1 C66.251,1 66.243,1 66.236,1 C65.589,1 64.483,0.191 64.24,0.151 C64.186,0.142 64,0.228 64,0.227 L64,0.273 C63,0.273 62.584,1.167 62.346,1.669 C62.344,1.671 62.364,1.685 62.361,1.688 C62.236,1.732 62.085,1.789 61.908,1.845 C61.029,2.123 60.464,2.322 60.116,2.637 C60.001,2.701 59.694,2.817 59.504,2.887 C59.014,3.068 58.591,3.225 58.294,3.48 C57.884,3.832 57.773,4.28 57.664,4.714 C57.602,4.966 57.533,5.245 57.395,5.59 C57.13,5.611 56.884,5.713 56.657,5.866 C56.652,5.796 56.647,5.724 56.642,5.652 C56.629,5.453 56.616,5.247 56.605,5.035 C56.564,4.278 56.175,3.824 55.703,3.63 C55.696,3.616 55.689,3.603 55.682,3.589 C55.448,3.15 55.033,2.888 54.571,2.888 C54.404,2.888 54.24,2.922 54.083,2.99 C53.735,3.137 53.511,3.406 53.365,3.69 C53.147,3.762 52.946,3.884 52.782,4.047 C52.651,4.178 52.428,4.402 52.252,5.435 C51.836,5.706 51.666,6.255 51.432,7.013 C51.378,7.185 51.333,7.34 51.297,7.426 C51.195,7.662 51.101,8.105 50.766,9.913 C50.673,10.413 50.559,11.027 50.515,11.211 C50.427,11.405 50.095,12.032 49.695,12.771 C49.739,12.443 49.679,12.109 49.625,11.807 C49.621,11.788 49.618,11.769 49.614,11.751 C49.636,11.719 49.66,11.685 49.683,11.649 C49.865,11.377 50.071,11.068 50.188,10.756 C50.35,10.326 50.348,9.786 49.958,9.384 C50.02,9.169 50.043,8.967 50.06,8.821 C50.092,8.518 50.159,7.908 48.488,6.459 C48.504,6.311 48.525,6.132 48.547,6.005 C48.698,5.069 47.936,4.688 47.685,4.563 C47.658,4.549 47.627,4.534 47.595,4.518 C47.122,3.899 46.318,3.504 45.743,3.285 C45.666,3.145 45.555,3.024 45.418,2.933 C44.769,2.505 43.921,2.415 43.324,2.415 C41.61,2.415 39.843,3.103 38.594,4.256 C36.722,5.984 37.435,9.158 37.843,10.483 C37.546,10.893 37.093,11.593 36.382,12.814 L35.706,13.708 C35.695,13.723 35.685,13.738 35.674,13.754 C35.665,13.767 35.653,13.782 35.642,13.798 C35.038,14.023 34.826,14.781 34.691,15.265 C34.658,15.373 34.504,15.503 34.468,15.604 C34.134,15.968 34,16.376 34,16.572 C34,16.575 34,16.578 34,16.581 C32,20.525 31.173,22.056 30.918,23.29 C30.881,23.468 30.901,23.638 30.858,23.811 C30.558,25.012 30.757,25.756 30.937,26.154 C31.027,26.8 31.089,26.947 31.109,27.006 C31.229,27.368 31.824,28.226 32.472,28.503 C33.037,28.755 33.71,28.885 34.45,28.885 C35.099,28.885 35.716,28.783 36.198,28.67 C36.498,29.354 37.035,29.865 37.799,30.196 C37.953,30.456 38.219,30.98 38.414,31.396 C38.418,31.405 38.423,31.414 38.428,31.423 C38.483,31.564 38.631,32.062 38.74,32.428 C39.172,33.879 39.34,34.376 39.541,34.659 C39.619,34.768 39.693,34.887 39.751,34.988 C39.742,35.453 39.822,36.293 40.093,38.05 L40.119,38.222 C40.141,38.38 40.181,38.533 40.226,38.67 C40.183,38.735 40.144,38.805 40.113,38.879 C40.068,38.983 40.039,39.085 40.021,39.184 C39.939,39.267 39.856,39.363 39.776,39.476 C39.541,39.805 39.464,40.179 39.402,40.478 C39.4,40.485 39.399,40.491 39.398,40.497 L39.197,40.749 C39.107,40.861 39.043,40.991 39.009,41.131 L38.939,41.411 C38.856,41.641 38.792,41.871 38.756,42.008 C38.695,42.124 38.584,42.336 38.458,42.559 L38.333,42.746 L38.271,42.817 C38.153,42.533 38.016,42.28 37.812,42.077 C37.778,42.043 37.718,41.979 37.644,41.9 C37.045,41.261 36.66,40.879 36.332,40.693 C35.674,40.317 34.732,39.694 34.551,39.484 C34.418,39.296 34.012,38.45 33.353,36.984 C33.249,36.753 33.176,36.592 33.154,36.547 C33.134,36.508 33.102,36.453 33.059,36.381 C32.913,36.136 32.522,35.484 32.227,33.939 C31.909,32.263 30.633,30.186 30.02,29.189 C29.938,29.056 29.872,28.948 29.825,28.87 L29.095,24.782 L28.906,23.219 L28.968,22.245 C28.971,22.165 29,22.061 29,21.959 L29,21.928 L29.026,20.85 C29.035,20.672 28.982,20.495 28.9,20.336 C28.9,20.336 28.709,19.983 28.422,19.495 C28.155,18.905 27.792,18.352 27.347,17.848 C27.82,17.622 28.171,17.251 28.319,16.644 C28.432,16.247 28.373,15.858 28.275,15.555 C28.318,15.431 28.345,15.319 28.368,15.225 L28.382,15.169 C28.446,14.91 28.431,14.682 28.385,14.492 C28.59,14.211 28.669,13.942 28.717,13.776 C28.725,13.75 28.732,13.724 28.74,13.699 C28.797,13.587 28.838,13.454 28.867,13.316 C29.104,13.185 29.346,13.001 29.514,12.748 C29.786,12.337 29.923,11.848 28.925,10.143 C29.183,9.708 29.223,9.505 29.239,9.424 C29.301,9.112 29.252,8.698 29.093,8.194 C29.019,7.732 28.9,7.011 28.853,6.822 C28.806,6.638 28.646,6.237 28.373,5.623 C28.344,5.554 28.305,5.489 28.26,5.429 C28.246,5.41 28.231,5.384 28.215,5.357 C28.334,4.995 28.301,4.61 28.113,4.287 C27.889,3.901 27.47,3.657 27.014,3.643 C26.982,3.606 26.951,3.568 26.929,3.543 C26.859,3.459 26.798,3.389 26.753,3.344 C26.461,3.052 26.07,2.966 25.285,2.815 C25.106,2.78 24.941,2.752 24.849,2.724 L24.81,2.711 C24.223,2.513 23.613,2.329 23.134,2.329 C23.134,2.329 23.134,2.329 23.134,2.329 C22.98,2.329 22.842,2.348 22.711,2.385 C22.617,2.412 22.48,2.459 22.308,2.519 C21.883,2.667 21.24,2.893 20.511,3.019 C18.905,3.298 17.856,4.919 16.484,7.812 C15.383,10.13 15.888,12.769 16.251,14.049 C16.234,14.059 16.219,14.068 16.206,14.075 C15.994,14.148 15.782,14.291 15.346,14.584 L15.17,14.702 L14.691,14.923 C14.621,14.955 14.556,14.995 14.495,15.042 L14.157,15.305 C13.517,15.565 12.764,16.156 11.692,17.229 C11.533,17.388 11.302,17.609 11.046,17.854 C9.581,19.257 9.232,19.636 9.08,19.989 C8.985,20.211 8.592,21.008 8.351,21.49 C8.241,21.711 8.216,21.965 8.282,22.203 L8.45,22.812 L8.53,23.44 C8.263,24.279 8.038,24.96 7.878,25.418 C7.738,25.819 7.387,26.894 7.027,27.993 L6.717,28.942 L6.106,30.661 C6.069,30.764 6.051,30.87 6.048,30.976 C5.845,31.518 5.674,32.463 5.565,34.107 C5.516,34.825 6.12,37.328 6.524,38.905 C6.474,39.143 6.402,39.47 6.353,39.642 C6.183,40.24 6.232,41.028 6.479,41.65 C6.479,41.752 6.277,42.122 6.201,42.261 C5.91,42.794 5.929,43.327 6.257,43.851 C6.165,44.304 6.032,45.002 6.032,45.28 C6.032,45.849 6.419,46.182 6.604,46.342 C6.619,46.355 6.635,46.368 6.651,46.382 L6.667,46.448 C6.737,46.759 6.823,47.144 7.219,47.54 C7.431,47.785 8.258,49.115 8.365,49.46 C8.517,50.224 9.126,50.541 9.424,50.676 C9.508,50.834 9.633,51.108 9.729,51.347 C9.742,51.378 9.756,51.41 9.772,51.441 C9.922,51.727 10.084,52.078 10.133,52.22 C10.161,52.511 10.312,52.831 10.864,53.925 C11.05,54.292 11.321,54.828 11.415,55.057 C11.378,55.183 11.25,55.408 11.167,55.498 C11.042,55.623 10.746,55.871 10.585,55.983 C9.929,56.152 8.977,56.898 8.773,57.304 C8.664,57.523 8.623,57.76 8.611,57.964 C7.52,58.62 6.949,60.22 6.483,61.526 C6.369,61.845 6.261,62.148 6.171,62.358 C5.741,62.955 5.383,64.17 4.8,66.471 C4.67,66.985 4.509,67.62 4.444,67.797 C4.154,68.338 3.631,69.744 3.198,70.958 C2.405,71.507 2.09,72.347 2.007,72.98 C1.992,72.99 1.977,73.001 1.959,73.013 C1.899,73.053 1.844,73.099 1.793,73.151 C0.981,73.993 0.613,75.191 0.757,76.526 C0.826,77.16 1.008,77.982 1.487,78.301 C1.742,78.473 2.028,78.508 2.405,78.508 C2.81,78.508 3.579,78.453 3.989,78.355 C4.156,78.366 4.557,78.472 4.854,78.551 C5.008,78.592 5.167,78.634 5.329,78.675 C5.506,78.719 5.715,78.739 5.984,78.739 C6.025,78.739 10.192,78.561 10.749,77.445 C10.867,77.209 10.968,76.813 10.771,76.28 C10.596,75.806 10.177,75.226 9.632,74.996 C9.447,74.917 9.244,74.813 9.111,74.737 C9.035,74.589 8.94,74.461 8.854,74.345 C8.852,74.342 8.849,74.339 8.847,74.336 C9.004,73.952 8.984,73.524 8.967,73.163 C8.966,73.14 8.965,73.117 8.964,73.095 C9.06,72.931 9.217,72.658 9.451,72.133 C9.778,71.316 11.994,67.861 13.205,66.196 C14.03,65.062 14.45,64.049 14.643,63.479 C14.781,63.354 14.915,63.182 15.033,62.946 C15.168,62.676 15.248,62.474 15.293,62.342 C15.425,62.109 15.515,61.926 15.576,61.78 C15.695,61.684 15.826,61.551 15.938,61.364 C16.079,61.131 16.142,60.866 16.12,60.603 C16.187,60.511 16.265,60.407 16.349,60.291 C17.583,58.607 18.944,56.726 19.455,55.699 C19.821,54.969 19.931,54.071 19.934,53.267 C22.256,54.482 25.798,56.001 26.296,56.211 C26.431,56.299 26.711,56.573 26.929,56.815 C26.88,56.884 26.83,56.956 26.785,57.019 C26.501,57.424 26.147,57.928 25.888,58.369 C25.439,59.133 25.277,60.379 25.17,61.612 C25.16,61.721 25.153,61.806 25.147,61.858 C25.095,62.273 25.233,62.624 25.324,62.855 C25.332,62.876 25.341,62.896 25.349,62.917 C25.166,63.494 25.385,64.066 25.521,64.424 C25.534,64.456 25.546,64.487 25.557,64.516 C25.538,64.729 25.481,65.215 25.441,65.555 C25.395,65.948 25.351,66.331 25.331,66.551 C25.314,66.743 25.302,66.991 25.29,67.244 C25.277,67.515 25.256,67.97 25.228,68.098 L25.206,68.16 C24.984,68.819 24.871,69.248 24.903,69.616 C24.876,69.843 24.745,70.472 24.593,71.139 C23.966,71.395 23.772,72.156 23.687,73.277 C23.237,75.408 23.635,75.937 23.786,76.138 C24.005,76.43 24.312,76.554 24.587,76.608 C24.586,76.611 24.585,76.615 24.583,76.618 C24.385,77.121 24.438,77.649 24.735,78.105 C25.085,78.646 25.807,79.147 28.692,79.147 C29.53,79.147 30.333,79.099 30.538,79.065 C30.811,79.023 33.016,78.843 33.339,78.843 C33.359,78.843 35.286,78.804 35.868,77.924 C36.151,77.5 36.16,76.864 36.077,76.33 C37.948,76.036 38.606,75.851 38.954,75.367 C39.665,74.364 38.634,73.376 38.296,73.052 L38.238,73 C38.016,72.779 37.822,72.586 35.85,72.467 C35.859,72.384 35.87,72.294 35.878,72.217 C35.9,72.028 35.925,71.824 35.94,71.613 C35.962,71.301 36.069,70.927 36.181,70.533 C36.259,70.262 36.335,69.991 36.391,69.728 C36.467,69.372 36.495,68.997 36.523,68.634 C36.548,68.297 36.578,67.914 36.644,67.716 C36.773,67.331 37.005,66.938 37.359,66.342 L37.547,66.025 C38.005,65.247 37.945,63.93 37.82,62.29 C37.798,62.005 37.77,61.65 37.775,61.552 C37.819,61.07 37.695,60.662 37.611,60.406 C37.664,60.117 37.683,59.788 37.683,59.59 C37.683,59.539 37.681,59.491 37.676,59.445 C38.293,58.861 39.614,57.658 39.989,57.358 C40.159,57.222 40.66,56.902 41.19,56.563 C41.927,56.09 42.845,55.502 43.624,54.939 C43.792,54.818 43.955,54.69 44.116,54.558 C44.271,54.481 44.407,54.369 44.505,54.228 C44.974,53.818 45.403,53.392 45.786,53.012 C46.087,52.714 46.377,52.427 46.622,52.213 L50.623,52.747 C51.255,53.538 52.287,54.354 52.958,54.846 C52.799,55.009 52.42,55.318 52.204,55.493 C51.697,55.905 51.447,56.114 51.289,56.352 C51.178,56.519 51.101,56.675 51.048,56.814 C50.165,57.688 49.15,59.788 48.537,61.626 C47.508,64.715 46.058,68.783 45.645,69.66 C45.256,70.016 44.99,70.576 44.813,71.092 C44.793,71.101 44.774,71.11 44.754,71.119 C43.709,71.64 43.08,75.126 43.121,75.666 C43.157,76.131 43.252,77.364 49.284,77.364 C49.601,77.364 49.773,77.351 49.918,77.313 C50.025,77.298 50.219,77.287 50.454,77.271 C52.409,77.135 53.616,76.982 53.885,75.993 C53.985,75.63 53.926,75.244 53.719,74.911 C53.31,74.251 52.391,73.943 52.034,73.846 C51.931,73.773 51.737,73.604 51.58,73.449 C51.489,73.345 51.279,73.109 51.026,72.866 C51.07,72.731 51.095,72.574 51.095,72.391 C51.095,72.022 51.117,71.767 51.15,71.414 L51.188,70.963 C51.205,70.735 51.394,70.302 51.56,69.92 C51.688,69.627 51.821,69.324 51.933,69.003 C52.032,68.726 52.486,68.156 52.925,67.606 C53.375,67.043 53.883,66.407 54.361,65.679 C55.295,64.719 56.156,63.338 56.656,62.465 C56.697,62.47 56.739,62.472 56.78,62.472 C57.013,62.472 57.245,62.39 57.43,62.231 C57.43,62.231 57.796,61.916 58.005,61.706 C58.273,61.441 58.428,61.127 58.736,60.502 L58.943,60.084 C59.265,59.441 59.313,58.897 59.271,58.498 C59.403,58.333 59.606,58.086 59.909,57.731 C60.813,56.838 61.398,55.522 61.731,54.565 C62.819,55.098 64.163,55.738 64.562,55.847 C64.844,55.937 66.104,56.617 66.71,56.943 C67.065,57.135 67.306,57.263 67.469,57.347 C67.518,57.45 67.574,57.606 67.624,57.764 C67.54,57.988 67.449,58.293 67.373,58.699 C67.324,58.957 67.275,59.308 67.224,59.684 C67.156,60.182 67.028,61.11 66.928,61.34 C66.804,61.611 66.501,62.46 66.017,63.825 C65.719,64.665 65.313,65.808 65.213,66.04 C65.137,66.179 64.985,66.499 64.527,67.479 C64.163,68.258 63.528,69.618 63.262,70.131 C63.174,70.171 63.052,70.225 62.902,70.284 C62.053,70.621 61.913,72.093 61.897,72.852 C61.761,73.207 61.561,73.854 61.91,74.804 C62.23,75.675 63.263,75.845 64.938,75.845 C66.5,75.845 68.507,75.665 69.757,75.535 C69.589,76.108 69.618,76.798 69.748,77.237 C69.818,77.47 70.132,78.221 71.264,78.221 C71.579,78.221 71.893,78.167 72.145,78.123 C72.232,78.108 72.309,78.095 72.372,78.088 C72.603,78.09 73.395,78.202 73.919,78.276 C74.599,78.373 74.964,78.423 75.181,78.423 C75.331,78.423 75.669,78.409 76.087,78.391 C76.706,78.365 77.555,78.328 78.145,78.328 C79.168,78.328 80.828,78.049 81.248,77.88 C82.006,77.579 82.291,77.021 82.151,76.122 C82.086,75.48 81.617,74.122 78.818,74.112 C78.613,73.913 78.362,73.806 78.229,73.749 C78.203,73.738 78.177,73.728 78.153,73.717 C77.931,73.529 77.635,73.367 77.466,73.282 C77.449,73.273 77.433,73.265 77.416,73.259 C77.326,73.219 77.218,73.165 77.134,73.118 C77.003,72.856 76.804,72.682 76.696,72.588 L76.671,72.566 C76.607,72.481 76.542,72.414 76.492,72.365 C76.398,72.102 76.151,71.695 75.512,71.554 C75.528,71.201 75.587,70.632 75.685,70.213 C75.763,69.87 75.775,69.195 75.788,67.493 C75.796,66.45 75.809,64.72 75.887,64.307 C76.092,63.794 76.113,63.046 76.117,62.128 C76.118,61.965 76.117,61.827 76.121,61.736 C76.473,61.521 76.789,61.159 76.874,60.638 C76.9,60.481 76.902,60.301 76.904,60.075 C76.906,59.882 76.91,59.429 76.963,59.289 C77.057,59.124 77.515,58.624 77.735,58.385 C77.888,58.217 78.014,58.078 78.079,57.997 C78.312,57.707 78.402,57.398 78.395,57.114 C78.833,56.162 79.84,53.822 80.151,52.578 C80.623,50.689 78.608,49.347 77.849,48.841 C77.812,48.817 77.779,48.795 77.75,48.776 C77.535,48.531 77.239,48.414 77.012,48.33 C76.867,47.976 76.533,47.752 76.347,47.639 C76.226,47.173 75.867,46.762 75.557,46.409 C75.334,46.155 74.925,45.853 74.236,45.853 C74.029,45.853 73.84,45.881 73.698,45.912 L73.45,45.885 C73.366,45.782 73.277,45.679 73.203,45.605 C72.934,45.337 72.617,45.251 72.427,45.201 L72.38,45.187 C71.593,44.782 67.287,42.873 66.193,42.411 C65.721,41.936 65.079,41.307 64.278,40.535 C64.219,40.478 64.153,40.429 64.081,40.388 L63.544,40.08 C63.946,39.775 64.184,39.545 64.315,39.294 L64.465,39.083 C64.613,38.874 64.677,38.615 64.641,38.361 L64.558,37.778 C64.565,37.495 64.505,37.235 64.453,37.001 L64.437,36.93 L64.414,36.767 C64.663,36.521 64.855,36.142 65.042,35.55 L65.438,34.467 C65.457,34.416 65.471,34.363 65.482,34.309 L65.905,32.05 C65.908,32.033 65.911,32.016 65.913,31.999 L66.158,30.168 C66.179,30.125 66.201,30.081 66.225,30.036 C66.603,29.345 66.734,28.538 66.772,27.913 L67.208,27.127 C67.244,27.063 67.272,26.995 67.293,26.924 L67.785,25.253 C67.801,25.212 67.815,25.177 67.829,25.147 C68.281,24.633 68.424,23.958 68.51,23.517 L68.899,22.723 C69.568,22.503 70.645,22.221 71.157,22.092 C71.169,22.095 71.182,22.098 71.196,22.102 C71.217,22.106 71.237,22.111 71.258,22.116 L71.449,22.198 C71.575,22.252 71.709,22.279 71.842,22.279 C72.076,22.279 72.308,22.196 72.492,22.039 L73.188,21.443 C73.529,21.383 73.919,21.264 74.355,21.088 C76.551,20.335 80.799,15.787 83.145,13.133 L83.179,13.094 C83.424,12.82 83.886,12.53 84.301,12.391 C85.02,12.152 85.363,11.609 85.567,11.285 C85.607,11.222 85.641,11.159 85.684,11.11 C85.727,11.074 85.913,10.967 86.036,10.897 C86.393,10.69 86.8,10.456 87.057,10.096 C87.179,9.925 87.794,9.046 87.958,8.47 C87.966,8.443 87.973,8.418 87.979,8.395 C88.599,8.02 89.56,6.693 89.569,6.68 C89.664,6.539 89.84,6.28 89.848,5.917 L89.912,5.844 C89.93,5.824 89.946,5.803 89.962,5.782 C89.996,5.736 90.304,5.321 90.525,4.877 C90.562,4.802 90.59,4.722 90.608,4.64 C90.725,4.108 90.645,3.669 90.373,3.333 Z M88.738,5.37 C88.721,5.389 88.707,5.41 88.696,5.433 C88.68,5.466 88.604,5.641 88.692,5.856 C88.683,5.877 88.668,5.897 88.621,5.965 C88.494,6.155 87.658,7.175 87.46,7.28 C87.052,7.483 86.936,7.791 86.844,8.115 C86.767,8.385 86.382,8.997 86.133,9.345 C86.036,9.479 85.759,9.64 85.513,9.782 C85.272,9.922 85.043,10.053 84.893,10.204 C84.778,10.318 84.689,10.46 84.602,10.597 C84.447,10.844 84.299,11.076 84.015,11.171 C83.379,11.383 82.738,11.792 82.303,12.28 C79.362,15.609 75.645,19.353 74.018,19.885 C73.706,20.013 73.468,20.085 73.277,20.131 C73.383,19.984 73.503,19.792 73.629,19.587 C73.766,19.364 73.895,19.153 73.994,19.025 C74.046,18.959 74.066,18.819 74.074,18.655 L74.084,18.64 L74.076,18.6 C74.09,18.037 73.914,17.117 73.725,16.55 L73.655,16.141 L72.615,15.374 C72.863,15.128 73.488,14.545 73.828,14.375 C73.957,14.311 74.507,14.031 75.255,13.649 C77.259,12.628 80.613,10.918 81.259,10.612 C81.934,10.293 82.474,9.459 82.868,8.851 C83.018,8.618 83.175,8.378 83.251,8.312 C83.322,8.251 83.956,7.703 84.121,7.377 C84.146,7.325 84.193,7.2 84.25,7.043 C84.31,6.875 84.449,6.486 84.554,6.279 C84.559,6.281 84.563,6.284 84.568,6.287 C84.631,6.321 84.75,6.385 84.766,6.406 C84.752,6.488 84.78,6.61 84.833,6.673 C84.886,6.736 84.978,6.778 85.061,6.778 C85.247,6.778 85.379,6.643 85.857,6.129 C86.04,5.933 86.289,5.664 86.378,5.605 C86.691,5.397 88.985,4.203 89.234,4.146 L89.41,4.142 C89.462,4.142 89.485,4.146 89.493,4.143 C89.498,4.164 89.505,4.219 89.482,4.335 C89.311,4.667 89.068,4.996 89.07,4.996 L88.738,5.37 Z M71.898,46.315 C71.996,46.38 72.107,46.41 72.214,46.439 C72.284,46.458 72.391,46.487 72.419,46.515 C72.523,46.619 72.741,46.902 72.816,47.001 C72.862,47.063 72.933,47.105 73.01,47.112 L73.857,47.206 C73.897,47.215 73.938,47.206 73.977,47.194 C73.978,47.193 74.158,47.135 74.356,47.135 C74.524,47.135 74.643,47.174 74.712,47.253 C74.891,47.457 75.224,47.837 75.227,47.95 C75.083,48.306 75.473,48.539 75.757,48.708 C75.798,48.733 75.853,48.766 75.896,48.793 C75.887,49.07 76.11,49.237 76.213,49.315 C76.328,49.402 76.492,49.461 76.651,49.52 C76.73,49.548 76.844,49.59 76.896,49.619 C76.946,49.701 77.041,49.765 77.257,49.909 C77.861,50.312 79.278,51.257 79.026,52.268 C78.677,53.664 77.33,56.655 77.226,56.849 C77.161,56.954 77.152,57.041 77.234,57.135 C77.234,57.135 77.23,57.156 77.197,57.196 C77.143,57.263 77.038,57.379 76.909,57.518 C76.673,57.775 76.377,58.1 76.159,58.384 C76.123,58.357 76.087,58.325 76.037,58.322 C75.704,58.292 75.337,58.475 75.111,58.611 C75.105,58.538 75.106,58.426 75.129,58.261 C75.201,57.732 74.99,57.457 74.821,57.237 C74.708,57.089 74.626,56.981 74.616,56.801 C74.582,56.226 74.167,53.822 73.757,53.113 C73.455,52.591 72.882,51.987 72.539,51.627 C72.439,51.522 72.361,51.439 72.321,51.391 C72.174,51.215 71.81,50.563 71.642,50.091 C71.485,49.654 70.945,49.08 70.384,48.524 L70.31,48.451 C70.057,48.198 69.112,46.916 68.917,46.466 C68.744,46.062 67.627,44.893 67.026,44.28 C67.038,44.278 67.047,44.283 67.059,44.279 C67.112,44.261 67.146,44.22 67.176,44.177 C69.008,44.986 71.716,46.214 71.898,46.315 Z M75.729,60.437 C75.701,60.607 75.528,60.674 75.498,60.685 C75.201,60.781 75.031,61.194 74.977,61.519 C74.959,61.623 74.957,61.798 74.956,62.125 C74.953,62.655 74.948,63.544 74.81,63.848 C74.663,64.173 74.642,65.439 74.626,67.486 C74.618,68.52 74.609,69.692 74.556,69.926 C74.405,70.579 74.31,71.588 74.362,72.002 C74.376,72.104 74.371,72.194 74.368,72.269 C74.362,72.414 74.356,72.578 74.477,72.704 C74.529,72.758 74.621,72.82 74.769,72.82 C74.785,72.82 74.863,72.813 74.878,72.81 C74.952,72.797 75.046,72.789 75.141,72.789 C75.317,72.788 75.405,72.817 75.403,72.782 C75.452,73.019 75.596,73.162 75.692,73.258 C75.721,73.287 75.752,73.315 75.773,73.347 C75.828,73.428 75.902,73.493 75.974,73.557 C76.018,73.596 76.092,73.661 76.102,73.661 C76.102,73.772 76.102,74.033 77.01,74.43 C77.15,74.5 77.38,74.634 77.455,74.707 C77.554,74.807 77.702,74.87 77.845,74.932 C77.891,74.952 77.953,74.777 77.996,74.798 C78.041,75.003 78.215,75.001 78.596,75.001 C78.598,75.001 78.668,75.001 78.671,75.001 L78.909,75.197 C79.517,75.197 80.929,75.382 80.99,76.196 C81.036,76.467 81,76.584 81,76.584 L81,76.608 C81,76.621 80.936,76.657 80.881,76.679 C80.703,76.75 79.24,77.041 78.262,77.041 C77.647,77.041 76.799,77.08 76.151,77.108 C75.758,77.126 75.444,77.14 75.302,77.14 C75.166,77.14 74.686,77.073 74.221,77.006 C73.434,76.895 72.622,76.78 72.353,76.814 C72.27,76.823 72.166,76.84 72.051,76.86 C71.645,76.93 71.121,76.938 71.101,76.873 C70.983,76.473 71.08,75.852 71.171,75.741 C71.236,75.677 71.266,75.586 71.25,75.495 C71.188,75.12 71.149,74.631 71.193,74.503 C71.224,74.411 71.206,74.31 71.144,74.233 C71.082,74.159 70.977,74.125 70.891,74.131 C70.856,74.135 67.375,74.562 65.06,74.562 C63.477,74.562 63.245,74.362 63.235,74.361 C63.026,73.791 63.147,73.485 63.227,73.284 C63.265,73.189 63.3,73.1 63.3,73 C63.3,72.757 63.426,71.7 63.552,71.453 C63.765,71.367 64.093,71.226 64.258,71.117 C64.367,71.043 64.412,71.012 65.811,68.02 C66.107,67.386 66.413,66.732 66.46,66.65 C66.538,66.519 66.79,65.818 67.346,64.252 C67.72,63.198 68.107,62.109 68.216,61.868 C68.392,61.481 68.506,60.655 68.615,59.856 C68.664,59.503 68.709,59.173 68.754,58.932 C68.88,58.264 69.042,58.001 69.041,58.001 C69.085,57.936 69.1,57.855 69.081,57.778 C68.964,57.287 68.706,56.438 68.306,56.266 C68.198,56.22 67.86,56.037 67.44,55.81 C66.322,55.207 65.368,54.701 65.021,54.606 C64.663,54.507 62.645,53.53 61.369,52.891 C61.125,52.702 60.17,52.122 59.473,51.729 C59.344,51.385 59.124,50.625 59.46,50.109 C59.667,49.792 60.055,49.219 60.479,48.593 C61.173,47.567 61.959,46.405 62.22,45.971 C62.606,45.325 64.356,44.231 64.683,44.141 C65.02,44.051 65.708,43.995 66.127,44.223 C66.206,44.267 66.277,44.283 66.351,44.305 C67.096,45.049 68.324,46.345 68.46,46.662 C68.681,47.176 69.672,48.517 69.958,48.804 L70.033,48.879 C70.306,49.15 71.033,49.87 71.173,50.26 C71.354,50.765 71.745,51.481 71.939,51.712 C71.983,51.764 72.068,51.855 72.178,51.971 C72.505,52.316 73.053,52.893 73.325,53.364 C73.679,53.974 74.085,56.276 74.117,56.831 C74.137,57.163 74.297,57.373 74.426,57.541 C74.572,57.733 74.678,57.871 74.634,58.194 C74.574,58.639 74.621,58.922 74.78,59.083 C74.88,59.184 74.989,59.2 75.05,59.2 C75.066,59.2 75.077,59.199 75.086,59.198 C75.129,59.193 75.17,59.176 75.205,59.15 C75.313,59.068 75.637,58.865 75.895,58.833 C75.757,59.187 75.746,59.665 75.742,60.064 C75.741,60.225 75.742,60.357 75.729,60.437 Z M50.506,69.406 C50.278,69.927 50.064,70.421 50.03,70.861 L49.993,71.299 C49.971,71.545 49.952,71.757 49.941,71.996 L49.94,71.996 C49.784,71.996 49.656,72.103 49.656,72.259 C49.649,72.282 49.636,72.311 49.622,72.344 C49.537,72.546 49.311,73.083 49.824,73.424 C50.211,73.682 50.749,74.308 50.769,74.331 C51.02,74.581 51.484,75.011 51.763,75.067 C51.993,75.112 52.605,75.354 52.748,75.586 C52.764,75.611 52.769,75.628 52.772,75.632 C52.529,75.85 51.047,75.952 50.484,75.991 C50.02,76.023 49.81,76.039 49.721,76.069 C49.672,76.078 49.56,76.081 49.403,76.081 C47.82,76.081 44.96,75.815 44.518,75.508 C44.518,74.867 45.135,72.704 45.411,72.309 L45.663,72.34 C45.804,72.353 45.94,72.264 45.973,72.122 C46.095,71.583 46.404,70.717 46.68,70.566 C46.72,70.544 46.754,70.512 46.78,70.474 C47.237,69.788 49.369,63.54 49.872,62.03 C50.741,59.426 51.875,57.767 52.168,57.633 C52.263,57.591 52.327,57.488 52.335,57.385 C52.335,57.384 52.346,57.258 52.476,57.062 C52.534,56.975 52.88,56.693 53.133,56.487 C53.416,56.257 53.652,56.061 53.836,55.892 C53.984,56.142 55.361,58.33 58.096,58.955 C58.072,59.113 58.027,59.291 57.917,59.509 L57.707,59.933 C57.462,60.43 57.339,60.679 57.217,60.8 C57.113,60.904 56.965,61.037 56.857,61.134 L56.462,60.936 C56.323,60.867 56.154,60.921 56.083,61.06 C56.071,61.084 54.818,63.53 53.462,64.894 C53.002,65.605 52.493,66.243 52.044,66.805 C51.469,67.525 51.015,68.094 50.844,68.577 C50.746,68.856 50.624,69.136 50.506,69.406 Z M58.069,58.124 C58.019,58.207 58.018,58.314 58.061,58.4 C58.062,58.402 58.068,58.422 58.072,58.429 C55.546,57.781 54.258,55.625 54.245,55.603 C54.225,55.569 54.189,55.558 54.16,55.538 C54.185,55.502 54.218,55.464 54.234,55.432 C54.437,55.026 54.536,54.534 54.541,54.512 C54.562,54.401 54.516,54.285 54.42,54.222 C53.732,53.764 51.859,52.383 51.462,51.516 C51.457,51.504 51.446,51.496 51.44,51.487 C51.439,51.482 51.444,51.478 51.443,51.473 C51.304,50.675 51.219,49.456 51.423,49.025 C51.896,48.934 52.727,49.004 53.126,49.203 C53.394,49.338 53.493,49.431 53.618,49.548 C53.74,49.662 53.879,49.902 54.162,50.077 C54.778,50.463 56.715,51 56.942,51 C56.943,51 56.945,51 56.946,51 C57.051,51 57.432,51.213 57.684,51.402 C58.119,51.728 58.396,51.876 58.582,51.95 C58.678,51.988 58.896,52.079 59.162,52.229 C59.187,52.251 59.214,52.252 59.245,52.263 C59.827,52.595 60.596,53.053 60.909,53.263 C60.757,53.851 60.189,55.797 59.084,56.866 C58.247,57.844 58.085,58.098 58.069,58.124 Z M42.991,53.899 C42.242,54.441 41.342,55.018 40.617,55.481 C40.011,55.87 39.531,56.177 39.309,56.354 C38.842,56.727 36.697,58.68 36.488,58.94 C36.318,59.152 36.32,59.355 36.52,59.587 C36.52,59.86 36.472,60.201 36.441,60.298 C36.396,60.433 36.437,60.569 36.49,60.735 C36.441,60.757 36.393,60.789 36.367,60.841 C36.226,61.121 35.958,61.208 34.362,61.685 L33.836,61.842 C33.152,62.046 32.555,62.009 32.061,61.727 C31.43,61.369 31.122,60.701 31.045,60.397 C30.952,60.027 31.241,59.501 31.36,59.33 C31.384,59.296 31.4,59.255 31.404,59.212 C31.775,55.486 33.338,52.994 33.652,52.527 C33.705,52.494 33.75,52.451 33.773,52.391 C33.856,52.175 35.502,48.895 36.031,47.881 C36.111,47.85 37.425,47.344 38.691,47.677 C39.658,47.932 42.339,50.498 43.377,52.379 C43.575,52.739 43.688,53.042 43.727,53.289 C43.486,53.499 43.248,53.713 42.991,53.899 Z M36.616,61.444 C36.6,61.616 36.625,61.939 36.66,62.386 C36.73,63.319 36.849,64.88 36.558,65.373 L36.378,65.68 C35.995,66.326 35.718,66.792 35.546,67.31 C35.43,67.659 35.396,68.104 35.363,68.535 C35.339,68.855 35.313,69.187 35.256,69.459 C35.205,69.693 35.136,69.934 35.068,70.177 C34.942,70.618 34.812,71.074 34.779,71.521 C34.765,71.713 34.744,71.896 34.724,72.067 C34.678,72.449 34.64,72.765 34.704,73.017 C34.651,73.134 34.652,73.238 34.666,73.313 C34.706,73.533 34.882,73.646 34.916,73.667 C34.956,73.69 35.003,73.704 35.05,73.706 C36.073,73.747 37.298,73.847 37.45,73.906 L37.53,73.984 C37.999,74.435 38.035,74.588 38.047,74.608 C37.83,74.788 36.321,75.02 35.753,75.107 C35.437,75.156 35.188,75.196 35.086,75.22 C35.059,75.227 35.032,75.238 35.009,75.252 C34.824,75.363 34.619,75.666 34.808,76.046 C34.945,76.317 35.017,77.074 34.923,77.216 C34.788,77.367 33.888,77.566 33.46,77.566 C33.067,77.566 30.733,77.758 30.449,77.805 C30.37,77.818 29.673,77.869 28.813,77.869 C26.905,77.869 26.068,77.623 25.931,77.412 C25.862,77.306 25.851,77.207 25.897,77.093 C26.067,76.661 26.877,76.255 27.128,76.193 C27.539,76.089 28.266,75.545 28.406,75.437 C28.498,75.368 28.523,75.252 28.496,75.144 C28.6,75.081 28.709,75.012 28.832,74.919 C29.053,74.753 29.283,74.588 29.508,74.427 C29.865,74.172 30.201,73.931 30.466,73.711 C30.813,73.422 31.291,73.415 31.295,73.415 C31.344,73.415 31.393,73.4 31.434,73.373 C31.58,73.274 31.756,72.95 31.756,71.965 C31.756,71.473 31.541,70.227 31.27,68.65 C30.938,66.731 30.563,64.555 30.486,63.197 C30.442,62.429 30.419,61.922 30.403,61.582 C30.389,61.272 30.38,61.087 30.363,60.961 C30.365,60.957 30.37,60.955 30.371,60.95 C30.399,60.853 30.475,60.707 30.568,60.546 C30.676,60.955 31.05,61.73 31.811,62.162 C32.175,62.369 32.578,62.473 33.014,62.473 C33.319,62.473 33.641,62.423 33.979,62.322 L34.504,62.165 C35.816,61.773 36.33,61.618 36.608,61.351 C36.609,61.382 36.619,61.411 36.616,61.444 Z M25.22,75.37 C25.018,75.37 24.935,75.353 24.926,75.359 C24.832,75.163 24.9,74.303 25.083,73.444 C25.115,72.991 25.194,72.516 25.262,72.336 C25.29,72.343 25.307,72.354 25.308,72.354 C25.308,72.354 25.308,72.354 25.308,72.354 C25.381,72.427 25.489,72.458 25.584,72.425 C25.683,72.398 25.758,72.319 25.782,72.219 C26.166,70.617 26.342,69.706 26.303,69.511 C26.287,69.409 26.369,69.091 26.546,68.566 L26.575,68.478 C26.644,68.272 26.666,67.881 26.693,67.308 C26.703,67.076 26.714,66.849 26.73,66.672 C26.749,66.461 26.792,66.092 26.835,65.715 C26.916,65.015 26.966,64.579 26.966,64.436 C26.966,64.303 26.91,64.158 26.84,63.973 C26.762,63.769 26.632,63.428 26.7,63.291 C26.864,62.965 26.738,62.646 26.638,62.392 C26.584,62.255 26.529,62.114 26.54,62.023 C26.548,61.961 26.556,61.859 26.567,61.727 C26.614,61.204 26.713,60.099 26.958,59.389 C27.371,59.847 28.558,61.026 29.874,61.063 C29.884,61.163 29.892,61.346 29.903,61.605 C29.919,61.947 29.942,62.457 29.987,63.227 C30.065,64.614 30.444,66.803 30.777,68.736 C31.034,70.228 31.256,71.517 31.256,71.966 C31.256,72.569 31.184,72.835 31.158,72.925 C30.941,72.947 30.504,73.029 30.146,73.327 C29.895,73.535 29.566,73.771 29.216,74.021 C28.988,74.184 28.754,74.352 28.531,74.519 C28.03,74.894 27.716,74.967 27.715,74.967 C27.659,74.979 27.618,75.015 27.583,75.055 C26.92,75.185 25.848,75.37 25.22,75.37 Z M13.938,62.506 C13.897,62.503 13.86,62.511 13.823,62.527 C13.737,62.561 13.673,62.636 13.653,62.727 C13.65,62.739 13.365,63.965 12.288,65.447 C11.22,66.915 8.796,70.623 8.399,71.617 C8.188,72.092 8.056,72.317 7.969,72.467 C7.899,72.587 7.848,72.674 7.818,72.793 C7.793,72.894 7.797,73.018 7.807,73.228 C7.815,73.392 7.832,73.775 7.777,73.863 C7.756,73.888 7.74,73.918 7.73,73.949 C7.7,74.041 7.558,74.512 7.756,74.843 C7.812,74.936 7.881,75.03 7.947,75.117 C8.001,75.19 8.083,75.3 8.093,75.308 C8.093,75.42 8.093,75.683 9.253,76.181 C9.459,76.269 9.709,76.683 9.724,76.842 C9.307,77.046 7.185,77.461 6.105,77.461 C5.899,77.461 5.801,77.444 5.76,77.434 C5.604,77.396 5.451,77.355 5.302,77.316 C4.668,77.147 4.145,77.016 3.826,77.108 C3.638,77.162 2.973,77.23 2.525,77.23 C2.436,77.23 2.375,77.227 2.341,77.226 C2.161,76.816 1.796,75.122 2.789,74.084 C3.253,73.774 3.355,73.536 3.377,73.447 C3.383,73.422 3.386,73.395 3.385,73.369 C3.384,73.326 3.364,72.321 4.26,71.892 C4.328,71.86 4.38,71.802 4.405,71.731 C5.024,69.977 5.497,68.757 5.704,68.385 C5.799,68.213 5.927,67.718 6.164,66.784 C6.48,65.537 7.009,63.45 7.358,63.074 C7.378,63.053 7.394,63.029 7.406,63.003 C7.532,62.738 7.661,62.376 7.811,61.957 C8.21,60.838 8.757,59.307 9.515,59.002 C9.566,58.981 9.61,58.947 9.641,58.902 L9.971,58.431 C10.012,58.372 10.029,58.3 10.019,58.23 C10.002,58.112 10.007,57.942 10.031,57.891 C10.129,57.752 10.764,57.306 10.926,57.241 C11.033,57.323 11.194,57.441 11.444,57.624 C12.247,58.211 14.642,59.965 14.838,60.497 C14.844,60.583 14.875,60.664 14.957,60.713 C14.921,60.774 14.871,60.805 14.807,60.844 C14.714,60.901 14.541,61.008 14.543,61.21 C14.528,61.281 14.391,61.558 14.25,61.799 C14.237,61.821 14.227,61.847 14.221,61.871 C14.221,61.873 14.175,62.044 14.006,62.379 C13.972,62.447 13.945,62.486 13.938,62.506 Z M7.543,43.279 C7.4,43.102 7.361,43.032 7.447,42.874 C7.71,42.392 8.037,41.791 7.791,41.175 C7.629,40.769 7.625,40.274 7.707,39.992 C7.803,39.656 7.947,38.934 7.947,38.934 C7.955,38.892 7.954,38.85 7.944,38.808 C7.532,37.218 6.931,34.676 6.964,34.191 C7.004,33.596 7.276,31.861 7.354,31.434 C7.407,31.428 7.46,31.416 7.501,31.377 C7.795,31.097 8.176,30.839 8.287,30.86 C8.441,30.928 8.978,31.211 9.452,31.461 C10.054,31.778 10.428,31.974 10.547,32.025 C10.692,32.102 11.07,32.728 11.103,32.856 C11.103,32.994 11.136,33.494 11.141,33.495 C11.137,33.53 11.103,33.791 11.141,34.087 C11.151,34.167 11.182,34.309 11.22,34.483 C11.303,34.858 11.457,35.555 11.392,35.836 C11.276,36.338 11.389,39.037 11.423,39.312 C11.46,39.605 11.708,40.714 11.822,41.055 C11.847,41.131 11.886,41.23 11.93,41.342 C12.039,41.62 12.242,42.139 12.202,42.339 C12.189,42.403 12.175,42.462 12.161,42.516 C12.099,42.771 12.035,43.035 12.305,43.305 C12.427,43.427 12.722,43.552 13.414,43.828 C13.796,43.981 14.374,44.212 14.446,44.263 C14.576,44.525 15.238,45.421 15.246,45.432 C15.27,45.464 15.329,45.531 15.405,45.619 C15.518,45.747 15.813,46.081 15.953,46.289 C15.687,46.327 15.227,46.316 15.133,46.253 C15.116,46.223 15.092,46.427 15.064,46.405 C14.431,45.939 14.198,46 14.053,46 C14.051,46 14.05,46 14.048,46 L13.725,45.662 C13.601,45.623 13.467,45.565 13.416,45.685 C13.404,45.713 13.294,45.93 13.222,46.653 C13.197,46.904 13.208,47.34 13.222,47.878 C13.24,48.592 13.273,49.907 13.182,50.083 C13.057,50.145 12.969,50.164 12.919,50.173 C12.875,50.139 13.077,50.131 13.001,50.117 C12.866,50.121 13,50.228 13,50.363 C13,50.367 13,50.371 13,50.375 C13,50.38 12.767,50.82 12.562,50.947 C12.365,50.737 11.892,49.726 11.647,48.647 C11.616,48.514 11.426,48.428 11.29,48.459 C11.156,48.488 11.04,48.619 11.068,48.754 C11.231,49.54 11.341,50.503 11.284,50.659 C11.201,50.756 11.112,50.825 11.048,50.873 C11.047,50.873 11.043,50.871 11.042,50.87 C10.89,50.49 10.601,49.829 10.383,49.667 C10.306,49.608 10.217,49.57 10.124,49.529 C9.909,49.434 9.774,49.367 9.736,49.178 C9.627,48.63 8.496,46.882 8.247,46.632 C8.114,46.5 8.092,46.403 8.039,46.167 L7.991,45.963 C7.919,45.677 7.713,45.499 7.562,45.369 C7.514,45.328 7.447,45.265 7.435,45.278 C7.435,45.09 7.653,43.967 7.709,43.747 C7.759,43.546 7.634,43.392 7.543,43.279 Z M26.9,4.956 C26.931,4.956 27.092,4.935 27.121,4.926 C27.123,4.931 27.12,4.955 27.098,4.994 C26.831,5.461 27.263,6.078 27.321,6.143 C27.501,6.549 27.703,7.03 27.729,7.133 C27.76,7.262 27.883,8.006 27.969,8.518 C28.057,8.782 28.119,9.088 28.102,9.173 C28.081,9.27 27.861,9.637 27.631,9.959 C27.565,10.052 27.561,10.177 27.621,10.274 C28.052,10.955 28.506,11.811 28.539,12.072 C28.426,12.189 28.148,12.301 27.979,12.344 C27.854,12.376 27.766,12.489 27.766,12.618 C27.766,12.809 27.74,13.075 27.702,13.151 C27.66,13.234 27.633,13.324 27.604,13.421 C27.568,13.546 27.536,13.654 27.451,13.76 C27.401,13.822 27.351,13.868 27.308,13.907 C27.193,14.015 26.978,14.216 27.136,14.533 L27.175,14.608 C27.246,14.747 27.271,14.801 27.241,14.917 C27.202,15.078 27.161,15.244 27.069,15.367 C27,15.458 26.993,15.583 27.051,15.682 C27.14,15.83 27.251,16.117 27.211,16.26 L27.189,16.345 C27.139,16.554 27.054,16.904 25.35,16.904 L25.09,16.9 C24.96,16.884 24.843,16.985 24.811,17.112 C24.782,17.226 24.834,17.338 24.928,17.405 C24.864,17.551 24.776,17.706 24.668,17.752 C24.652,17.759 24.639,17.772 24.632,17.787 C24.566,17.928 24.361,18.312 24.206,18.39 C24.185,18.4 24.17,18.421 24.167,18.444 C24.166,18.452 24.06,19.298 24.025,19.754 C24.006,19.997 23.937,20.405 23.876,20.731 C23.798,20.05 23.59,18.368 23.417,18.253 C23.199,18.108 19.084,17.626 17.813,14.126 L17.752,14.167 C17.504,13.439 16.681,10.642 17.762,8.362 C19.098,5.548 19.935,4.442 20.85,4.283 C21.683,4.138 22.414,3.883 22.851,3.73 C22.993,3.681 23.105,3.641 23.184,3.618 C23.184,3.618 23.254,3.612 23.254,3.612 C23.587,3.612 24.265,3.841 24.571,3.944 C24.682,3.981 24.911,4.027 25.162,4.074 C25.417,4.123 25.893,4.215 25.966,4.251 C25.991,4.275 26.023,4.316 26.062,4.363 C26.271,4.612 26.557,4.956 26.9,4.956 Z M37.204,27.331 C37.144,27.19 36.982,27.125 36.84,27.18 C36.837,27.181 36.703,27.232 36.492,27.297 C36.609,26.922 36.758,26.246 36.618,25.735 C36.853,25.218 37.408,23.922 37.328,23.377 C37.631,21.637 38.094,19.024 38.142,18.83 C38.158,18.764 38.201,18.694 38.251,18.613 C38.353,18.449 38.492,18.224 38.492,17.874 C38.492,17.646 38.532,17.546 38.567,17.457 C38.59,17.399 38.615,17.335 38.626,17.256 C38.641,17.244 38.659,17.231 38.674,17.221 C38.804,17.131 39.146,16.89 38.952,16.463 C38.917,16.388 38.913,16.378 39.04,16.261 C39.092,16.214 39.144,16.154 39.186,16.083 C39.206,16.095 39.217,16.107 39.239,16.118 C39.346,16.17 39.447,16.195 39.537,16.195 C39.555,16.195 39.568,16.187 39.585,16.185 C39.606,16.189 39.624,16.207 39.646,16.205 C41.099,16.089 43.568,16.19 44.041,17.005 C44.945,18.049 45.51,18.443 45.533,18.459 C45.576,18.488 45.625,18.503 45.675,18.503 C45.737,18.503 45.799,18.48 45.846,18.435 C45.954,18.333 46.495,17.806 46.575,17.369 C46.6,17.229 46.65,17.012 46.702,16.785 C46.818,16.276 46.889,15.956 46.889,15.81 C46.889,15.672 46.952,15.483 46.94,15.468 C46.99,15.456 47.052,15.431 47.128,15.4 C47.269,15.342 47.442,15.269 47.637,15.269 C48.009,15.269 48.422,15.13 48.609,15.037 C48.647,15.018 48.663,14.981 48.685,14.949 C48.72,14.959 48.755,14.972 48.792,14.97 L50.015,14.829 C50.106,14.818 50.186,14.765 50.23,14.684 C50.484,14.225 51.754,11.916 51.851,11.625 C51.895,11.494 51.987,11.004 52.146,10.148 C52.297,9.332 52.526,8.098 52.597,7.928 C52.644,7.818 52.706,7.617 52.776,7.394 C52.856,7.135 53,6.672 53.088,6.52 C53.252,6.477 53.367,6.438 53.367,6.438 C53.471,6.403 53.546,6.311 53.558,6.203 C53.618,5.693 53.736,5.066 53.806,4.958 C53.842,4.922 53.898,4.899 53.965,4.884 C54.022,4.997 54.143,5.059 54.273,5.035 C54.398,5.01 54.491,4.905 54.5,4.778 C54.52,4.508 54.622,4.207 54.646,4.159 C54.685,4.192 54.729,4.346 54.737,4.367 C54.679,4.454 54.668,4.587 54.716,4.679 C54.766,4.771 54.882,4.835 54.986,4.834 C55.013,4.834 55.055,4.83 55.107,4.821 C55.147,4.814 55.2,4.804 55.256,4.804 C55.332,4.804 55.428,4.804 55.444,5.102 C55.456,5.32 55.469,5.533 55.483,5.737 C55.524,6.357 55.559,6.891 55.494,7.249 C55.397,7.786 55.396,8.312 55.396,8.334 C55.396,8.378 55.406,8.421 55.425,8.46 C55.698,9.006 55.925,8.996 55.992,9.003 C56.137,9.003 56.259,8.977 56.317,8.829 C56.611,8.085 57.3,7 57.637,7 C57.639,7 57.64,7 57.641,7 C57.71,7 57.751,7.028 57.762,7.073 C57.79,7.196 57.898,7.254 58.024,7.26 C58.157,7.265 58.264,7.172 58.304,7.053 C58.366,6.869 58.45,6.646 58.569,6.388 C58.833,5.813 58.945,5.358 59.027,5.029 C59.1,4.737 59.149,4.541 59.249,4.455 C59.371,4.351 59.758,4.206 60.068,4.092 C60.521,3.925 60.912,3.78 61.099,3.592 C61.245,3.446 61.984,3.213 62.424,3.073 C62.688,2.99 62.925,2.914 63.12,2.831 C63.263,2.742 63.601,2.505 63.666,2.241 C63.718,2.086 64.082,1.636 64.195,1.599 C64.423,1.641 65.502,2.249 65.627,2.413 C65.681,2.547 65.833,2.684 66.22,2.657 C66.27,2.654 66.323,2.65 66.377,2.65 C66.571,2.65 66.648,2.701 66.704,2.869 C66.771,3.073 66.836,3.236 66.891,3.372 C67.022,3.704 67.051,3.789 66.99,3.951 C66.85,4.326 67.197,4.539 67.404,4.666 C67.718,4.859 67.8,4.945 67.738,5.143 C67.528,5.817 67.321,6.081 67.321,6.081 C67.229,6.191 67.234,6.352 67.333,6.456 L68.116,7.279 C67.617,8.025 67.665,8.22 67.686,8.307 C67.712,8.41 67.791,8.535 68.017,8.884 C68.211,9.183 68.665,9.884 68.677,10.044 C68.628,10.216 68.492,10.273 68.483,10.277 C68.405,10.303 68.342,10.361 68.311,10.437 C68.28,10.513 68.283,10.598 68.32,10.671 C68.394,10.821 68.483,11.098 68.446,11.209 C68.381,11.405 68.315,11.526 68.249,11.648 L68.187,11.77 C68.164,11.8 68.064,11.874 67.998,11.923 C67.742,12.113 67.393,12.374 67.447,12.751 C67.478,12.964 67.615,13.154 67.737,13.321 C67.795,13.401 67.894,13.528 67.908,13.506 C67.782,13.716 67.765,13.936 67.754,14.097 C67.751,14.142 67.746,14.203 67.741,14.222 C67.696,14.356 67.733,14.507 67.789,14.736 C67.814,14.837 67.858,15.015 67.86,15.099 C67.814,15.155 67.774,15.219 67.735,15.281 C67.706,15.329 67.656,15.403 67.621,15.441 C67.253,14.323 66.862,13.211 66.642,12.801 C66.709,11.81 66.424,11.715 66.33,11.683 C66.287,11.669 66.238,11.606 66.204,11.547 C66.29,11.145 66.315,10.674 66.018,10.526 C65.915,10.475 65.793,10.322 65.741,10.238 L65.417,9.729 C65.417,9.729 64.901,8.42 64.832,8.249 C64.811,8.198 64.782,8.096 64.748,7.978 C64.588,7.427 64.521,7.254 64.394,7.169 C63.699,6.706 63.504,6.803 63.47,6.829 C63.382,6.834 63.076,6.74 62.776,6.621 L62.584,6.571 C61.885,6.202 61.701,6.294 61.634,6.327 C61.495,6.396 61.349,6.609 61.232,6.82 C60.65,6.715 60.511,6.785 60.464,6.809 C60.341,6.871 60.22,6.998 59.871,8.042 L59.87,8.042 C59.866,8.042 59.859,8.044 59.849,8.048 C59.781,8.077 59.688,8.116 59.586,8.217 C59.494,8.307 59.266,8.533 59.229,8.824 C59.104,8.846 58.988,8.898 58.92,9 C58.852,9.101 58.847,9.227 58.906,9.345 C59.042,9.616 59.822,10.212 59.956,10.302 C59.961,10.313 59.967,10.349 59.972,10.376 C59.992,10.491 60.025,10.683 60.208,10.836 C60.238,10.861 60.286,10.903 60.346,10.957 C61.091,11.623 61.618,12.022 61.995,11.956 C62.392,11.884 62.49,11.919 62.496,11.922 C62.531,11.957 62.576,12.05 62.609,12.118 C62.643,12.187 62.674,12.25 62.705,12.295 C62.726,12.327 62.771,12.38 62.848,12.409 C62.846,12.436 62.842,12.468 62.838,12.507 C62.783,12.968 62.825,13.104 62.927,13.285 C62.947,13.319 62.968,13.357 62.989,13.415 C63.114,13.746 63.351,14.532 63.351,14.772 C63.351,14.857 63.333,15.142 63.247,15.35 C63.083,15.747 63,16.191 63,16.532 C63,16.566 63,16.597 63,16.626 C63,16.626 62.887,16.627 62.881,16.628 C62.701,16.647 62.438,16.608 62.234,16.57 C62.138,16.552 62.022,16.535 61.935,16.524 C61.737,16.5 61.293,16.387 61.008,16.313 L60.777,16.255 C60.615,16.214 59.932,16.117 58.99,15.984 C58.505,15.916 58.089,15.858 58.025,15.844 C57.985,15.829 57.871,15.742 57.789,15.678 C57.683,15.595 57.561,15.504 57.436,15.426 C57.424,15.42 56.277,14.741 55.769,14.843 C55.72,14.854 55.62,14.808 55.516,14.741 C55.589,14.629 55.667,14.493 55.769,14.308 C55.878,14.106 56.003,13.878 56.081,13.786 C56.159,13.692 56.307,13.53 56.472,13.347 C56.912,12.861 57.232,12.504 57.331,12.339 C57.517,12.031 57.748,10.61 57.748,10.216 C57.748,9.806 57.891,8.56 57.958,8.389 C57.974,8.348 58.013,8.249 57.969,8.142 C57.972,8.023 57.901,7.913 57.786,7.871 C57.66,7.823 57.515,7.872 57.444,7.99 C57.408,8.051 57.394,8.058 57.348,8.08 C57.279,8.115 57.161,8.172 57.071,8.337 L57.021,8.427 C56.822,8.784 56.722,8.964 56.625,9.348 C56.607,9.422 56.588,9.517 56.567,9.625 C56.491,10.014 56.364,10.666 56.05,10.947 C55.628,11.328 55.288,11.55 55.013,11.716 C54.912,11.776 54.677,11.916 54.037,14.429 C54.016,14.507 54.031,14.59 54.076,14.657 C54.122,14.723 54.193,14.768 54.272,14.779 C54.544,14.816 54.842,14.887 54.876,14.893 C54.91,14.943 54.969,14.978 55.03,15.002 C55.202,15.154 55.544,15.404 55.876,15.331 C56.036,15.285 56.779,15.606 57.169,15.85 C57.28,15.92 57.386,16.001 57.481,16.074 C57.64,16.198 57.766,16.295 57.896,16.328 C57.959,16.344 58.226,16.382 58.916,16.479 C59.565,16.571 60.44,16.695 60.628,16.736 C60.44,17.158 60.063,18.096 60.153,18.669 L60.184,18.863 C60.272,19.413 60.341,19.847 60.257,20.267 C60.193,20.59 60.076,21.693 60.098,22.237 C59.692,22.355 57.437,22.142 55.41,21.857 C55.34,21.848 55.271,21.866 55.217,21.911 C55.163,21.955 55.13,22.019 55.126,22.089 C55.021,23.74 55.037,23.864 55.201,25.054 L55.23,25.27 C55.446,26.856 56.486,29.458 56.98,30.346 C57.464,31.219 57.604,31.774 57.673,32.386 C57.731,32.911 57.814,33.485 57.859,33.798 L57.88,33.942 C57.901,34.096 57.948,34.18 57.993,34.261 C58.038,34.341 58.093,34.439 58.161,34.693 C58.285,35.159 58.257,35.464 58.223,35.654 C58.17,35.975 58.457,36.066 58.566,36.1 C58.659,36.13 58.754,36.16 58.844,36.25 C58.929,36.335 59.005,36.399 59.067,36.45 C58.984,36.584 59.005,36.711 59.132,36.851 C59.166,36.889 59.221,36.949 59.288,37.061 C59.349,37.162 59.35,37.184 59.35,37.199 C59.356,37.304 59.384,37.4 59.492,37.572 C58.714,37.829 56.43,38.584 55.722,38.834 C55.158,38.995 54.595,39.151 54.066,39.294 C53.404,39.452 52.738,39.598 52.531,39.632 L52.361,39.661 C51.912,39.739 51.16,39.869 50.863,39.809 C50.538,39.744 47.788,39.344 47.269,39.457 C46.857,39.543 44.96,39.239 44.337,39.138 C44.228,39.12 44.15,39.108 44.115,39.103 C43.867,39.07 42.111,39.207 41.878,39.362 C41.751,39.447 41.643,39.572 41.567,39.67 C41.525,39.699 41.476,39.723 41.439,39.755 C41.458,39.689 41.459,39.619 41.429,39.556 C41.408,39.511 41.388,39.425 41.405,39.388 C41.413,39.37 41.445,39.352 41.492,39.338 C41.582,39.311 41.647,39.23 41.676,39.14 C41.696,39.075 41.689,39 41.66,38.935 C41.689,38.906 41.711,38.871 41.724,38.831 C41.751,38.754 41.744,38.669 41.703,38.598 C41.701,38.595 41.54,38.308 41.501,38.038 L41.472,37.841 C41.119,35.547 41.124,35.001 41.158,34.883 C41.185,34.81 41.181,34.728 41.146,34.658 C41.138,34.641 40.945,34.258 40.699,33.914 C40.588,33.754 40.273,32.696 40.084,32.064 C39.845,31.259 39.748,30.944 39.69,30.851 C38.942,29.256 38.748,29.16 38.667,29.12 C38.639,29.105 38.595,29.088 38.539,29.066 C38.238,28.951 37.537,28.681 37.342,27.66 L37.204,27.331 Z M34.572,27.603 C34.013,27.603 33.519,27.51 33.101,27.324 C32.878,27.229 32.507,26.722 32.458,26.601 C32.433,26.525 32.372,26.129 32.328,25.806 C32.322,25.762 32.3,25.711 32.274,25.674 C32.271,25.67 31.993,25.251 32.274,24.123 C32.322,23.934 32.361,23.746 32.401,23.551 C32.638,22.406 32.932,20.982 35.53,17.105 C35.549,17.078 35.561,17.048 35.569,17.016 C35.61,16.856 35.614,16.727 35.618,16.624 C35.624,16.472 35.624,16.472 35.688,16.43 C35.727,16.403 35.76,16.366 35.782,16.322 C35.886,16.118 36.022,15.668 36.038,15.612 C36.105,15.371 36.198,15.114 36.257,15.002 C36.508,14.931 36.73,14.649 36.84,14.482 L37.565,13.512 C38.233,12.354 39.038,11.067 39.226,10.918 C39.227,10.917 39.227,10.915 39.228,10.915 C39.328,10.934 39.43,10.91 39.486,10.819 C39.49,10.815 39.752,10.41 39.94,10.521 C40.179,10.66 40.421,10.764 40.657,10.865 C40.841,10.943 41.019,11.019 41.185,11.11 C41.294,11.17 41.46,11.247 41.642,11.332 C41.902,11.452 42.369,11.667 42.501,11.782 C42.503,11.876 42.511,11.969 42.519,12.058 C42.523,12.106 42.528,12.154 42.531,12.2 C42.51,12.215 42.494,12.23 42.482,12.246 C42.4,12.353 42.404,12.488 42.435,12.658 C42.458,12.787 42.496,12.896 42.529,12.989 C42.547,13.039 42.57,13.107 42.549,13.123 C42.44,13.192 42.247,13.271 42.061,13.347 C41.815,13.449 41.56,13.553 41.373,13.678 C41.043,13.898 40.961,13.98 40.612,14.328 C40.377,14.564 40.168,14.647 39.927,14.743 C39.859,14.77 39.791,14.797 39.724,14.827 C39.62,14.873 39.516,14.907 39.422,14.937 C39.207,15.006 39.004,15.072 38.913,15.253 C38.878,15.322 38.872,15.388 38.876,15.451 C38.822,15.576 38.786,15.713 38.767,15.832 C38.759,15.844 38.726,15.875 38.704,15.895 C38.586,16.003 38.308,16.256 38.511,16.711 C38.5,16.736 38.428,16.787 38.389,16.815 C38.285,16.887 38.131,16.995 38.131,17.189 C38.131,17.205 38.123,17.226 38.104,17.275 C38.06,17.386 37.994,17.552 37.994,17.877 C37.994,18.085 37.917,18.209 37.828,18.353 C37.762,18.459 37.693,18.57 37.657,18.712 C37.589,18.987 36.905,22.895 36.828,23.34 C36.821,23.377 36.823,23.415 36.834,23.452 C36.901,23.686 36.522,24.761 36.124,25.618 C36.097,25.679 36.094,25.748 36.118,25.811 C36.28,26.247 36.067,27.073 35.95,27.344 C35.936,27.377 35.949,27.409 35.949,27.443 C35.558,27.525 35.078,27.603 34.572,27.603 Z M45.02,4.324 C45.445,4.433 46.516,4.841 46.816,5.407 C46.84,5.452 46.828,5.49 46.872,5.517 C47.025,5.609 47.137,5.673 47.248,5.725 C47.326,5.763 47.408,5.808 47.41,5.792 C47.361,6.083 47.306,6.613 47.306,6.613 C47.301,6.661 47.307,6.71 47.327,6.754 L47.515,7.178 C47.533,7.217 47.558,7.252 47.59,7.279 C48.262,7.843 48.874,8.505 48.902,8.677 C48.851,9.126 48.807,9.219 48.611,9.292 C48.517,9.327 48.45,9.409 48.432,9.507 C48.414,9.605 48.451,9.706 48.527,9.771 C48.527,9.771 48.843,10.041 48.935,10.132 C48.989,10.187 49.05,10.217 49.126,10.222 C49.126,10.222 49.126,10.246 49.105,10.303 C49.04,10.477 48.871,10.731 48.734,10.935 C48.566,11.187 48.469,11.335 48.436,11.465 C48.404,11.597 48.43,11.758 48.479,12.032 C48.51,12.205 48.568,12.526 48.538,12.619 C48.485,12.776 48.496,12.901 48.522,12.995 C48.41,13.095 48.266,13.259 48.246,13.455 C48.233,13.585 48.277,13.708 48.409,13.84 C48.658,14.078 48.739,14.24 48.533,14.515 C48.519,14.533 48.519,14.556 48.511,14.576 C48.468,14.574 48.425,14.565 48.385,14.585 C48.267,14.644 47.93,14.765 47.636,14.765 C47.342,14.765 47.097,14.867 46.935,14.934 C46.889,14.953 46.85,14.971 46.819,14.978 C46.498,15.059 46.389,15.581 46.389,15.806 C46.389,15.907 46.285,16.366 46.215,16.669 C46.161,16.904 46.111,17.129 46.083,17.274 C46.054,17.435 45.847,17.706 45.653,17.915 C45.434,17.735 45.007,17.355 44.448,16.713 C43.813,15.605 41.069,15.626 40.002,15.678 C40.072,15.511 40.15,15.319 40.214,15.16 C40.444,15.066 40.698,14.944 40.968,14.674 C41.31,14.332 41.363,14.28 41.652,14.087 C41.797,13.99 42.029,13.895 42.253,13.803 C42.468,13.715 42.67,13.632 42.816,13.541 C43.177,13.315 43.068,13.004 43.003,12.817 C42.978,12.745 42.947,12.662 42.93,12.562 C42.93,12.559 42.928,12.556 42.928,12.553 C42.997,12.496 43.037,12.407 43.037,12.297 C43.037,12.208 43.029,12.111 43.019,12.009 C43.01,11.917 43,11.815 43,11.715 C43,11.434 42.686,11.261 41.854,10.876 C41.684,10.797 41.528,10.726 41.425,10.67 C41.246,10.572 41.053,10.489 40.854,10.404 C40.633,10.309 40.405,10.212 40.193,10.089 C39.85,9.889 39.495,10.056 39.239,10.334 C38.95,9.465 38.112,6.516 39.537,5.2 C40.737,4.092 42.59,3.699 43.648,3.699 C44.142,3.699 44.001,3.78 45.001,3.918 L45.001,4.051 C45,4.179 44.895,4.292 45.02,4.324 Z M18.817,49.225 C18.719,48.737 18.633,48.366 18.627,48.352 C18.627,48.253 18.574,47.978 18.08,47.56 C18.055,47.539 18.025,47.522 17.993,47.512 C16.002,46.887 14.389,47.6 13.725,47.979 C13.724,47.929 13.724,47.888 13.722,47.836 C13.709,47.337 13.698,46.865 13.72,46.647 C13.751,46.343 13.787,46.129 13.818,45.989 L13.993,46.048 C14.005,46.052 14.016,46.055 14.028,46.057 C14.153,46.134 14.467,46.356 14.74,46.554 C14.839,46.674 15.017,46.749 15.282,46.784 C15.557,46.821 16.228,46.831 16.438,46.622 C16.688,46.371 16.417,46.005 15.783,45.286 C15.719,45.213 15.669,45.157 15.649,45.132 C15.486,44.911 14.984,44.215 14.896,44.039 C14.809,43.863 14.557,43.744 13.602,43.363 C13.261,43.227 12.747,43.021 12.661,42.95 C12.597,42.886 12.592,42.871 12.649,42.633 C12.664,42.573 12.679,42.508 12.694,42.436 C12.757,42.118 12.597,41.669 12.397,41.16 C12.357,41.056 12.321,40.966 12.298,40.896 C12.23,40.694 12.102,40.155 12.013,39.736 L13.004,39.521 C13.154,39.521 13.348,39.524 13.566,39.529 C14.203,39.543 14.996,39.559 15.357,39.491 C15.891,39.389 19.767,39.556 20.172,39.598 C20.534,39.634 21.178,39.494 21.514,39.345 C21.78,39.227 21.849,38.788 21.867,38.549 C22.349,38.755 22.825,39.021 22.888,39.111 C23.015,39.494 23.388,39.944 24.049,40.053 C24.205,40.11 24.43,40.886 24.474,41.765 C24.478,41.835 24.507,41.902 24.557,41.951 C25.03,42.424 29.016,46.405 29.784,47.005 C27.675,47.69 20.144,50.152 19.628,50.601 C19.573,50.648 19.526,50.686 19.487,50.715 C19.489,50.489 19.356,50.31 19.254,50.173 C19.193,50.093 19.136,50.016 19.108,49.943 C19.082,49.876 18.963,49.58 18.817,49.225 Z M25.607,41.306 C25.467,39.773 24.975,38.926 24.141,38.787 C24.024,38.767 23.992,38.721 23.984,38.702 C23.922,38.519 23.808,38.183 23.01,37.734 C23.016,37.711 23.023,37.688 23.03,37.665 L23.216,37.233 L24.093,36.019 C24.14,35.954 24.179,35.883 24.21,35.808 L24.569,34.92 C25.34,36.191 26.397,37.794 27.19,38.466 C27.752,38.941 28.217,39.581 28.628,40.145 C29.088,40.776 29.45,41.275 29.933,41.515 C30.236,41.666 30.406,41.893 30.434,42.04 C30.542,42.58 30.689,43.318 31.61,44.109 C32.007,44.449 32.478,44.683 32.892,44.889 C33.095,44.99 33.395,45.139 33.5,45.224 L33.642,45.466 C34.204,46.433 34.509,46.901 34.851,47.154 C34.563,47.704 33.876,49.05 33.31,50.181 C31.015,46.328 30.622,46.093 30.421,45.973 C30.102,45.737 27.762,43.456 25.607,41.306 Z M20.566,39.44 C20.439,39.456 20.323,39.462 20.225,39.456 L20.566,39.44 Z M60.678,18.783 L60.648,18.591 C60.58,18.162 60.927,17.283 61.12,16.861 C61.387,16.929 61.675,16.998 61.848,17.02 C61.925,17.03 62.007,17.045 62.093,17.061 C62.322,17.103 62.579,17.149 62.837,17.124 C62.894,17.118 62.922,17.124 62.95,17.129 C63.027,17.143 63.151,17.122 63.209,17.073 C63.313,16.984 63.309,16.87 63.304,16.75 C63.303,16.699 63.3,16.629 63.3,16.532 C63.3,16.291 63.471,15.878 63.608,15.546 C63.758,15.184 63.85,14.953 63.85,14.777 C63.85,14.381 63.517,13.406 63.456,13.244 C63.423,13.156 63.39,13.097 63.36,13.045 C63.315,12.964 63.291,12.92 63.332,12.57 C63.366,12.28 63.36,12.102 63.231,11.991 C63.175,11.944 63.118,11.926 63.065,11.922 C63.063,11.916 63.06,11.911 63.057,11.905 C63.002,11.794 62.942,11.667 62.847,11.573 C62.644,11.368 62.274,11.403 61.907,11.469 C61.826,11.467 61.539,11.36 60.678,10.59 C60.612,10.531 60.559,10.484 60.527,10.457 C60.488,10.424 60.479,10.389 60.463,10.295 C60.445,10.192 60.419,10.038 60.277,9.933 C60.018,9.738 59.716,9.49 59.529,9.315 C59.601,9.308 59.669,9.27 59.711,9.21 C59.762,9.138 59.771,9.045 59.735,8.965 C59.683,8.848 59.807,8.704 59.959,8.555 C59.972,8.543 60.013,8.525 60.042,8.513 C60.129,8.476 60.274,8.415 60.342,8.211 C60.552,7.58 60.66,7.349 60.707,7.266 L60.708,7.266 C60.825,7.266 61.08,7.301 61.312,7.349 C61.43,7.371 61.537,7.317 61.587,7.217 C61.67,7.051 61.776,6.878 61.839,6.802 C61.944,6.827 62.166,6.92 62.396,7.036 L62.613,7.097 C63.275,7.363 63.502,7.347 63.598,7.315 C63.68,7.335 63.885,7.435 64.074,7.55 C64.122,7.621 64.22,7.959 64.267,8.121 C64.307,8.258 64.342,8.377 64.366,8.437 C64.435,8.609 64.951,9.915 64.971,9.956 L65.316,10.506 C65.336,10.538 65.511,10.811 65.751,10.952 C65.772,11.048 65.749,11.303 65.697,11.52 C65.685,11.568 65.688,11.62 65.706,11.666 C65.721,11.703 65.843,12.011 66.111,12.136 C66.147,12.247 66.16,12.557 66.138,12.832 C66.131,12.92 66.135,12.972 66.206,13.022 C66.465,13.382 67.969,18.166 68.034,18.409 C68.048,18.5 68.024,18.979 67.994,19.388 L68.003,20.553 C67.974,20.601 67.797,20.72 67.443,20.837 C67.36,20.865 67.272,20.934 66.931,21.217 C66.761,21.359 66.477,21.595 66.434,21.622 C66.269,21.653 64.641,21.743 64.436,21.697 C64.298,21.651 63.935,21.648 62.898,21.656 C62.543,21.659 62.1,21.663 62.023,21.653 C61.796,21.61 61.117,21.806 60.594,22.018 C60.606,21.557 60.672,20.75 60.748,20.366 C60.85,19.857 60.771,19.359 60.678,18.783 Z M37.02,46.196 C37.012,46.178 37.005,46.161 36.995,46.142 L36.941,46.045 C36.61,45.436 36.469,45.201 36.383,45.117 C36.307,45.04 35.889,44.746 35.68,44.746 C35.576,44.746 35.465,44.809 35.416,44.901 C35.367,44.992 35.385,45.136 35.439,45.222 C35.511,45.333 35.759,45.889 35.859,46.188 C35.827,46.177 35.785,46.159 35.736,46.126 C35.558,46.008 35.093,45.21 34.871,44.826 L34.692,44.521 C34.496,44.196 34.072,43.985 33.581,43.74 C33.216,43.558 32.838,43.371 32.562,43.136 C31.978,42.633 31.899,42.241 31.808,41.789 C31.693,41.212 31.25,40.681 30.622,40.366 C30.42,40.265 30.11,39.84 29.782,39.389 C29.35,38.797 28.815,38.06 28.136,37.486 C26.967,36.496 24.835,32.616 24.813,32.577 C24.771,32.501 24.689,32.453 24.609,32.442 L24.631,32.388 L24.897,32.015 C25.015,32.048 25.468,32.162 26.056,32.162 C26.599,32.162 27.241,32.059 27.79,31.69 C27.899,31.616 27.991,31.52 28.087,31.429 C28.515,31.072 28.71,30.624 28.784,30.271 C28.829,30.13 28.86,29.977 28.89,29.82 C29.491,30.693 30.688,32.69 30.971,34.175 C31.298,35.898 31.832,36.685 32.061,37.021 C32.09,37.064 32.114,37.096 32.125,37.119 C32.145,37.158 32.205,37.296 32.295,37.494 C32.857,38.75 33.413,39.956 33.66,40.274 C34.074,40.805 35.797,41.794 35.814,41.803 C36.034,41.929 36.566,42.496 36.823,42.77 C36.911,42.864 36.982,42.939 37.024,42.981 C37.128,43.086 37.247,43.408 37.318,43.599 L37.386,43.781 C37.486,44.033 37.923,44.735 37.974,44.814 C38.001,44.859 38.039,44.891 38.083,44.913 L37.02,46.196 Z M11.74,57.221 C11.639,57.147 11.547,57.079 11.461,57.017 C11.819,56.771 12.193,56.406 12.199,56.399 C12.421,56.176 12.973,55.373 12.787,54.753 C12.713,54.506 12.428,53.941 12.126,53.344 C11.885,52.867 11.555,52.213 11.528,52.105 C11.528,51.937 11.4,51.622 11.262,51.327 C11.359,51.263 11.5,51.156 11.646,50.985 C11.669,50.959 11.688,50.923 11.705,50.881 C11.829,51.135 11.962,51.329 12.1,51.408 C12.174,51.451 12.243,51.466 12.302,51.466 C12.345,51.466 12.383,51.458 12.413,51.449 C12.787,51.333 12.944,50.974 12.994,50.66 C13.136,50.637 13.282,50.576 13.404,50.515 C13.683,50.374 13.75,49.894 13.734,48.557 C13.959,48.404 15.627,47.348 17.742,47.962 C17.844,48.185 18.112,48.824 18.334,49.366 C18.46,50.003 18.597,50.796 18.614,51.295 C18.594,51.346 18.581,51.399 18.593,51.456 C18.598,51.479 19.081,53.824 18.428,55.131 C17.92,56.146 16.301,58.355 15.43,59.541 C15.28,59.745 15.18,59.883 15.097,59.996 C14.61,59.382 13.426,58.453 11.74,57.221 Z M19.313,51.319 C19.522,51.319 19.749,51.152 19.952,50.975 C20.365,50.648 26.403,48.621 30.153,47.408 C30.743,48.22 32.033,50.321 33.194,52.311 C32.778,52.94 31.37,55.299 30.946,58.84 C30.916,58.887 30.901,58.944 30.907,59.001 C30.872,59.123 30.638,59.49 30.481,59.736 C30.299,60.022 30.114,60.315 29.996,60.558 C28.608,60.594 27.263,58.981 27.196,58.9 C27.423,58.529 27.713,58.109 27.957,57.761 C28.35,57.201 28.479,57.009 28.513,56.876 C28.626,56.424 27.267,55.166 26.925,55.038 C26.362,54.827 19.871,51.931 19.154,51.272 C19.205,51.301 19.258,51.319 19.313,51.319 Z M50.838,49.288 C50.757,49.833 50.811,50.522 50.87,51.012 C50.852,50.998 50.84,50.988 50.821,50.974 C50.468,50.703 49.8,50.188 49.522,49.932 C50.054,49.679 50.531,49.446 50.838,49.288 Z M47.549,51.326 C48.105,51.166 48.633,50.854 49.138,50.344 C49.367,50.558 49.775,50.881 50.477,51.421 C50.669,51.569 50.829,51.692 50.937,51.779 L47.549,51.326 Z" id="Shape"></path>
            </g>
        </g>
    </g>
</svg>