<?xml version="1.0" encoding="UTF-8"?>
<svg width="100px" height="95px" viewBox="0 0 100 95" version="1.1" xmlns="http://www.w3.org/2000/svg" xmlns:xlink="http://www.w3.org/1999/xlink">
    <!-- Generator: Sketch 53.2 (72643) - https://sketchapp.com -->
    <title>noun_technical support_749677</title>
    <desc>Created with Sketch.</desc>
    <g id="v3.0" stroke="none" stroke-width="1" fill="none" fill-rule="evenodd">
        <g id="Very-wide-desktop" transform="translate(-1191.000000, -3836.000000)" fill="#000000" fill-rule="nonzero">
            <g id="noun_technical-support_749677" transform="translate(1191.000000, 3836.000000)">
                <path d="M9.0625,48.671875 C9.375,48.671875 9.6875,48.4375 9.6875,48.046875 L9.6875,40.234375 C9.6875,39.921875 9.453125,39.609375 9.0625,39.609375 C8.671875,39.609375 8.4375,39.84375 8.4375,40.234375 L8.4375,48.125 C8.515625,48.4375 8.75,48.671875 9.0625,48.671875 Z" id="Path"></path>
                <path d="M8.515625,54.609375 C8.515625,54.921875 8.75,55.234375 9.140625,55.234375 C9.53125,55.234375 9.765625,55 9.765625,54.609375 L9.765625,51.796875 C9.765625,51.484375 9.53125,51.171875 9.140625,51.171875 C8.75,51.171875 8.515625,51.40625 8.515625,51.796875 L8.515625,54.609375 Z" id="Path"></path>
                <path d="M25.15625,13.125 C25.15625,14.765625 26.484375,16.09375 28.125,16.09375 C29.765625,16.09375 31.09375,14.765625 31.09375,13.125 C31.09375,11.484375 29.765625,10.15625 28.125,10.15625 C26.484375,10.15625 25.15625,11.484375 25.15625,13.125 Z M29.921875,13.125 C29.921875,14.140625 29.140625,14.921875 28.125,14.921875 C27.109375,14.921875 26.328125,14.140625 26.328125,13.125 C26.328125,12.109375 27.109375,11.328125 28.125,11.328125 C29.140625,11.328125 29.921875,12.1875 29.921875,13.125 Z" id="Shape"></path>
                <path d="M56.328125,88.203125 C54.84375,88.203125 53.59375,89.453125 53.59375,90.9375 C53.59375,92.421875 54.84375,93.671875 56.328125,93.671875 C57.8125,93.671875 59.0625,92.421875 59.0625,90.9375 C59.0625,89.453125 57.8125,88.203125 56.328125,88.203125 Z M56.328125,92.578125 C55.46875,92.578125 54.765625,91.875 54.765625,91.015625 C54.765625,90.15625 55.46875,89.453125 56.328125,89.453125 C57.1875,89.453125 57.890625,90.15625 57.890625,91.015625 C57.890625,91.875 57.1875,92.578125 56.328125,92.578125 Z" id="Shape"></path>
                <path d="M86.171875,89.6875 C86.171875,89.375 85.9375,89.0625 85.546875,89.0625 L75.78125,89.0625 C75.46875,89.0625 75.15625,89.296875 75.15625,89.6875 C75.15625,90 75.390625,90.3125 75.78125,90.3125 L85.546875,90.3125 C85.9375,90.234375 86.171875,90 86.171875,89.6875 Z" id="Path"></path>
                <path d="M91.953125,89.0625 L88.75,89.0625 C88.4375,89.0625 88.125,89.296875 88.125,89.6875 C88.125,90 88.359375,90.3125 88.75,90.3125 L91.953125,90.3125 C92.265625,90.3125 92.578125,90.078125 92.578125,89.6875 C92.578125,89.296875 92.34375,89.0625 91.953125,89.0625 Z" id="Path"></path>
                <path d="M91.953125,92.421875 L85.15625,92.421875 C84.84375,92.421875 84.53125,92.65625 84.53125,93.046875 C84.53125,93.359375 84.765625,93.671875 85.15625,93.671875 L91.953125,93.671875 C92.265625,93.671875 92.578125,93.4375 92.578125,93.046875 C92.578125,92.65625 92.34375,92.421875 91.953125,92.421875 Z" id="Path"></path>
                <path d="M82.1875,92.421875 L80,92.421875 C79.6875,92.421875 79.375,92.65625 79.375,93.046875 C79.375,93.359375 79.609375,93.671875 80,93.671875 L82.1875,93.671875 C82.5,93.671875 82.8125,93.4375 82.8125,93.046875 C82.8125,92.65625 82.578125,92.421875 82.1875,92.421875 Z" id="Path"></path>
                <path d="M27.109375,4.375 C27.109375,4.6875 27.34375,5 27.734375,5 L37.5,5 C37.8125,5 38.125,4.765625 38.125,4.375 C38.125,4.0625 37.890625,3.75 37.5,3.75 L27.65625,3.75 C27.34375,3.828125 27.109375,4.0625 27.109375,4.375 Z" id="Path"></path>
                <path d="M21.328125,5 L24.53125,5 C24.84375,5 25.15625,4.765625 25.15625,4.375 C25.15625,4.0625 24.921875,3.75 24.53125,3.75 L21.328125,3.75 C21.015625,3.75 20.703125,3.984375 20.703125,4.375 C20.703125,4.765625 21.015625,5 21.328125,5 Z" id="Path"></path>
                <path d="M21.328125,1.640625 L28.125,1.640625 C28.4375,1.640625 28.75,1.40625 28.75,1.015625 C28.75,0.625 28.4375,0.46875 28.125,0.46875 L21.328125,0.46875 C21.015625,0.46875 20.703125,0.703125 20.703125,1.09375 C20.703125,1.484375 21.015625,1.640625 21.328125,1.640625 Z" id="Path"></path>
                <path d="M31.09375,1.640625 L33.28125,1.640625 C33.59375,1.640625 33.90625,1.40625 33.90625,1.015625 C33.90625,0.625 33.59375,0.46875 33.28125,0.46875 L31.09375,0.46875 C30.78125,0.46875 30.46875,0.703125 30.46875,1.09375 C30.46875,1.484375 30.78125,1.640625 31.09375,1.640625 Z" id="Path"></path>
                <path d="M17.1875,67.5 L7.34375,67.5 C7.03125,67.5 6.71875,67.734375 6.71875,68.125 C6.71875,68.4375 6.953125,68.75 7.34375,68.75 L17.1875,68.75 C17.5,68.75 17.8125,68.515625 17.8125,68.125 C17.734375,67.8125 17.5,67.5 17.1875,67.5 Z" id="Path"></path>
                <path d="M4.140625,67.5 L1.015625,67.5 C0.703125,67.5 0.390625,67.734375 0.390625,68.125 C0.390625,68.4375 0.625,68.75 1.015625,68.75 L4.21875,68.75 C4.53125,68.75 4.84375,68.515625 4.84375,68.125 C4.765625,67.8125 4.453125,67.5 4.140625,67.5 Z" id="Path"></path>
                <path d="M1.015625,65.3125 L7.8125,65.3125 C8.125,65.3125 8.4375,65.078125 8.4375,64.6875 C8.4375,64.375 8.203125,64.0625 7.8125,64.0625 L1.015625,64.0625 C0.703125,64.0625 0.390625,64.296875 0.390625,64.6875 C0.390625,65.078125 0.625,65.3125 1.015625,65.3125 Z" id="Path"></path>
                <path d="M12.96875,65.3125 C13.28125,65.3125 13.59375,65.078125 13.59375,64.6875 C13.59375,64.375 13.359375,64.0625 12.96875,64.0625 L10.78125,64.0625 C10.46875,64.0625 10.15625,64.296875 10.15625,64.6875 C10.15625,65 10.390625,65.3125 10.78125,65.3125 L12.96875,65.3125 Z" id="Path"></path>
                <path d="M56.328125,6.09375 C56.40625,6.171875 56.5625,6.25 56.71875,6.25 C56.875,6.25 57.03125,6.171875 57.109375,6.09375 C57.34375,5.859375 57.34375,5.46875 57.109375,5.234375 L55.78125,3.90625 C55.546875,3.671875 55.15625,3.671875 54.921875,3.90625 C54.6875,4.140625 54.6875,4.53125 54.921875,4.765625 L56.328125,6.09375 Z" id="Path"></path>
                <path d="M60.46875,10.3125 C60.546875,10.390625 60.703125,10.46875 60.859375,10.46875 C61.015625,10.46875 61.171875,10.390625 61.25,10.3125 C61.484375,10.078125 61.484375,9.6875 61.25,9.453125 L59.921875,8.125 C59.6875,7.890625 59.296875,7.890625 59.0625,8.125 C58.828125,8.359375 58.828125,8.75 59.0625,8.984375 L60.46875,10.3125 Z" id="Path"></path>
                <path d="M55.46875,10.46875 C55.625,10.46875 55.78125,10.390625 55.859375,10.3125 L57.1875,8.984375 C57.421875,8.75 57.421875,8.359375 57.1875,8.125 C56.953125,7.890625 56.5625,7.890625 56.328125,8.125 L55,9.453125 C54.765625,9.6875 54.765625,10.078125 55,10.3125 C55.15625,10.390625 55.3125,10.46875 55.46875,10.46875 Z" id="Path"></path>
                <path d="M59.609375,6.25 C59.765625,6.25 59.921875,6.171875 60,6.09375 L61.328125,4.765625 C61.5625,4.53125 61.5625,4.140625 61.328125,3.90625 C61.09375,3.671875 60.703125,3.671875 60.46875,3.90625 L59.140625,5.234375 C58.90625,5.46875 58.90625,5.859375 59.140625,6.09375 C59.296875,6.25 59.453125,6.25 59.609375,6.25 Z" id="Path"></path>
                <path d="M83.28125,32.1875 C83.359375,32.265625 83.515625,32.34375 83.671875,32.34375 C83.828125,32.34375 83.984375,32.265625 84.0625,32.1875 C84.296875,31.953125 84.296875,31.5625 84.0625,31.328125 L82.734375,30 C82.5,29.765625 82.109375,29.765625 81.875,30 C81.640625,30.234375 81.640625,30.625 81.875,30.859375 L83.28125,32.1875 Z" id="Path"></path>
                <path d="M86.171875,35.078125 L87.5,36.40625 C87.578125,36.484375 87.734375,36.5625 87.890625,36.5625 C88.046875,36.5625 88.203125,36.484375 88.28125,36.40625 C88.515625,36.171875 88.515625,35.78125 88.28125,35.546875 L86.953125,34.21875 C86.71875,33.984375 86.328125,33.984375 86.09375,34.21875 C85.9375,34.453125 85.9375,34.84375 86.171875,35.078125 Z" id="Path"></path>
                <path d="M82.03125,36.328125 C82.109375,36.40625 82.265625,36.484375 82.421875,36.484375 C82.578125,36.484375 82.734375,36.40625 82.8125,36.328125 L84.140625,35 C84.375,34.765625 84.375,34.375 84.140625,34.140625 C83.90625,33.90625 83.515625,33.90625 83.28125,34.140625 L81.953125,35.46875 C81.796875,35.703125 81.796875,36.09375 82.03125,36.328125 Z" id="Path"></path>
                <path d="M86.640625,32.34375 C86.796875,32.34375 86.953125,32.265625 87.03125,32.1875 L88.359375,30.859375 C88.59375,30.625 88.59375,30.234375 88.359375,30 C88.125,29.765625 87.734375,29.765625 87.5,30 L86.171875,31.328125 C85.9375,31.5625 85.9375,31.953125 86.171875,32.1875 C86.328125,32.265625 86.484375,32.34375 86.640625,32.34375 Z" id="Path"></path>
                <path d="M20.546875,88.359375 C20.3125,88.125 19.921875,88.125 19.6875,88.359375 C19.453125,88.59375 19.453125,88.984375 19.6875,89.21875 L21.015625,90.546875 C21.09375,90.625 21.25,90.703125 21.40625,90.703125 C21.5625,90.703125 21.71875,90.625 21.796875,90.546875 C22.03125,90.3125 22.03125,89.921875 21.796875,89.6875 L20.546875,88.359375 Z" id="Path"></path>
                <path d="M24.765625,92.578125 C24.53125,92.34375 24.140625,92.34375 23.90625,92.578125 C23.671875,92.8125 23.671875,93.203125 23.90625,93.4375 L25.234375,94.765625 C25.3125,94.84375 25.46875,94.921875 25.625,94.921875 C25.78125,94.921875 25.9375,94.84375 26.015625,94.765625 C26.25,94.53125 26.25,94.140625 26.015625,93.90625 L24.765625,92.578125 Z" id="Path"></path>
                <path d="M21.015625,92.578125 L19.6875,93.90625 C19.453125,94.140625 19.453125,94.53125 19.6875,94.765625 C19.765625,94.84375 19.921875,94.921875 20.078125,94.921875 C20.234375,94.921875 20.390625,94.84375 20.46875,94.765625 L21.796875,93.4375 C22.03125,93.203125 22.03125,92.8125 21.796875,92.578125 C21.640625,92.34375 21.25,92.34375 21.015625,92.578125 Z" id="Path"></path>
                <path d="M25.234375,88.359375 L23.90625,89.6875 C23.671875,89.921875 23.671875,90.3125 23.90625,90.546875 C23.984375,90.625 24.140625,90.703125 24.296875,90.703125 C24.453125,90.703125 24.609375,90.625 24.6875,90.546875 L26.015625,89.21875 C26.25,88.984375 26.25,88.59375 26.015625,88.359375 C25.78125,88.125 25.46875,88.125 25.234375,88.359375 Z" id="Path"></path>
                <path d="M80.15625,85.078125 C80.15625,85.078125 80.15625,85.078125 80.15625,85.078125 C80.234375,85.078125 80.234375,85.078125 80.3125,85.078125 C80.3125,85.078125 80.3125,85.078125 80.3125,85.078125 C80.3125,85.078125 80.390625,85.078125 80.390625,85 C80.390625,85 80.46875,85 80.46875,84.921875 C80.46875,84.921875 80.546875,84.84375 80.546875,84.84375 C80.546875,84.84375 80.625,84.765625 80.625,84.765625 C80.625,84.765625 80.625,84.6875 80.625,84.6875 C80.625,84.609375 80.625,84.609375 80.625,84.53125 C80.625,84.53125 80.625,84.53125 80.625,84.53125 C80.625,84.53125 80.625,84.453125 80.625,84.453125 C80.625,84.453125 80.625,84.375 80.625,84.375 C79.84375,81.71875 78.984375,79.0625 78.203125,76.484375 C76.328125,70.390625 70.703125,66.953125 63.59375,67.5 L62.578125,67.578125 C61.640625,67.65625 60.78125,67.734375 59.765625,67.734375 C59.21875,66.71875 57.65625,62.8125 59.765625,57.265625 C59.921875,57.109375 60.078125,56.953125 60.234375,56.796875 L69.609375,56.796875 C69.6875,56.796875 69.765625,56.796875 69.84375,56.71875 C69.84375,56.71875 69.921875,56.71875 69.921875,56.71875 C70,56.71875 70,56.640625 70.078125,56.640625 C70.078125,56.640625 70.078125,56.640625 70.15625,56.5625 C70.15625,56.5625 70.234375,56.484375 70.234375,56.40625 C70.234375,56.40625 70.234375,56.40625 70.234375,56.328125 C70.234375,56.328125 70.234375,56.328125 70.234375,56.328125 L71.25,53.515625 C72.34375,53.359375 73.359375,52.890625 74.375,52.265625 C76.09375,51.09375 77.1875,49.296875 77.578125,47.265625 C77.96875,45.234375 77.5,43.203125 76.328125,41.484375 C75.234375,39.921875 73.671875,38.90625 71.953125,38.4375 C72.03125,37.65625 72.109375,36.875 72.109375,36.015625 C72.109375,23.671875 62.109375,13.671875 49.84375,13.671875 C37.34375,13.75 27.34375,23.75 27.34375,36.015625 C27.34375,36.875 27.421875,37.65625 27.5,38.4375 C25.703125,38.90625 24.140625,40 23.046875,41.484375 C21.875,43.203125 21.40625,45.234375 21.796875,47.265625 C22.1875,49.296875 23.28125,51.09375 25,52.265625 C26.328125,53.203125 27.8125,53.671875 29.375,53.671875 C29.84375,53.671875 30.3125,53.59375 30.78125,53.515625 C31.09375,53.4375 31.328125,53.125 31.25,52.8125 L28.75,38.828125 C28.75,38.828125 28.75,38.75 28.75,38.75 C28.59375,37.890625 28.515625,36.953125 28.515625,35.9375 C28.515625,24.296875 37.96875,14.765625 49.609375,14.765625 C61.25,14.765625 70.703125,24.21875 70.703125,35.9375 C70.703125,36.875 70.625,37.8125 70.546875,38.671875 C70.546875,38.671875 70.546875,38.75 70.546875,38.75 L67.96875,52.8125 C67.890625,53.125 68.125,53.4375 68.4375,53.515625 C68.90625,53.59375 69.375,53.671875 69.84375,53.671875 L69.140625,55.546875 L61.25,55.546875 C62.5,53.90625 63.515625,51.953125 64.296875,49.6875 C64.296875,49.6875 64.375,49.6875 64.375,49.6875 C66.09375,49.6875 67.421875,47.109375 67.421875,43.75 C67.421875,40.9375 66.5625,38.671875 65.15625,37.96875 L65.15625,37.8125 C65.390625,35.9375 65.625,34.0625 65.78125,32.109375 C66.328125,23.828125 64.140625,22.8125 59.921875,21.484375 C59.609375,21.40625 59.296875,21.25 58.90625,21.171875 C55.46875,20.078125 52.03125,19.84375 49.6875,19.84375 C47.34375,19.84375 43.828125,20.078125 40.46875,21.171875 C40.15625,21.25 39.765625,21.40625 39.453125,21.484375 C35.234375,22.8125 33.046875,23.828125 33.59375,32.109375 C33.75,33.984375 33.984375,35.9375 34.21875,37.8125 L34.21875,37.96875 C32.890625,38.59375 31.953125,40.859375 31.953125,43.75 C31.953125,47.109375 33.28125,49.6875 35,49.6875 C35,49.6875 35.078125,49.6875 35.078125,49.6875 C36.09375,52.578125 37.578125,55.078125 39.375,57.109375 C41.40625,62.578125 39.84375,66.5625 39.296875,67.65625 C38.28125,67.578125 37.421875,67.578125 36.484375,67.5 L35.546875,67.421875 C28.4375,66.875 22.8125,70.3125 20.9375,76.40625 C20.078125,78.984375 19.296875,81.640625 18.515625,84.296875 C18.515625,84.296875 18.515625,84.375 18.515625,84.375 C18.515625,84.375 18.515625,84.453125 18.515625,84.453125 C18.515625,84.453125 18.515625,84.453125 18.515625,84.453125 C18.515625,84.53125 18.515625,84.53125 18.515625,84.609375 C18.515625,84.609375 18.515625,84.6875 18.515625,84.6875 C18.515625,84.6875 18.59375,84.765625 18.59375,84.765625 C18.59375,84.765625 18.671875,84.84375 18.671875,84.84375 C18.671875,84.84375 18.75,84.921875 18.75,84.921875 C18.75,84.921875 18.828125,85 18.828125,85 C18.828125,85 18.828125,85 18.828125,85 C18.90625,85 18.90625,85 18.984375,85 C18.984375,85 18.984375,85 18.984375,85 L80.15625,85 L80.15625,85.078125 Z M25.703125,51.328125 C24.296875,50.3125 23.28125,48.828125 22.96875,47.109375 C22.65625,45.390625 23.046875,43.671875 24.0625,42.1875 C24.921875,40.9375 26.25,40 27.734375,39.609375 L30.078125,52.421875 C28.4375,52.578125 26.953125,52.1875 25.703125,51.328125 Z M69.296875,52.5 L71.640625,39.6875 C73.125,40.078125 74.375,41.015625 75.3125,42.265625 C76.328125,43.671875 76.71875,45.46875 76.40625,47.1875 C76.09375,48.90625 75.15625,50.390625 73.671875,51.40625 C72.34375,52.1875 70.859375,52.578125 69.296875,52.5 Z M39.765625,22.734375 C40.078125,22.65625 40.46875,22.5 40.78125,22.421875 C43.359375,21.5625 46.40625,21.171875 49.6875,21.09375 C52.890625,21.09375 56.015625,21.5625 58.59375,22.421875 C58.984375,22.5 59.296875,22.65625 59.609375,22.734375 C63.28125,23.828125 65.15625,24.453125 64.609375,32.109375 C64.53125,33.046875 64.453125,33.90625 64.375,34.84375 C63.75,32.96875 62.734375,31.015625 61.015625,30.78125 C58.203125,30.46875 50.78125,30.546875 50.390625,30.546875 C50.390625,30.546875 47.1875,30.78125 43.75,27.421875 C43.59375,27.265625 43.4375,27.265625 43.28125,27.265625 C43.125,27.265625 42.96875,27.34375 42.890625,27.5 C42.34375,28.203125 41.796875,29.609375 42.5,31.015625 C40.703125,30.703125 37.890625,30.46875 36.796875,31.796875 C36.09375,32.578125 35.546875,33.984375 35.078125,35.3125 C34.921875,34.21875 34.84375,33.125 34.765625,32.109375 C34.21875,24.375 36.09375,23.828125 39.765625,22.734375 Z M35.703125,48.515625 C35.625,48.515625 35.546875,48.4375 35.46875,48.4375 C35.390625,48.4375 35.3125,48.4375 35.234375,48.515625 C35.15625,48.59375 35.078125,48.59375 35,48.59375 C34.21875,48.59375 33.125,46.796875 33.125,43.828125 C33.125,41.328125 33.90625,39.453125 34.765625,39.140625 C34.765625,39.140625 34.765625,39.140625 34.765625,39.140625 C35,39.140625 35.3125,38.984375 35.3125,38.671875 C35.625,37.421875 36.5625,33.828125 37.65625,32.578125 C38.4375,31.640625 41.71875,32.03125 43.828125,32.578125 C44.0625,32.65625 44.375,32.5 44.53125,32.265625 C44.6875,32.03125 44.609375,31.71875 44.375,31.5625 C43.125,30.625 43.28125,29.53125 43.515625,28.90625 C47.109375,32.109375 50.3125,31.875 50.46875,31.875 C50.546875,31.875 58.203125,31.796875 60.9375,32.109375 C62.8125,32.34375 63.828125,37.03125 64.0625,38.671875 C64.0625,38.984375 64.375,39.21875 64.6875,39.140625 C65.46875,39.453125 66.328125,41.328125 66.328125,43.828125 C66.328125,46.796875 65.234375,48.59375 64.453125,48.59375 C64.375,48.59375 64.296875,48.59375 64.140625,48.515625 C63.984375,48.4375 63.828125,48.4375 63.671875,48.515625 C63.515625,48.59375 63.4375,48.75 63.359375,48.90625 C62.578125,51.484375 61.328125,53.75 59.84375,55.625 L53.59375,55.625 C53.359375,54.921875 52.734375,54.453125 52.03125,54.453125 L47.578125,54.453125 C46.640625,54.453125 45.9375,55.234375 45.9375,56.09375 L45.9375,56.25 C45.9375,57.1875 46.71875,57.890625 47.578125,57.890625 L52.03125,57.890625 C52.734375,57.890625 53.359375,57.421875 53.59375,56.71875 L58.75,56.71875 C56.25,59.21875 53.125,60.625 49.765625,60.625 C46.328125,60.625 43.125,59.140625 40.546875,56.484375 C40.546875,56.484375 40.546875,56.484375 40.546875,56.484375 C40.46875,56.328125 40.390625,56.25 40.234375,56.171875 C38.4375,54.21875 37.03125,51.796875 36.171875,48.90625 C36.015625,48.75 35.859375,48.59375 35.703125,48.515625 Z M52.34375,56.25 C52.34375,56.484375 52.109375,56.71875 51.875,56.71875 L47.421875,56.71875 C47.1875,56.71875 46.953125,56.484375 46.953125,56.25 L46.953125,56.09375 C46.953125,55.859375 47.1875,55.625 47.421875,55.625 L51.875,55.625 C52.109375,55.625 52.34375,55.859375 52.34375,56.09375 L52.34375,56.25 Z M41.09375,58.75 C43.59375,60.703125 46.484375,61.875 49.609375,61.875 C52.65625,61.875 55.625,60.78125 58.046875,58.828125 C56.640625,64.375 58.59375,67.96875 58.90625,68.515625 C58.90625,68.59375 58.984375,68.671875 59.0625,68.75 C57.734375,71.015625 56.171875,72.96875 54.53125,74.765625 L53.28125,69.53125 L54.921875,66.71875 C55,66.5625 55,66.328125 54.921875,66.09375 C54.84375,65.9375 54.609375,65.78125 54.375,65.78125 L44.84375,65.78125 C44.609375,65.78125 44.453125,65.859375 44.296875,66.09375 C44.21875,66.25 44.21875,66.484375 44.296875,66.71875 L46.015625,69.609375 L44.765625,74.765625 C43.28125,73.203125 41.640625,71.171875 40.078125,68.59375 C40.078125,68.59375 40.15625,68.515625 40.15625,68.515625 C40.46875,68.046875 42.5,64.296875 41.09375,58.75 Z M49.6875,78.984375 C49.0625,78.59375 47.65625,77.578125 45.78125,75.78125 C45.859375,75.703125 45.859375,75.625 45.859375,75.546875 L47.1875,70.078125 L52.1875,70.078125 L53.515625,75.546875 C53.515625,75.625 53.59375,75.703125 53.59375,75.703125 C51.71875,77.578125 50.234375,78.59375 49.6875,78.984375 Z M52.265625,68.90625 L46.953125,68.90625 L45.859375,67.03125 L53.359375,67.03125 L52.265625,68.90625 Z M22.109375,76.796875 C23.828125,71.25 28.984375,68.125 35.546875,68.59375 L36.484375,68.671875 C37.34375,68.75 38.046875,68.75 38.90625,68.828125 C43.75,76.953125 49.140625,80.078125 49.375,80.234375 C49.453125,80.3125 49.53125,80.3125 49.6875,80.3125 L49.6875,80.3125 C49.6875,80.3125 49.6875,80.3125 49.6875,80.3125 C49.765625,80.3125 49.84375,80.3125 49.921875,80.234375 C49.921875,80.234375 50,80.234375 50,80.234375 C50.078125,80.15625 51.953125,79.0625 54.53125,76.5625 C56.71875,74.375 58.75,71.796875 60.46875,68.90625 C61.25,68.828125 62.03125,68.828125 62.8125,68.75 L63.828125,68.671875 C70.390625,68.125 75.546875,71.328125 77.265625,76.875 C77.96875,79.21875 78.75,81.5625 79.453125,83.984375 L19.921875,83.984375 C20.625,81.5625 21.328125,79.140625 22.109375,76.796875 Z" id="Shape"></path>
                <path d="M17.8125,29.21875 C21.953125,26.796875 23.75,21.796875 22.109375,17.265625 C20.234375,12.109375 14.53125,9.375 9.375,11.25 C8.125,11.71875 7.03125,12.421875 6.09375,13.203125 C4.609375,14.53125 3.59375,16.25 3.046875,18.203125 C2.578125,20.15625 2.65625,22.1875 3.28125,24.0625 C4.921875,28.671875 9.765625,31.40625 14.53125,30.46875 C14.765625,30.546875 15.390625,30.859375 15.78125,31.09375 C16.796875,31.71875 17.34375,31.953125 17.734375,31.953125 C17.8125,31.953125 17.890625,31.953125 17.96875,31.875 C18.125,31.796875 18.28125,31.71875 18.28125,31.5625 C18.359375,31.40625 18.359375,31.25 18.28125,31.09375 C18.125,30.46875 17.8125,29.609375 17.8125,29.21875 Z M16.875,30.3125 C16.71875,30.234375 16.5625,30.15625 16.484375,30.078125 C15.46875,29.53125 15,29.21875 14.6875,29.21875 C14.609375,29.21875 14.609375,29.21875 14.53125,29.21875 C10.3125,30.078125 5.9375,27.65625 4.53125,23.59375 C3.90625,21.953125 3.828125,20.15625 4.296875,18.4375 C4.765625,16.71875 5.625,15.234375 6.953125,14.0625 C7.8125,13.28125 8.75,12.734375 9.84375,12.34375 C14.375,10.703125 19.453125,13.046875 21.09375,17.65625 C22.578125,21.71875 20.859375,26.171875 17.1875,28.28125 C16.796875,28.4375 16.328125,28.75 16.875,30.3125 Z" id="Shape"></path>
                <path d="M18.984375,18.515625 C18.984375,18.203125 18.75,17.890625 18.359375,17.890625 L7.03125,17.890625 C6.71875,17.890625 6.40625,18.125 6.40625,18.515625 C6.40625,18.828125 6.640625,19.140625 7.03125,19.140625 L18.359375,19.140625 C18.671875,19.140625 18.984375,18.90625 18.984375,18.515625 Z" id="Path"></path>
                <path d="M16.328125,21.875 L9.0625,21.875 C8.75,21.875 8.4375,22.109375 8.4375,22.5 C8.4375,22.890625 8.671875,23.125 9.0625,23.125 L16.328125,23.125 C16.640625,23.125 16.953125,22.890625 16.953125,22.5 C16.953125,22.109375 16.640625,21.875 16.328125,21.875 Z" id="Path"></path>
                <path d="M89.609375,44.6875 C89.453125,44.765625 89.296875,44.921875 89.21875,45.078125 C89.140625,45.3125 89.21875,45.46875 89.375,45.625 L91.25,47.5 L91.09375,49.6875 L88.90625,49.84375 L87.03125,47.96875 C86.875,47.8125 86.71875,47.734375 86.484375,47.8125 C86.328125,47.890625 86.09375,47.96875 86.09375,48.203125 C85.234375,50.390625 85.78125,52.96875 87.421875,54.609375 C87.8125,55 88.28125,55.3125 88.75,55.625 C89.296875,64.21875 89.453125,73.203125 89.140625,82.34375 C89.140625,83.90625 90.390625,85.234375 92.03125,85.234375 C93.59375,85.234375 94.921875,83.984375 94.921875,82.34375 C94.609375,73.203125 94.765625,64.21875 95.3125,55.546875 C95.3125,55.46875 95.3125,55.390625 95.3125,55.3125 C95.546875,55.15625 95.78125,54.921875 96.015625,54.6875 C98.359375,52.34375 98.359375,48.515625 96.015625,46.171875 C94.296875,44.453125 91.796875,43.90625 89.609375,44.6875 Z M93.671875,82.265625 C93.671875,83.203125 92.890625,83.984375 91.953125,83.984375 C91.015625,83.984375 90.234375,83.203125 90.234375,82.34375 C90.546875,73.4375 90.390625,64.609375 89.84375,56.171875 C90.390625,56.328125 91.015625,56.40625 91.5625,56.40625 C92.34375,56.40625 93.203125,56.25 93.90625,55.9375 C93.515625,64.375 93.359375,73.28125 93.671875,82.265625 Z M95.078125,53.75 C93.203125,55.625 90.15625,55.625 88.28125,53.75 C87.1875,52.65625 86.640625,51.015625 86.953125,49.53125 L88.359375,50.9375 C88.515625,51.09375 88.671875,51.09375 88.828125,51.09375 L91.71875,50.859375 C92.03125,50.859375 92.265625,50.625 92.265625,50.3125 L92.5,47.421875 C92.5,47.265625 92.421875,47.109375 92.34375,46.953125 L91.015625,45.625 C92.5,45.390625 93.984375,45.9375 95.078125,46.953125 C96.953125,48.828125 96.953125,51.875 95.078125,53.75 Z" id="Shape"></path>
                <path d="M97.96875,7.34375 L76.015625,7.34375 C75.078125,7.34375 74.375,8.046875 74.375,8.984375 L74.375,20.9375 C74.375,21.875 75.078125,22.578125 76.015625,22.578125 L97.96875,22.578125 C98.90625,22.578125 99.609375,21.875 99.609375,20.9375 L99.609375,8.984375 C99.609375,8.125 98.90625,7.34375 97.96875,7.34375 Z M98.4375,20.9375 C98.4375,21.171875 98.203125,21.40625 97.96875,21.40625 L76.015625,21.40625 C75.78125,21.40625 75.546875,21.171875 75.546875,20.9375 L75.546875,8.984375 C75.546875,8.75 75.78125,8.515625 76.015625,8.515625 L97.96875,8.515625 C98.203125,8.515625 98.4375,8.75 98.4375,8.984375 L98.4375,20.9375 Z" id="Shape"></path>
                <path d="M91.71875,10.703125 C89.375,10.703125 87.5,12.578125 87.5,14.921875 C87.5,17.265625 89.375,19.140625 91.71875,19.140625 C94.0625,19.140625 95.9375,17.265625 95.9375,14.921875 C95.9375,12.65625 93.984375,10.703125 91.71875,10.703125 Z M91.71875,18.046875 C90,18.046875 88.671875,16.640625 88.671875,15 C88.671875,13.359375 90.078125,11.953125 91.71875,11.953125 C93.4375,11.953125 94.765625,13.359375 94.765625,15 C94.765625,16.640625 93.359375,18.046875 91.71875,18.046875 Z" id="Shape"></path>
                <path d="M83.90625,12.578125 L78.125,12.578125 C77.8125,12.578125 77.5,12.8125 77.5,13.203125 C77.5,13.515625 77.734375,13.828125 78.125,13.828125 L83.90625,13.828125 C84.21875,13.828125 84.53125,13.59375 84.53125,13.203125 C84.453125,12.8125 84.21875,12.578125 83.90625,12.578125 Z" id="Path"></path>
                <path d="M83.90625,16.171875 L78.125,16.171875 C77.8125,16.171875 77.5,16.40625 77.5,16.796875 C77.5,17.109375 77.734375,17.421875 78.125,17.421875 L83.90625,17.421875 C84.21875,17.421875 84.53125,17.1875 84.53125,16.796875 C84.453125,16.484375 84.21875,16.171875 83.90625,16.171875 Z" id="Path"></path>
                <path d="M78.671875,6.40625 L81.875,6.40625 C82.1875,6.40625 82.5,6.171875 82.5,5.78125 C82.5,5.390625 82.265625,5.15625 81.875,5.15625 L78.671875,5.15625 C78.359375,5.15625 78.046875,5.390625 78.046875,5.78125 C78.046875,6.171875 78.359375,6.40625 78.671875,6.40625 Z" id="Path"></path>
            </g>
        </g>
    </g>
</svg>